<?xml version="1.0" encoding="UTF-8" standalone="no"?>
<!DOCTYPE svg PUBLIC "-//W3C//DTD SVG 1.1//EN"
 "http://www.w3.org/Graphics/SVG/1.1/DTD/svg11.dtd">
<!-- Generated by graphviz version 2.38.0 (20140413.2041)
 -->
<!-- Title: controllers_diagram Pages: 1 -->
<svg width="1465pt" height="937pt"
 viewBox="0.00 0.00 1465.31 936.54" xmlns="http://www.w3.org/2000/svg" xmlns:xlink="http://www.w3.org/1999/xlink">
<g id="graph0" class="graph" transform="scale(1 1) rotate(0) translate(699.782 411.043)">
<title>controllers_diagram</title>
<polygon fill="white" stroke="none" points="-699.782,525.5 -699.782,-411.043 765.528,-411.043 765.528,525.5 -699.782,525.5"/>
<!-- _diagram_info -->
<g id="node1" class="node"><title>_diagram_info</title>
<text text-anchor="start" x="443.312" y="462.9" font-family="Times,serif" font-size="13.00">Controllers diagram</text>
<text text-anchor="start" x="443.312" y="475.9" font-family="Times,serif" font-size="13.00">Date: Oct 21 2014 &#45; 15:19</text>
<text text-anchor="start" x="443.312" y="488.9" font-family="Times,serif" font-size="13.00">Migration version: 20141013190813</text>
<text text-anchor="start" x="443.312" y="501.9" font-family="Times,serif" font-size="13.00">Generated by RailRoady 1.1.2</text>
<text text-anchor="start" x="443.312" y="514.9" font-family="Times,serif" font-size="13.00">http://railroady.prestonlee.com</text>
</g>
<!-- AppearancesController -->
<g id="node2" class="node"><title>AppearancesController</title>
<ellipse fill="none" stroke="black" cx="-603.662" cy="345.581" rx="92.2411" ry="18"/>
<text text-anchor="middle" x="-603.662" y="349.781" font-family="Times,serif" font-size="14.00">AppearancesController</text>
</g>
<!-- ApplicationController -->
<g id="node3" class="node"><title>ApplicationController</title>
<ellipse fill="none" stroke="black" cx="38.6285" cy="10.9346" rx="88.417" ry="18"/>
<text text-anchor="middle" x="38.6285" y="15.1346" font-family="Times,serif" font-size="14.00">ApplicationController</text>
</g>
<!-- ApplicationController&#45;&gt;AppearancesController -->
<g id="edge1" class="edge"><title>ApplicationController&#45;&gt;AppearancesController</title>
<path fill="none" stroke="black" d="M6.33704,27.7591C-103.43,84.9502 -461.442,271.481 -571.306,328.723"/>
</g>
<!-- ArticlesController -->
<g id="node4" class="node"><title>ArticlesController</title>
<ellipse fill="none" stroke="black" cx="5.57795" cy="403.814" rx="74.4016" ry="18"/>
<text text-anchor="middle" x="5.57795" y="408.014" font-family="Times,serif" font-size="14.00">ArticlesController</text>
</g>
<!-- ApplicationController&#45;&gt;ArticlesController -->
<g id="edge2" class="edge"><title>ApplicationController&#45;&gt;ArticlesController</title>
<path fill="none" stroke="black" d="M23.1125,28.82C-2.31544,59.8561 -50.6953,126.793 -57.1595,193.631 -64.2714,267.165 -24.5755,349.953 -4.93061,385.74"/>
</g>
<!-- AssociationsController -->
<g id="node5" class="node"><title>AssociationsController</title>
<ellipse fill="none" stroke="black" cx="-137.975" cy="-389.043" rx="91.8085" ry="18"/>
<text text-anchor="middle" x="-137.975" y="-384.843" font-family="Times,serif" font-size="14.00">AssociationsController</text>
</g>
<!-- ApplicationController&#45;&gt;AssociationsController -->
<g id="edge3" class="edge"><title>ApplicationController&#45;&gt;AssociationsController</title>
<path fill="none" stroke="black" d="M27.1254,-7.35484C7.42336,-39.1808 -33.2941,-107.189 -60.636,-168.178 -93.3768,-241.211 -121.526,-332.633 -132.762,-370.894"/>
</g>
<!-- AttributionsController -->
<g id="node6" class="node"><title>AttributionsController</title>
<ellipse fill="none" stroke="black" cx="430.906" cy="-85" rx="89.4033" ry="18"/>
<text text-anchor="middle" x="430.906" y="-80.8" font-family="Times,serif" font-size="14.00">AttributionsController</text>
</g>
<!-- ApplicationController&#45;&gt;AttributionsController -->
<g id="edge4" class="edge"><title>ApplicationController&#45;&gt;AttributionsController</title>
<path fill="none" stroke="black" d="M95.2501,-2.91269C169.618,-21.0998 299.466,-52.8553 373.983,-71.0791"/>
</g>
<!-- DatasetsController -->
<g id="node7" class="node"><title>DatasetsController</title>
<ellipse fill="none" stroke="black" cx="-374.24" cy="-110.86" rx="76.3312" ry="18"/>
<text text-anchor="middle" x="-374.24" y="-106.66" font-family="Times,serif" font-size="14.00">DatasetsController</text>
</g>
<!-- ApplicationController&#45;&gt;DatasetsController -->
<g id="edge5" class="edge"><title>ApplicationController&#45;&gt;DatasetsController</title>
<path fill="none" stroke="black" d="M-11.5845,-3.87805C-91.7431,-27.5245 -247.582,-73.4963 -326.289,-96.7147"/>
</g>
<!-- ImagesController -->
<g id="node8" class="node"><title>ImagesController</title>
<ellipse fill="none" stroke="black" cx="-371.059" cy="399.34" rx="71.9876" ry="18"/>
<text text-anchor="middle" x="-371.059" y="403.54" font-family="Times,serif" font-size="14.00">ImagesController</text>
</g>
<!-- ApplicationController&#45;&gt;ImagesController -->
<g id="edge6" class="edge"><title>ApplicationController&#45;&gt;ImagesController</title>
<path fill="none" stroke="black" d="M12.4727,28.3849C-32.0813,58.6869 -124.575,124.131 -193.633,190.066 -261.502,254.866 -329.984,343.863 -357.945,381.442"/>
</g>
<!-- JavascriptsController -->
<g id="node9" class="node"><title>JavascriptsController</title>
<ellipse fill="none" stroke="black" cx="676.269" cy="382.946" rx="85.0187" ry="18"/>
<text text-anchor="middle" x="676.269" y="387.146" font-family="Times,serif" font-size="14.00">JavascriptsController</text>
</g>
<!-- ApplicationController&#45;&gt;JavascriptsController -->
<g id="edge7" class="edge"><title>ApplicationController&#45;&gt;JavascriptsController</title>
<path fill="none" stroke="black" d="M68.1044,28.1314C174.894,90.4346 540.824,303.925 647.106,365.932"/>
</g>
<!-- LicensesController -->
<g id="node10" class="node"><title>LicensesController</title>
<ellipse fill="none" stroke="black" cx="-173.441" cy="401.344" rx="77.2916" ry="18"/>
<text text-anchor="middle" x="-173.441" y="405.544" font-family="Times,serif" font-size="14.00">LicensesController</text>
</g>
<!-- ApplicationController&#45;&gt;LicensesController -->
<g id="edge8" class="edge"><title>ApplicationController&#45;&gt;LicensesController</title>
<path fill="none" stroke="black" d="M28.8253,28.9819C-6.60998,94.2163 -127.836,317.388 -163.497,383.038"/>
</g>
<!-- LinksController -->
<g id="node11" class="node"><title>LinksController</title>
<ellipse fill="none" stroke="black" cx="249.434" cy="219.375" rx="66.7012" ry="18"/>
<text text-anchor="middle" x="249.434" y="223.575" font-family="Times,serif" font-size="14.00">LinksController</text>
</g>
<!-- ApplicationController&#45;&gt;LinksController -->
<g id="edge9" class="edge"><title>ApplicationController&#45;&gt;LinksController</title>
<path fill="none" stroke="black" d="M56.6017,28.7061C96.5284,68.1849 192.199,162.782 231.804,201.943"/>
</g>
<!-- LiteratureReferencesController -->
<g id="node12" class="node"><title>LiteratureReferencesController</title>
<ellipse fill="none" stroke="black" cx="65.0323" cy="193.512" rx="120.688" ry="18"/>
<text text-anchor="middle" x="65.0323" y="197.712" font-family="Times,serif" font-size="14.00">LiteratureReferencesController</text>
</g>
<!-- ApplicationController&#45;&gt;LiteratureReferencesController -->
<g id="edge10" class="edge"><title>ApplicationController&#45;&gt;LiteratureReferencesController</title>
<path fill="none" stroke="black" d="M41.2567,29.1082C46.3178,64.1046 57.362,140.473 62.4147,175.411"/>
</g>
<!-- MapsController -->
<g id="node13" class="node"><title>MapsController</title>
<ellipse fill="none" stroke="black" cx="-602.654" cy="13.0903" rx="66.2167" ry="18"/>
<text text-anchor="middle" x="-602.654" y="17.2903" font-family="Times,serif" font-size="14.00">MapsController</text>
</g>
<!-- ApplicationController&#45;&gt;MapsController -->
<g id="edge11" class="edge"><title>ApplicationController&#45;&gt;MapsController</title>
<path fill="none" stroke="black" d="M-42.9065,18.0335C-79.3813,20.7711 -122.934,23.438 -162.245,24.2406 -295.683,26.9653 -451.836,20.7947 -537.738,16.5896"/>
</g>
<!-- NamesController -->
<g id="node14" class="node"><title>NamesController</title>
<ellipse fill="none" stroke="black" cx="687.823" cy="119.517" rx="71.0272" ry="18"/>
<text text-anchor="middle" x="687.823" y="123.717" font-family="Times,serif" font-size="14.00">NamesController</text>
</g>
<!-- ApplicationController&#45;&gt;NamesController -->
<g id="edge12" class="edge"><title>ApplicationController&#45;&gt;NamesController</title>
<path fill="none" stroke="black" d="M90.8957,25.4358C115.798,32.0018 146.083,39.4931 173.576,44.9352 333.753,76.6423 524.498,100.797 622.515,112.228"/>
</g>
<!-- NodesController -->
<g id="node15" class="node"><title>NodesController</title>
<ellipse fill="none" stroke="black" cx="678.398" cy="-120.069" rx="69.1064" ry="18"/>
<text text-anchor="middle" x="678.398" y="-115.869" font-family="Times,serif" font-size="14.00">NodesController</text>
</g>
<!-- ApplicationController&#45;&gt;NodesController -->
<g id="edge13" class="edge"><title>ApplicationController&#45;&gt;NodesController</title>
<path fill="none" stroke="black" d="M109.392,0.0797882C199.456,-14.1633 359.634,-40.9287 495.243,-71.1689 542.303,-81.663 595.482,-96.1606 632.365,-106.643"/>
</g>
<!-- OldArticlesController -->
<g id="node16" class="node"><title>OldArticlesController</title>
<ellipse fill="none" stroke="black" cx="227.774" cy="-387.519" rx="87.9325" ry="18"/>
<text text-anchor="middle" x="227.774" y="-383.319" font-family="Times,serif" font-size="14.00">OldArticlesController</text>
</g>
<!-- ApplicationController&#45;&gt;OldArticlesController -->
<g id="edge14" class="edge"><title>ApplicationController&#45;&gt;OldArticlesController</title>
<path fill="none" stroke="black" d="M47.2472,-7.22154C78.757,-73.6001 187.512,-302.704 219.104,-369.256"/>
</g>
<!-- OldImagesController -->
<g id="node17" class="node"><title>OldImagesController</title>
<ellipse fill="none" stroke="black" cx="234.415" cy="30.9466" rx="85.0187" ry="18"/>
<text text-anchor="middle" x="234.415" y="35.1466" font-family="Times,serif" font-size="14.00">OldImagesController</text>
</g>
<!-- ApplicationController&#45;&gt;OldImagesController -->
<g id="edge15" class="edge"><title>ApplicationController&#45;&gt;OldImagesController</title>
<path fill="none" stroke="black" d="M117.698,19.0165C130.858,20.3617 144.49,21.755 157.593,23.0943"/>
</g>
<!-- OldMapsController -->
<g id="node18" class="node"><title>OldMapsController</title>
<ellipse fill="none" stroke="black" cx="414.227" cy="400.868" rx="79.2471" ry="18"/>
<text text-anchor="middle" x="414.227" y="405.068" font-family="Times,serif" font-size="14.00">OldMapsController</text>
</g>
<!-- ApplicationController&#45;&gt;OldMapsController -->
<g id="edge16" class="edge"><title>ApplicationController&#45;&gt;OldMapsController</title>
<path fill="none" stroke="black" d="M69.7872,27.9514C125.382,59.553 242.844,132.077 317.633,219.244 362.517,271.556 394.626,348.222 407.711,382.788"/>
</g>
<!-- OldSoundsController -->
<g id="node19" class="node"><title>OldSoundsController</title>
<ellipse fill="none" stroke="black" cx="-351.651" cy="-370.979" rx="85.5377" ry="18"/>
<text text-anchor="middle" x="-351.651" y="-366.779" font-family="Times,serif" font-size="14.00">OldSoundsController</text>
</g>
<!-- ApplicationController&#45;&gt;OldSoundsController -->
<g id="edge17" class="edge"><title>ApplicationController&#45;&gt;OldSoundsController</title>
<path fill="none" stroke="black" d="M29.9017,-7.23095C11.8445,-43.5585 -32.4818,-126.51 -86.4991,-182.942 -159.472,-259.177 -267.317,-324.371 -320.151,-353.976"/>
</g>
<!-- OldVideosController -->
<g id="node20" class="node"><title>OldVideosController</title>
<ellipse fill="none" stroke="black" cx="-598.807" cy="-323.996" rx="84.4979" ry="18"/>
<text text-anchor="middle" x="-598.807" y="-319.796" font-family="Times,serif" font-size="14.00">OldVideosController</text>
</g>
<!-- ApplicationController&#45;&gt;OldVideosController -->
<g id="edge18" class="edge"><title>ApplicationController&#45;&gt;OldVideosController</title>
<path fill="none" stroke="black" d="M6.58112,-5.90421C-102.357,-63.1438 -457.662,-249.833 -566.696,-307.123"/>
</g>
<!-- PartnersController -->
<g id="node21" class="node"><title>PartnersController</title>
<ellipse fill="none" stroke="black" cx="-163.533" cy="-182.83" rx="75.3707" ry="18"/>
<text text-anchor="middle" x="-163.533" y="-178.63" font-family="Times,serif" font-size="14.00">PartnersController</text>
</g>
<!-- ApplicationController&#45;&gt;PartnersController -->
<g id="edge19" class="edge"><title>ApplicationController&#45;&gt;PartnersController</title>
<path fill="none" stroke="black" d="M19.972,-6.94706C-18.6384,-43.9538 -106.894,-128.544 -145.214,-165.272"/>
</g>
<!-- PublicationsController -->
<g id="node22" class="node"><title>PublicationsController</title>
<ellipse fill="none" stroke="black" cx="-162.49" cy="4.64072" rx="90.3637" ry="18"/>
<text text-anchor="middle" x="-162.49" y="8.84072" font-family="Times,serif" font-size="14.00">PublicationsController</text>
</g>
<!-- ApplicationController&#45;&gt;PublicationsController -->
<g id="edge20" class="edge"><title>ApplicationController&#45;&gt;PublicationsController</title>
<path fill="none" stroke="black" d="M-48.7078,8.20145C-56.8704,7.94601 -65.1514,7.68686 -73.3304,7.43091"/>
</g>
<!-- RolesController -->
<g id="node23" class="node"><title>RolesController</title>
<ellipse fill="none" stroke="black" cx="-359.686" cy="145.049" rx="66.7012" ry="18"/>
<text text-anchor="middle" x="-359.686" y="149.249" font-family="Times,serif" font-size="14.00">RolesController</text>
</g>
<!-- ApplicationController&#45;&gt;RolesController -->
<g id="edge21" class="edge"><title>ApplicationController&#45;&gt;RolesController</title>
<path fill="none" stroke="black" d="M-7.45231,26.4502C-85.5768,52.7552 -242.837,105.706 -317.928,130.989"/>
</g>
<!-- SecionsController -->
<g id="node24" class="node"><title>SecionsController</title>
<ellipse fill="none" stroke="black" cx="226.603" cy="-165.672" rx="73.9344" ry="18"/>
<text text-anchor="middle" x="226.603" y="-161.472" font-family="Times,serif" font-size="14.00">SecionsController</text>
</g>
<!-- ApplicationController&#45;&gt;SecionsController -->
<g id="edge22" class="edge"><title>ApplicationController&#45;&gt;SecionsController</title>
<path fill="none" stroke="black" d="M57.687,-6.9713C93.9018,-40.9959 172.234,-114.591 208.052,-148.242"/>
</g>
<!-- SoundsController -->
<g id="node25" class="node"><title>SoundsController</title>
<ellipse fill="none" stroke="black" cx="427.725" cy="-347.918" rx="72.5067" ry="18"/>
<text text-anchor="middle" x="427.725" y="-343.718" font-family="Times,serif" font-size="14.00">SoundsController</text>
</g>
<!-- ApplicationController&#45;&gt;SoundsController -->
<g id="edge23" class="edge"><title>ApplicationController&#45;&gt;SoundsController</title>
<path fill="none" stroke="black" d="M71.4648,-5.77223C124.316,-33.7538 229.653,-94.127 302.17,-165.717 355.069,-217.939 399.732,-295.312 418.387,-329.979"/>
</g>
<!-- StylesheetsController -->
<g id="node26" class="node"><title>StylesheetsController</title>
<ellipse fill="none" stroke="black" cx="45.8312" cy="-377.354" rx="86.4964" ry="18"/>
<text text-anchor="middle" x="45.8312" y="-373.154" font-family="Times,serif" font-size="14.00">StylesheetsController</text>
</g>
<!-- ApplicationController&#45;&gt;StylesheetsController -->
<g id="edge24" class="edge"><title>ApplicationController&#45;&gt;StylesheetsController</title>
<path fill="none" stroke="black" d="M52.9868,-7.1414C76.1688,-38.1185 119.544,-104.235 122.293,-168.431 125.491,-243.1 80.1702,-324.253 57.8502,-359.428"/>
</g>
<!-- SynthsController -->
<g id="node27" class="node"><title>SynthsController</title>
<ellipse fill="none" stroke="black" cx="191.929" cy="417.106" rx="70.5772" ry="18"/>
<text text-anchor="middle" x="191.929" y="421.306" font-family="Times,serif" font-size="14.00">SynthsController</text>
</g>
<!-- ApplicationController&#45;&gt;SynthsController -->
<g id="edge25" class="edge"><title>ApplicationController&#45;&gt;SynthsController</title>
<path fill="none" stroke="black" d="M62.6189,28.2687C100.105,57.2799 170.066,119.789 187.224,193.393 189.927,204.989 182.254,207.643 181.235,219.507 175.561,285.57 184.521,364.332 189.274,399.097"/>
</g>
<!-- TraitsController -->
<g id="node28" class="node"><title>TraitsController</title>
<ellipse fill="none" stroke="black" cx="678.262" cy="-367.784" rx="66.5558" ry="18"/>
<text text-anchor="middle" x="678.262" y="-363.584" font-family="Times,serif" font-size="14.00">TraitsController</text>
</g>
<!-- ApplicationController&#45;&gt;TraitsController -->
<g id="edge26" class="edge"><title>ApplicationController&#45;&gt;TraitsController</title>
<path fill="none" stroke="black" d="M67.7743,-6.3223C174.82,-69.7027 545.489,-289.171 650.399,-351.287"/>
</g>
<!-- TranslationsController -->
<g id="node29" class="node"><title>TranslationsController</title>
<ellipse fill="none" stroke="black" cx="30.8286" cy="-168.304" rx="89.733" ry="18"/>
<text text-anchor="middle" x="30.8286" y="-164.104" font-family="Times,serif" font-size="14.00">TranslationsController</text>
</g>
<!-- ApplicationController&#45;&gt;TranslationsController -->
<g id="edge27" class="edge"><title>ApplicationController&#45;&gt;TranslationsController</title>
<path fill="none" stroke="black" d="M37.8377,-7.23821C36.3427,-41.592 33.1181,-115.693 31.6215,-150.084"/>
</g>
<!-- UrisController -->
<g id="node30" class="node"><title>UrisController</title>
<ellipse fill="none" stroke="black" cx="-130.349" cy="189.889" rx="61.8736" ry="18"/>
<text text-anchor="middle" x="-130.349" y="194.089" font-family="Times,serif" font-size="14.00">UrisController</text>
</g>
<!-- ApplicationController&#45;&gt;UrisController -->
<g id="edge28" class="edge"><title>ApplicationController&#45;&gt;UrisController</title>
<path fill="none" stroke="black" d="M21.8085,28.7476C-10.6645,63.138 -81.6256,138.289 -113.846,172.412"/>
</g>
<!-- VideosController -->
<g id="node31" class="node"><title>VideosController</title>
<ellipse fill="none" stroke="black" cx="445.788" cy="151.129" rx="70.9668" ry="18"/>
<text text-anchor="middle" x="445.788" y="155.329" font-family="Times,serif" font-size="14.00">VideosController</text>
</g>
<!-- ApplicationController&#45;&gt;VideosController -->
<g id="edge29" class="edge"><title>ApplicationController&#45;&gt;VideosController</title>
<path fill="none" stroke="black" d="M83.7573,26.4735C163.057,53.7782 326.3,109.987 403.525,136.577"/>
</g>
</g>
</svg>
