<?xml version="1.0" encoding="UTF-8" standalone="no"?>
<!DOCTYPE svg PUBLIC "-//W3C//DTD SVG 1.1//EN"
 "http://www.w3.org/Graphics/SVG/1.1/DTD/svg11.dtd">
<!-- Generated by graphviz version 2.38.0 (20140413.2041)
 -->
<!-- Title: controllers_diagram Pages: 1 -->
<svg width="313pt" height="206pt"
 viewBox="0.00 0.00 312.51 206.00" xmlns="http://www.w3.org/2000/svg" xmlns:xlink="http://www.w3.org/1999/xlink">
<g id="graph0" class="graph" transform="scale(1 1) rotate(0) translate(108.688 157.5)">
<title>controllers_diagram</title>
<polygon fill="white" stroke="none" points="-108.688,48.5 -108.688,-157.5 203.821,-157.5 203.821,48.5 -108.688,48.5"/>
<!-- _diagram_info -->
<g id="node1" class="node"><title>_diagram_info</title>
<text text-anchor="start" x="-96.6877" y="-14.1" font-family="Times,serif" font-size="13.00">Controllers diagram</text>
<text text-anchor="start" x="-96.6877" y="-1.1" font-family="Times,serif" font-size="13.00">Date: Oct 22 2014 &#45; 15:14</text>
<text text-anchor="start" x="-96.6877" y="11.9" font-family="Times,serif" font-size="13.00">Migration version: 20141022190532</text>
<text text-anchor="start" x="-96.6877" y="24.9" font-family="Times,serif" font-size="13.00">Generated by RailRoady 1.1.2</text>
<text text-anchor="start" x="-96.6877" y="37.9" font-family="Times,serif" font-size="13.00">http://railroady.prestonlee.com</text>
</g>
<!-- ApplicationController -->
<g id="node2" class="node"><title>ApplicationController</title>
<path fill="none" stroke="black" d="M72.1792,-61C72.1792,-61 187.821,-61 187.821,-61 193.821,-61 199.821,-67 199.821,-73 199.821,-73 199.821,-141 199.821,-141 199.821,-147 193.821,-153 187.821,-153 187.821,-153 72.1792,-153 72.1792,-153 66.1792,-153 60.1792,-147 60.1792,-141 60.1792,-141 60.1792,-73 60.1792,-73 60.1792,-67 66.1792,-61 72.1792,-61"/>
<text text-anchor="middle" x="130" y="-137.8" font-family="Times,serif" font-size="14.00">ApplicationController</text>
<polyline fill="none" stroke="black" points="60.1792,-131 199.821,-131 "/>
<polyline fill="none" stroke="black" points="60.1792,-107 199.821,-107 "/>
<polyline fill="none" stroke="black" points="60.1792,-83 199.821,-83 "/>
<text text-anchor="start" x="68.1792" y="-67.8" font-family="Times,serif" font-size="14.00">_layout</text>
</g>
</g>
</svg>
