<?xml version="1.0" encoding="UTF-8" standalone="no"?>
<!DOCTYPE svg PUBLIC "-//W3C//DTD SVG 1.1//EN"
 "http://www.w3.org/Graphics/SVG/1.1/DTD/svg11.dtd">
<!-- Generated by graphviz version 2.38.0 (20140413.2041)
 -->
<!-- Title: controllers_diagram Pages: 1 -->
<svg width="1430pt" height="973pt"
 viewBox="0.00 0.00 1430.45 972.86" xmlns="http://www.w3.org/2000/svg" xmlns:xlink="http://www.w3.org/1999/xlink">
<g id="graph0" class="graph" transform="scale(1 1) rotate(0) translate(732.76 563.5)">
<title>controllers_diagram</title>
<polygon fill="white" stroke="none" points="-732.76,409.364 -732.76,-563.5 697.688,-563.5 697.688,409.364 -732.76,409.364"/>
<!-- _diagram_info -->
<g id="node1" class="node"><title>_diagram_info</title>
<text text-anchor="start" x="494.312" y="-545.1" font-family="Times,serif" font-size="13.00">Controllers diagram</text>
<text text-anchor="start" x="494.312" y="-532.1" font-family="Times,serif" font-size="13.00">Date: Oct 13 2014 &#45; 15:09</text>
<text text-anchor="start" x="494.312" y="-519.1" font-family="Times,serif" font-size="13.00">Migration version: 20141013190813</text>
<text text-anchor="start" x="494.312" y="-506.1" font-family="Times,serif" font-size="13.00">Generated by RailRoady 1.1.2</text>
<text text-anchor="start" x="494.312" y="-493.1" font-family="Times,serif" font-size="13.00">http://railroady.prestonlee.com</text>
</g>
<!-- AppearancesController -->
<g id="node2" class="node"><title>AppearancesController</title>
<ellipse fill="none" stroke="black" cx="-636.639" cy="326.489" rx="92.2411" ry="18"/>
<text text-anchor="middle" x="-636.639" y="330.689" font-family="Times,serif" font-size="14.00">AppearancesController</text>
</g>
<!-- ApplicationController -->
<g id="node3" class="node"><title>ApplicationController</title>
<ellipse fill="none" stroke="black" cx="12.8823" cy="20.5002" rx="88.417" ry="18"/>
<text text-anchor="middle" x="12.8823" y="24.7002" font-family="Times,serif" font-size="14.00">ApplicationController</text>
</g>
<!-- ApplicationController&#45;&gt;AppearancesController -->
<g id="edge1" class="edge"><title>ApplicationController&#45;&gt;AppearancesController</title>
<path fill="none" stroke="black" d="M-22.5001,37.1688C-135.671,90.4836 -488.008,256.469 -601.225,309.805"/>
</g>
<!-- ArticlesController -->
<g id="node4" class="node"><title>ArticlesController</title>
<ellipse fill="none" stroke="black" cx="-40.5142" cy="383.533" rx="74.4016" ry="18"/>
<text text-anchor="middle" x="-40.5142" y="387.733" font-family="Times,serif" font-size="14.00">ArticlesController</text>
</g>
<!-- ApplicationController&#45;&gt;ArticlesController -->
<g id="edge2" class="edge"><title>ApplicationController&#45;&gt;ArticlesController</title>
<path fill="none" stroke="black" d="M31.3209,38.239C58.9796,66.9331 107.585,126.435 103.565,186.814 98.2644,266.436 22.653,335.459 -16.8517,366.322"/>
</g>
<!-- AssociationsController -->
<g id="node5" class="node"><title>AssociationsController</title>
<ellipse fill="none" stroke="black" cx="-210.571" cy="-337.034" rx="91.8085" ry="18"/>
<text text-anchor="middle" x="-210.571" y="-332.834" font-family="Times,serif" font-size="14.00">AssociationsController</text>
</g>
<!-- ApplicationController&#45;&gt;AssociationsController -->
<g id="edge3" class="edge"><title>ApplicationController&#45;&gt;AssociationsController</title>
<path fill="none" stroke="black" d="M-0.565358,2.45518C-22.3369,-27.0217 -66.2655,-87.5968 -100.003,-141.204 -140.139,-204.978 -182.602,-283.897 -201.07,-318.878"/>
</g>
<!-- CollectionAttributionsController -->
<g id="node6" class="node"><title>CollectionAttributionsController</title>
<ellipse fill="none" stroke="black" cx="338.753" cy="-47.2286" rx="126.087" ry="18"/>
<text text-anchor="middle" x="338.753" y="-43.0286" font-family="Times,serif" font-size="14.00">CollectionAttributionsController</text>
</g>
<!-- ApplicationController&#45;&gt;CollectionAttributionsController -->
<g id="edge4" class="edge"><title>ApplicationController&#45;&gt;CollectionAttributionsController</title>
<path fill="none" stroke="black" d="M74.9431,7.60151C129.789,-3.79753 209.774,-20.4217 267.279,-32.3734"/>
</g>
<!-- NodesController -->
<g id="node7" class="node"><title>NodesController</title>
<ellipse fill="none" stroke="black" cx="-419.702" cy="-82.725" rx="79.2385" ry="18"/>
<text text-anchor="middle" x="-419.702" y="-78.525" font-family="Times,serif" font-size="14.00">NodesController</text>
</g>
<!-- ApplicationController&#45;&gt;NodesController -->
<g id="edge5" class="edge"><title>ApplicationController&#45;&gt;NodesController</title>
<path fill="none" stroke="black" d="M-44.5616,6.79267C-128.219,-13.1699 -282.534,-49.9933 -364.757,-69.6138"/>
</g>
<!-- ImagesController -->
<g id="node8" class="node"><title>ImagesController</title>
<ellipse fill="none" stroke="black" cx="-412.002" cy="369.657" rx="71.9876" ry="18"/>
<text text-anchor="middle" x="-412.002" y="373.857" font-family="Times,serif" font-size="14.00">ImagesController</text>
</g>
<!-- ApplicationController&#45;&gt;ImagesController -->
<g id="edge6" class="edge"><title>ApplicationController&#45;&gt;ImagesController</title>
<path fill="none" stroke="black" d="M-9.11567,37.9701C-42.7127,65.8591 -106.513,123.789 -140.815,187.112 -142.91,190.979 -140.708,193.111 -143.242,196.704 -200.963,278.551 -310.898,330.962 -370.723,354.757"/>
</g>
<!-- JavascriptsController -->
<g id="node9" class="node"><title>JavascriptsController</title>
<ellipse fill="none" stroke="black" cx="358.067" cy="163.169" rx="85.0187" ry="18"/>
<text text-anchor="middle" x="358.067" y="167.369" font-family="Times,serif" font-size="14.00">JavascriptsController</text>
</g>
<!-- ApplicationController&#45;&gt;JavascriptsController -->
<g id="edge7" class="edge"><title>ApplicationController&#45;&gt;JavascriptsController</title>
<path fill="none" stroke="black" d="M52.5149,36.6304C96.4427,54.535 169.371,84.3379 232.048,110.323 261.524,122.543 294.813,136.51 319.772,147.015"/>
</g>
<!-- LicensesController -->
<g id="node10" class="node"><title>LicensesController</title>
<ellipse fill="none" stroke="black" cx="-221.641" cy="387.364" rx="77.2916" ry="18"/>
<text text-anchor="middle" x="-221.641" y="391.564" font-family="Times,serif" font-size="14.00">LicensesController</text>
</g>
<!-- ApplicationController&#45;&gt;LicensesController -->
<g id="edge8" class="edge"><title>ApplicationController&#45;&gt;LicensesController</title>
<path fill="none" stroke="black" d="M-9.11567,37.9701C-42.7127,65.8591 -106.513,123.789 -140.815,187.112 -142.91,190.979 -141.863,192.529 -143.242,196.704 -164.678,261.615 -197.769,335.799 -213.191,369.285"/>
</g>
<!-- LinksController -->
<g id="node11" class="node"><title>LinksController</title>
<ellipse fill="none" stroke="black" cx="324.6" cy="376.397" rx="66.7012" ry="18"/>
<text text-anchor="middle" x="324.6" y="380.597" font-family="Times,serif" font-size="14.00">LinksController</text>
</g>
<!-- ApplicationController&#45;&gt;LinksController -->
<g id="edge9" class="edge"><title>ApplicationController&#45;&gt;LinksController</title>
<path fill="none" stroke="black" d="M26.2776,38.4739C42.0614,59.4494 69.2901,95.0056 94.1359,124.367 170.927,215.114 268.801,318.311 307.629,358.792"/>
</g>
<!-- LiteratureReferencesController -->
<g id="node12" class="node"><title>LiteratureReferencesController</title>
<ellipse fill="none" stroke="black" cx="-18.625" cy="186.963" rx="120.688" ry="18"/>
<text text-anchor="middle" x="-18.625" y="191.163" font-family="Times,serif" font-size="14.00">LiteratureReferencesController</text>
</g>
<!-- ApplicationController&#45;&gt;LiteratureReferencesController -->
<g id="edge10" class="edge"><title>ApplicationController&#45;&gt;LiteratureReferencesController</title>
<path fill="none" stroke="black" d="M9.45048,38.6315C3.38978,70.6521 -9.13974,136.849 -15.1974,168.854"/>
</g>
<!-- MapsController -->
<g id="node13" class="node"><title>MapsController</title>
<ellipse fill="none" stroke="black" cx="-638.537" cy="25.4942" rx="66.2167" ry="18"/>
<text text-anchor="middle" x="-638.537" y="29.6942" font-family="Times,serif" font-size="14.00">MapsController</text>
</g>
<!-- ApplicationController&#45;&gt;MapsController -->
<g id="edge11" class="edge"><title>ApplicationController&#45;&gt;MapsController</title>
<path fill="none" stroke="black" d="M-66.5272,12.6191C-105.596,9.30094 -153.418,6.07061 -196.398,5.5043 -331.238,3.72758 -488.994,13.7817 -574.875,20.2804"/>
</g>
<!-- NamesController -->
<g id="node14" class="node"><title>NamesController</title>
<ellipse fill="none" stroke="black" cx="582.317" cy="117.179" rx="71.0272" ry="18"/>
<text text-anchor="middle" x="582.317" y="121.379" font-family="Times,serif" font-size="14.00">NamesController</text>
</g>
<!-- ApplicationController&#45;&gt;NamesController -->
<g id="edge12" class="edge"><title>ApplicationController&#45;&gt;NamesController</title>
<path fill="none" stroke="black" d="M80.7217,32.018C193.229,51.1195 416.559,89.0368 523.097,107.125"/>
</g>
<!-- OldArticlesController -->
<g id="node15" class="node"><title>OldArticlesController</title>
<ellipse fill="none" stroke="black" cx="569.786" cy="-95.3221" rx="87.9325" ry="18"/>
<text text-anchor="middle" x="569.786" y="-91.1221" font-family="Times,serif" font-size="14.00">OldArticlesController</text>
</g>
<!-- ApplicationController&#45;&gt;OldArticlesController -->
<g id="edge13" class="edge"><title>ApplicationController&#45;&gt;OldArticlesController</title>
<path fill="none" stroke="black" d="M51.1988,4.17704C97.0982,-14.6586 176.735,-45.0779 247.983,-61.0087 326.803,-78.6326 418.572,-87.2834 483.895,-91.4812"/>
</g>
<!-- OldImagesController -->
<g id="node16" class="node"><title>OldImagesController</title>
<ellipse fill="none" stroke="black" cx="149.804" cy="-326.32" rx="85.0187" ry="18"/>
<text text-anchor="middle" x="149.804" y="-322.12" font-family="Times,serif" font-size="14.00">OldImagesController</text>
</g>
<!-- ApplicationController&#45;&gt;OldImagesController -->
<g id="edge14" class="edge"><title>ApplicationController&#45;&gt;OldImagesController</title>
<path fill="none" stroke="black" d="M20.051,2.34193C43.7116,-57.59 119.149,-248.673 142.706,-308.342"/>
</g>
<!-- OldMapsController -->
<g id="node17" class="node"><title>OldMapsController</title>
<ellipse fill="none" stroke="black" cx="175.108" cy="124.259" rx="79.2471" ry="18"/>
<text text-anchor="middle" x="175.108" y="128.459" font-family="Times,serif" font-size="14.00">OldMapsController</text>
</g>
<!-- ApplicationController&#45;&gt;OldMapsController -->
<g id="edge15" class="edge"><title>ApplicationController&#45;&gt;OldMapsController</title>
<path fill="none" stroke="black" d="M40.0352,37.867C70.1616,57.1356 118.463,88.0289 148.406,107.18"/>
</g>
<!-- OldSoundsController -->
<g id="node18" class="node"><title>OldSoundsController</title>
<ellipse fill="none" stroke="black" cx="570.991" cy="360.324" rx="85.5377" ry="18"/>
<text text-anchor="middle" x="570.991" y="364.524" font-family="Times,serif" font-size="14.00">OldSoundsController</text>
</g>
<!-- ApplicationController&#45;&gt;OldSoundsController -->
<g id="edge16" class="edge"><title>ApplicationController&#45;&gt;OldSoundsController</title>
<path fill="none" stroke="black" d="M23.7779,38.3757C37.9354,60.5463 64.3891,98.5635 94.1359,124.367 228.453,240.878 430.399,315.585 522.32,345.478"/>
</g>
<!-- OldVideosController -->
<g id="node19" class="node"><title>OldVideosController</title>
<ellipse fill="none" stroke="black" cx="-407.566" cy="-321.371" rx="84.4979" ry="18"/>
<text text-anchor="middle" x="-407.566" y="-317.171" font-family="Times,serif" font-size="14.00">OldVideosController</text>
</g>
<!-- ApplicationController&#45;&gt;OldVideosController -->
<g id="edge17" class="edge"><title>ApplicationController&#45;&gt;OldVideosController</title>
<path fill="none" stroke="black" d="M-4.31758,2.61756C-34.9397,-28.8575 -101.458,-95.6081 -162.72,-146.191 -238.493,-208.754 -335.021,-273.903 -380.956,-304.1"/>
</g>
<!-- PublicationsController -->
<g id="node20" class="node"><title>PublicationsController</title>
<ellipse fill="none" stroke="black" cx="-635.846" cy="-277.634" rx="90.3637" ry="18"/>
<text text-anchor="middle" x="-635.846" y="-273.434" font-family="Times,serif" font-size="14.00">PublicationsController</text>
</g>
<!-- ApplicationController&#45;&gt;PublicationsController -->
<g id="edge18" class="edge"><title>ApplicationController&#45;&gt;PublicationsController</title>
<path fill="none" stroke="black" d="M-22.9202,4.04654C-136.208,-48.0169 -486.067,-208.8 -599.755,-261.048"/>
</g>
<!-- RolesController -->
<g id="node21" class="node"><title>RolesController</title>
<ellipse fill="none" stroke="black" cx="-230.92" cy="-146.074" rx="66.7012" ry="18"/>
<text text-anchor="middle" x="-230.92" y="-141.874" font-family="Times,serif" font-size="14.00">RolesController</text>
</g>
<!-- ApplicationController&#45;&gt;RolesController -->
<g id="edge19" class="edge"><title>ApplicationController&#45;&gt;RolesController</title>
<path fill="none" stroke="black" d="M-12.748,2.98862C-59.9389,-29.254 -159.978,-97.6044 -206.358,-129.293"/>
</g>
<!-- SecionsController -->
<g id="node22" class="node"><title>SecionsController</title>
<ellipse fill="none" stroke="black" cx="-196.336" cy="25.1043" rx="73.9344" ry="18"/>
<text text-anchor="middle" x="-196.336" y="29.3043" font-family="Times,serif" font-size="14.00">SecionsController</text>
</g>
<!-- ApplicationController&#45;&gt;SecionsController -->
<g id="edge20" class="edge"><title>ApplicationController&#45;&gt;SecionsController</title>
<path fill="none" stroke="black" d="M-74.9357,22.4327C-90.8149,22.7822 -107.224,23.1433 -122.648,23.4827"/>
</g>
<!-- SoundsController -->
<g id="node23" class="node"><title>SoundsController</title>
<ellipse fill="none" stroke="black" cx="-413.451" cy="133.976" rx="72.5067" ry="18"/>
<text text-anchor="middle" x="-413.451" y="138.176" font-family="Times,serif" font-size="14.00">SoundsController</text>
</g>
<!-- ApplicationController&#45;&gt;SoundsController -->
<g id="edge21" class="edge"><title>ApplicationController&#45;&gt;SoundsController</title>
<path fill="none" stroke="black" d="M-41.1132,34.872C-124.465,57.0575 -283.251,99.3212 -363.855,120.775"/>
</g>
<!-- SourcesController -->
<g id="node24" class="node"><title>SourcesController</title>
<ellipse fill="none" stroke="black" cx="161.748" cy="-109.474" rx="74.4103" ry="18"/>
<text text-anchor="middle" x="161.748" y="-105.274" font-family="Times,serif" font-size="14.00">SourcesController</text>
</g>
<!-- ApplicationController&#45;&gt;SourcesController -->
<g id="edge22" class="edge"><title>ApplicationController&#45;&gt;SourcesController</title>
<path fill="none" stroke="black" d="M32.9589,2.9713C61.3709,-21.8351 113.016,-66.9266 141.514,-91.8076"/>
</g>
<!-- StylesheetsController -->
<g id="node25" class="node"><title>StylesheetsController</title>
<ellipse fill="none" stroke="black" cx="338.017" cy="-299.3" rx="86.4964" ry="18"/>
<text text-anchor="middle" x="338.017" y="-295.1" font-family="Times,serif" font-size="14.00">StylesheetsController</text>
</g>
<!-- ApplicationController&#45;&gt;StylesheetsController -->
<g id="edge23" class="edge"><title>ApplicationController&#45;&gt;StylesheetsController</title>
<path fill="none" stroke="black" d="M20.2255,2.21291C31.5114,-24.3829 55.0654,-74.3776 85.6927,-109.422 153.339,-186.822 257.251,-252.702 308.017,-282.416"/>
</g>
<!-- SynthsController -->
<g id="node26" class="node"><title>SynthsController</title>
<ellipse fill="none" stroke="black" cx="-29.9931" cy="-333.398" rx="70.5772" ry="18"/>
<text text-anchor="middle" x="-29.9931" y="-329.198" font-family="Times,serif" font-size="14.00">SynthsController</text>
</g>
<!-- ApplicationController&#45;&gt;SynthsController -->
<g id="edge24" class="edge"><title>ApplicationController&#45;&gt;SynthsController</title>
<path fill="none" stroke="black" d="M16.5806,2.50994C22.2402,-27.3976 31.8649,-89.2236 26.5679,-141.433 19.8696,-207.455 -8.31857,-281.818 -22.2011,-315.324"/>
</g>
<!-- TraitsController -->
<g id="node27" class="node"><title>TraitsController</title>
<ellipse fill="none" stroke="black" cx="137.734" cy="359.107" rx="66.5558" ry="18"/>
<text text-anchor="middle" x="137.734" y="363.307" font-family="Times,serif" font-size="14.00">TraitsController</text>
</g>
<!-- ApplicationController&#45;&gt;TraitsController -->
<g id="edge25" class="edge"><title>ApplicationController&#45;&gt;TraitsController</title>
<path fill="none" stroke="black" d="M25.1581,38.582C44.7155,68.2288 82.847,129.609 103.565,186.814 123.192,241.004 132.463,309.089 135.971,341.016"/>
</g>
<!-- TranslationsController -->
<g id="node28" class="node"><title>TranslationsController</title>
<ellipse fill="none" stroke="black" cx="572.693" cy="-319.854" rx="89.733" ry="18"/>
<text text-anchor="middle" x="572.693" y="-315.654" font-family="Times,serif" font-size="14.00">TranslationsController</text>
</g>
<!-- ApplicationController&#45;&gt;TranslationsController -->
<g id="edge26" class="edge"><title>ApplicationController&#45;&gt;TranslationsController</title>
<path fill="none" stroke="black" d="M43.3348,3.55609C83.1984,-18.738 155.122,-59.3521 215.67,-95.6517 340.592,-170.544 487.035,-264.479 546.055,-302.597"/>
</g>
<!-- UrisController -->
<g id="node29" class="node"><title>UrisController</title>
<ellipse fill="none" stroke="black" cx="-36.7175" cy="-141.318" rx="61.8736" ry="18"/>
<text text-anchor="middle" x="-36.7175" y="-137.118" font-family="Times,serif" font-size="14.00">UrisController</text>
</g>
<!-- ApplicationController&#45;&gt;UrisController -->
<g id="edge27" class="edge"><title>ApplicationController&#45;&gt;UrisController</title>
<path fill="none" stroke="black" d="M7.28899,2.25212C-2.28771,-28.9917 -21.7099,-92.3564 -31.2203,-123.384"/>
</g>
<!-- VideosController -->
<g id="node30" class="node"><title>VideosController</title>
<ellipse fill="none" stroke="black" cx="-215.822" cy="196.89" rx="70.9668" ry="18"/>
<text text-anchor="middle" x="-215.822" y="201.09" font-family="Times,serif" font-size="14.00">VideosController</text>
</g>
<!-- ApplicationController&#45;&gt;VideosController -->
<g id="edge28" class="edge"><title>ApplicationController&#45;&gt;VideosController</title>
<path fill="none" stroke="black" d="M-9.88292,38.0579C-53.834,71.9554 -149.877,146.029 -193.487,179.663"/>
</g>
</g>
</svg>
