<?xml version="1.0" encoding="UTF-8" standalone="no"?>
<!DOCTYPE svg PUBLIC "-//W3C//DTD SVG 1.1//EN"
 "http://www.w3.org/Graphics/SVG/1.1/DTD/svg11.dtd">
<!-- Generated by graphviz version 2.38.0 (20140413.2041)
 -->
<!-- Title: models_diagram Pages: 1 -->
<svg width="2462pt" height="653pt"
 viewBox="0.00 0.00 2461.93 653.00" xmlns="http://www.w3.org/2000/svg" xmlns:xlink="http://www.w3.org/1999/xlink">
<g id="graph0" class="graph" transform="scale(1 1) rotate(0) translate(4 649)">
<title>models_diagram</title>
<polygon fill="white" stroke="none" points="-4,4 -4,-649 2457.93,-649 2457.93,4 -4,4"/>
<!-- _diagram_info -->
<g id="node1" class="node"><title>_diagram_info</title>
<text text-anchor="start" x="770.238" y="-630.6" font-family="Times,serif" font-size="13.00">Models diagram</text>
<text text-anchor="start" x="770.238" y="-617.6" font-family="Times,serif" font-size="13.00">Date: Oct 22 2014 &#45; 15:12</text>
<text text-anchor="start" x="770.238" y="-604.6" font-family="Times,serif" font-size="13.00">Migration version: 20141022190532</text>
<text text-anchor="start" x="770.238" y="-591.6" font-family="Times,serif" font-size="13.00">Generated by RailRoady 1.1.2</text>
<text text-anchor="start" x="770.238" y="-578.6" font-family="Times,serif" font-size="13.00">http://railroady.prestonlee.com</text>
</g>
<!-- Appearance -->
<g id="node2" class="node"><title>Appearance</title>
<ellipse fill="none" stroke="black" cx="492.925" cy="-409" rx="52.1589" ry="18"/>
<text text-anchor="middle" x="492.925" y="-404.8" font-family="Times,serif" font-size="14.00">Appearance</text>
</g>
<!-- Article -->
<g id="node3" class="node"><title>Article</title>
<ellipse fill="none" stroke="black" cx="1696.93" cy="-409" rx="34.8198" ry="18"/>
<text text-anchor="middle" x="1696.93" y="-404.8" font-family="Times,serif" font-size="14.00">Article</text>
</g>
<!-- ArticleSection -->
<g id="node4" class="node"><title>ArticleSection</title>
<ellipse fill="none" stroke="black" cx="1662.93" cy="-177" rx="61.3718" ry="18"/>
<text text-anchor="middle" x="1662.93" y="-172.8" font-family="Times,serif" font-size="14.00">ArticleSection</text>
</g>
<!-- Article&#45;&gt;ArticleSection -->
<g id="edge6" class="edge"><title>Article&#45;&gt;ArticleSection</title>
<path fill="none" stroke="#103b2c" d="M1704.88,-383.283C1715.86,-344.325 1731.1,-267.476 1700.93,-213 1698.66,-208.918 1695.75,-205.049 1692.55,-201.476"/>
<ellipse fill="none" stroke="#103b2c" cx="1703.74" cy="-387.161" rx="4.00001" ry="4.00001"/>
<polygon fill="#103b2c" stroke="#103b2c" points="1692.29,-201.216 1688.38,-190.97 1688.74,-197.687 1685.2,-194.157 1685.2,-194.157 1685.2,-194.157 1688.74,-197.687 1682.03,-197.345 1692.29,-201.216 1692.29,-201.216"/>
</g>
<!-- OnPage -->
<g id="node5" class="node"><title>OnPage</title>
<ellipse fill="none" stroke="black" cx="810.925" cy="-177" rx="51.726" ry="18"/>
<text text-anchor="middle" x="810.925" y="-172.8" font-family="Times,serif" font-size="14.00">OnPage</text>
</g>
<!-- Article&#45;&gt;OnPage -->
<g id="edge2" class="edge"><title>Article&#45;&gt;OnPage</title>
<path fill="none" stroke="#cf765d" d="M1683.61,-384.593C1669.78,-361.038 1648.45,-326.952 1635.93,-318 1512.49,-229.776 1041.25,-192.318 871.949,-181.517"/>
<ellipse fill="none" stroke="#cf765d" cx="1685.63" cy="-388.068" rx="4.00002" ry="4.00002"/>
<polygon fill="#cf765d" stroke="#cf765d" points="871.698,-181.501 862,-176.382 866.708,-181.187 861.717,-180.873 861.717,-180.873 861.717,-180.873 866.708,-181.187 861.435,-185.364 871.698,-181.501 871.698,-181.501"/>
</g>
<!-- Attribution -->
<g id="node6" class="node"><title>Attribution</title>
<ellipse fill="none" stroke="black" cx="955.925" cy="-336" rx="49.3205" ry="18"/>
<text text-anchor="middle" x="955.925" y="-331.8" font-family="Times,serif" font-size="14.00">Attribution</text>
</g>
<!-- Article&#45;&gt;Attribution -->
<g id="edge5" class="edge"><title>Article&#45;&gt;Attribution</title>
<path fill="none" stroke="#835876" d="M1654.93,-404.71C1521.34,-394.212 1111.48,-361.749 1051.93,-354 1037.74,-352.155 1022.47,-349.676 1008.36,-347.182"/>
<ellipse fill="none" stroke="#835876" cx="1658.96" cy="-405.026" rx="4" ry="4"/>
<polygon fill="#835876" stroke="#835876" points="1008.17,-347.148 999.128,-340.944 1003.25,-346.26 998.329,-345.373 998.329,-345.373 998.329,-345.373 1003.25,-346.26 997.53,-349.801 1008.17,-347.148 1008.17,-347.148"/>
</g>
<!-- LiteratureReference -->
<g id="node11" class="node"><title>LiteratureReference</title>
<ellipse fill="none" stroke="black" cx="1256.93" cy="-18" rx="80.6059" ry="18"/>
<text text-anchor="middle" x="1256.93" y="-13.8" font-family="Times,serif" font-size="14.00">LiteratureReference</text>
</g>
<!-- Article&#45;&gt;LiteratureReference -->
<g id="edge3" class="edge"><title>Article&#45;&gt;LiteratureReference</title>
<path fill="none" stroke="#062fbb" d="M1689.11,-383.173C1683.02,-364.834 1673.95,-339.439 1663.93,-318 1637.18,-260.824 1624.07,-249.902 1592.93,-195 1562.3,-141.006 1570.22,-115.444 1524.93,-73 1498.69,-48.4216 1409.68,-34.0234 1341.36,-26.3633"/>
<ellipse fill="none" stroke="#062fbb" cx="1690.44" cy="-387.26" rx="4.00001" ry="4.00001"/>
<polygon fill="#062fbb" stroke="#062fbb" points="1340.95,-26.3193 1331.5,-20.7629 1335.98,-25.7778 1331.01,-25.2364 1331.01,-25.2364 1331.01,-25.2364 1335.98,-25.7778 1330.52,-29.71 1340.95,-26.3193 1340.95,-26.3193"/>
</g>
<!-- OldArticle -->
<g id="node15" class="node"><title>OldArticle</title>
<ellipse fill="none" stroke="black" cx="1844.93" cy="-336" rx="47.8496" ry="18"/>
<text text-anchor="middle" x="1844.93" y="-331.8" font-family="Times,serif" font-size="14.00">OldArticle</text>
</g>
<!-- Article&#45;&gt;OldArticle -->
<g id="edge8" class="edge"><title>Article&#45;&gt;OldArticle</title>
<path fill="none" stroke="#2374f0" d="M1725.83,-391.338C1748.21,-380.012 1779.33,-365.082 1804.2,-353.739"/>
<ellipse fill="none" stroke="#2374f0" cx="1722.27" cy="-393.159" rx="4.00002" ry="4.00002"/>
<polygon fill="#2374f0" stroke="#2374f0" points="1804.29,-353.701 1815.25,-353.683 1808.84,-351.642 1813.4,-349.582 1813.4,-349.582 1813.4,-349.582 1808.84,-351.642 1811.54,-345.482 1804.29,-353.701 1804.29,-353.701"/>
</g>
<!-- Article&#45;&gt;OldArticle -->
<g id="edge58" class="edge"><title>Article&#45;&gt;OldArticle</title>
<path fill="none" stroke="black" d="M1723.72,-397.524C1751.3,-385.334 1793.6,-365.137 1820.35,-351.459"/>
</g>
<!-- Section -->
<g id="node24" class="node"><title>Section</title>
<ellipse fill="none" stroke="black" cx="1844.93" cy="-263" rx="36.7663" ry="18"/>
<text text-anchor="middle" x="1844.93" y="-258.8" font-family="Times,serif" font-size="14.00">Section</text>
</g>
<!-- Article&#45;&gt;Section -->
<g id="edge7" class="edge"><title>Article&#45;&gt;Section</title>
<path fill="none" stroke="#b902cd" d="M1725.17,-387.524C1730.9,-382.959 1736.76,-377.987 1741.93,-373 1764.85,-350.87 1766.1,-341.219 1787.93,-318 1798.19,-307.077 1810.16,-295.574 1820.47,-286.005"/>
<polygon fill="#b902cd" stroke="#b902cd" points="1724.86,-387.763 1714.19,-390.313 1720.9,-390.819 1716.94,-393.875 1716.94,-393.875 1716.94,-393.875 1720.9,-390.819 1719.69,-397.437 1724.86,-387.763 1724.86,-387.763"/>
<polygon fill="#b902cd" stroke="#b902cd" points="1820.61,-285.874 1831.02,-282.419 1824.29,-282.49 1827.97,-279.106 1827.97,-279.106 1827.97,-279.106 1824.29,-282.49 1824.93,-275.793 1820.61,-285.874 1820.61,-285.874"/>
</g>
<!-- Translation -->
<g id="node29" class="node"><title>Translation</title>
<ellipse fill="none" stroke="black" cx="1110.93" cy="-336" rx="50.1504" ry="18"/>
<text text-anchor="middle" x="1110.93" y="-331.8" font-family="Times,serif" font-size="14.00">Translation</text>
</g>
<!-- Article&#45;&gt;Translation -->
<g id="edge4" class="edge"><title>Article&#45;&gt;Translation</title>
<path fill="none" stroke="#7fd37b" d="M1656.34,-400.713C1609.26,-392.52 1529.22,-379.399 1459.93,-372 1331.52,-358.29 1297.17,-376.008 1169.93,-354 1165.55,-353.244 1161.04,-352.284 1156.56,-351.207"/>
<ellipse fill="none" stroke="#7fd37b" cx="1660.52" cy="-401.444" rx="4.00001" ry="4.00001"/>
<polygon fill="#7fd37b" stroke="#7fd37b" points="1156.51,-351.196 1147.95,-344.338 1151.67,-349.945 1146.83,-348.695 1146.83,-348.695 1146.83,-348.695 1151.67,-349.945 1145.7,-353.052 1156.51,-351.196 1156.51,-351.196"/>
</g>
<!-- Trait -->
<g id="node28" class="node"><title>Trait</title>
<ellipse fill="none" stroke="black" cx="873.925" cy="-91" rx="27" ry="18"/>
<text text-anchor="middle" x="873.925" y="-86.8" font-family="Times,serif" font-size="14.00">Trait</text>
</g>
<!-- OnPage&#45;&gt;Trait -->
<g id="edge11" class="edge"><title>OnPage&#45;&gt;Trait</title>
<path fill="none" stroke="#aacb03" d="M822.745,-152.021C831,-139.898 842.007,-125.302 851.789,-113.54"/>
<ellipse fill="none" stroke="#aacb03" cx="820.333" cy="-155.666" rx="4.00002" ry="4.00002"/>
<polygon fill="#aacb03" stroke="#aacb03" points="851.814,-113.512 861.735,-108.841 855.065,-109.713 858.317,-105.915 858.317,-105.915 858.317,-105.915 855.065,-109.713 854.898,-102.989 851.814,-113.512 851.814,-113.512"/>
</g>
<!-- Dataset -->
<g id="node7" class="node"><title>Dataset</title>
<ellipse fill="none" stroke="black" cx="553.925" cy="-336" rx="36.7489" ry="18"/>
<text text-anchor="middle" x="553.925" y="-331.8" font-family="Times,serif" font-size="14.00">Dataset</text>
</g>
<!-- Node -->
<g id="node14" class="node"><title>Node</title>
<ellipse fill="none" stroke="black" cx="70.9253" cy="-263" rx="29.0257" ry="18"/>
<text text-anchor="middle" x="70.9253" y="-258.8" font-family="Times,serif" font-size="14.00">Node</text>
</g>
<!-- Dataset&#45;&gt;Node -->
<g id="edge14" class="edge"><title>Dataset&#45;&gt;Node</title>
<path fill="none" stroke="#d9eefb" d="M511.07,-328.7C417.835,-314.995 197.834,-282.655 109.059,-269.606"/>
<ellipse fill="none" stroke="#d9eefb" cx="515.232" cy="-329.312" rx="4.00001" ry="4.00001"/>
<polygon fill="#d9eefb" stroke="#d9eefb" points="109.041,-269.603 99.8016,-263.696 104.094,-268.876 99.1472,-268.149 99.1472,-268.149 99.1472,-268.149 104.094,-268.876 98.4927,-272.601 109.041,-269.603 109.041,-269.603"/>
</g>
<!-- Image -->
<g id="node8" class="node"><title>Image</title>
<ellipse fill="none" stroke="black" cx="767.925" cy="-409" rx="32.4063" ry="18"/>
<text text-anchor="middle" x="767.925" y="-404.8" font-family="Times,serif" font-size="14.00">Image</text>
</g>
<!-- Image&#45;&gt;OnPage -->
<g id="edge16" class="edge"><title>Image&#45;&gt;OnPage</title>
<path fill="none" stroke="#274ab4" d="M742.001,-389.605C731.155,-380.312 719.736,-368.028 713.925,-354 707.802,-339.218 709.152,-333.271 713.925,-318 728.316,-271.961 763.752,-227.751 787.57,-201.731"/>
<ellipse fill="none" stroke="#274ab4" cx="745.174" cy="-392.193" rx="4.00002" ry="4.00002"/>
<polygon fill="#274ab4" stroke="#274ab4" points="787.725,-201.565 797.841,-197.331 791.139,-197.912 794.553,-194.258 794.553,-194.258 794.553,-194.258 791.139,-197.912 791.265,-191.186 787.725,-201.565 787.725,-201.565"/>
</g>
<!-- Image&#45;&gt;Attribution -->
<g id="edge19" class="edge"><title>Image&#45;&gt;Attribution</title>
<path fill="none" stroke="#3f85d8" d="M801.937,-395.155C833.128,-383.376 879.456,-365.879 913.146,-353.156"/>
<ellipse fill="none" stroke="#3f85d8" cx="797.808" cy="-396.715" rx="4.00001" ry="4.00001"/>
<polygon fill="#3f85d8" stroke="#3f85d8" points="913.372,-353.071 924.317,-353.747 918.05,-351.304 922.727,-349.538 922.727,-349.538 922.727,-349.538 918.05,-351.304 921.137,-345.328 913.372,-353.071 913.372,-353.071"/>
</g>
<!-- Image&#45;&gt;LiteratureReference -->
<g id="edge17" class="edge"><title>Image&#45;&gt;LiteratureReference</title>
<path fill="none" stroke="#3c3166" d="M737.945,-391.848C724.68,-382.768 710.771,-370.018 704.925,-354 699.44,-338.97 702.726,-333.848 704.925,-318 721.957,-195.277 726.417,-127.007 837.925,-73 894.621,-45.5402 1063.89,-30.6182 1169.13,-23.7719"/>
<ellipse fill="none" stroke="#3c3166" cx="741.417" cy="-394.089" rx="4.00002" ry="4.00002"/>
<polygon fill="#3c3166" stroke="#3c3166" points="1169.44,-23.752 1179.71,-27.6056 1174.43,-23.4333 1179.42,-23.1147 1179.42,-23.1147 1179.42,-23.1147 1174.43,-23.4333 1179.13,-18.6238 1169.44,-23.752 1169.44,-23.752"/>
</g>
<!-- OldImage -->
<g id="node17" class="node"><title>OldImage</title>
<ellipse fill="none" stroke="black" cx="767.925" cy="-336" rx="45.4355" ry="18"/>
<text text-anchor="middle" x="767.925" y="-331.8" font-family="Times,serif" font-size="14.00">OldImage</text>
</g>
<!-- Image&#45;&gt;OldImage -->
<g id="edge20" class="edge"><title>Image&#45;&gt;OldImage</title>
<path fill="none" stroke="#79e236" d="M761.452,-383.142C761.124,-377.017 761.088,-370.425 761.342,-364.196"/>
<ellipse fill="none" stroke="#79e236" cx="761.771" cy="-387.186" rx="4" ry="4"/>
<polygon fill="#79e236" stroke="#79e236" points="761.344,-364.174 766.535,-354.514 761.695,-359.186 762.046,-354.198 762.046,-354.198 762.046,-354.198 761.695,-359.186 757.557,-353.882 761.344,-364.174 761.344,-364.174"/>
</g>
<!-- Image&#45;&gt;OldImage -->
<g id="edge60" class="edge"><title>Image&#45;&gt;OldImage</title>
<path fill="none" stroke="black" d="M773.765,-391.174C774.965,-380.02 774.978,-365.428 773.805,-354.198"/>
</g>
<!-- Image&#45;&gt;Translation -->
<g id="edge18" class="edge"><title>Image&#45;&gt;Translation</title>
<path fill="none" stroke="#8f809d" d="M805.66,-400.189C867.092,-387.473 988.859,-362.267 1058.61,-347.83"/>
<ellipse fill="none" stroke="#8f809d" cx="801.681" cy="-401.013" rx="4.00001" ry="4.00001"/>
<polygon fill="#8f809d" stroke="#8f809d" points="1058.71,-347.808 1069.42,-350.187 1063.61,-346.794 1068.51,-345.781 1068.51,-345.781 1068.51,-345.781 1063.61,-346.794 1067.59,-341.374 1058.71,-347.808 1058.71,-347.808"/>
</g>
<!-- Javascript -->
<g id="node9" class="node"><title>Javascript</title>
<ellipse fill="none" stroke="black" cx="1433.93" cy="-517" rx="45.4355" ry="18"/>
<text text-anchor="middle" x="1433.93" y="-512.8" font-family="Times,serif" font-size="14.00">Javascript</text>
</g>
<!-- Javascript&#45;&gt;Article -->
<g id="edge22" class="edge"><title>Javascript&#45;&gt;Article</title>
<path fill="none" stroke="#83724f" d="M1467.1,-498.099C1501.25,-479.846 1552.29,-453.093 1572.93,-445 1599.89,-434.426 1631.31,-425.593 1655.77,-419.446"/>
<ellipse fill="none" stroke="#83724f" cx="1463.19" cy="-500.194" rx="4.00002" ry="4.00002"/>
<polygon fill="#83724f" stroke="#83724f" points="1656.08,-419.369 1666.87,-421.349 1660.94,-418.174 1665.79,-416.979 1665.79,-416.979 1665.79,-416.979 1660.94,-418.174 1664.72,-412.61 1656.08,-419.369 1656.08,-419.369"/>
</g>
<!-- Map -->
<g id="node12" class="node"><title>Map</title>
<ellipse fill="none" stroke="black" cx="1247.93" cy="-409" rx="27" ry="18"/>
<text text-anchor="middle" x="1247.93" y="-404.8" font-family="Times,serif" font-size="14.00">Map</text>
</g>
<!-- Javascript&#45;&gt;Map -->
<g id="edge23" class="edge"><title>Javascript&#45;&gt;Map</title>
<path fill="none" stroke="#6564a8" d="M1380.69,-512.565C1352.13,-508.471 1317.62,-499.69 1291.93,-481 1283.44,-474.826 1270.48,-452.93 1260.82,-435.068"/>
<ellipse fill="none" stroke="#6564a8" cx="1385" cy="-513.127" rx="4.00001" ry="4.00001"/>
<polygon fill="#6564a8" stroke="#6564a8" points="1260.8,-435.032 1260.09,-424.089 1258.46,-430.616 1256.11,-426.2 1256.11,-426.2 1256.11,-426.2 1258.46,-430.616 1252.14,-428.31 1260.8,-435.032 1260.8,-435.032"/>
</g>
<!-- Javascript&#45;&gt;OldArticle -->
<g id="edge26" class="edge"><title>Javascript&#45;&gt;OldArticle</title>
<path fill="none" stroke="#076ef2" d="M1476.2,-502.833C1480.49,-501.526 1484.79,-500.228 1488.93,-499 1544.75,-482.4 1689.7,-454.709 1740.93,-427 1772.96,-409.674 1803.74,-381.048 1823.38,-360.736"/>
<ellipse fill="none" stroke="#076ef2" cx="1472.34" cy="-504.015" rx="4.00001" ry="4.00001"/>
<polygon fill="#076ef2" stroke="#076ef2" points="1823.46,-360.652 1833.61,-356.498 1826.91,-357.026 1830.35,-353.4 1830.35,-353.4 1830.35,-353.4 1826.91,-357.026 1827.09,-350.301 1823.46,-360.652 1823.46,-360.652"/>
</g>
<!-- OldMap -->
<g id="node18" class="node"><title>OldMap</title>
<ellipse fill="none" stroke="black" cx="1404.93" cy="-336" rx="39.6645" ry="18"/>
<text text-anchor="middle" x="1404.93" y="-331.8" font-family="Times,serif" font-size="14.00">OldMap</text>
</g>
<!-- Javascript&#45;&gt;OldMap -->
<g id="edge27" class="edge"><title>Javascript&#45;&gt;OldMap</title>
<path fill="none" stroke="#064a39" d="M1420.42,-491.791C1411.5,-474.367 1400.63,-449.981 1395.93,-427 1391.64,-406.038 1394.46,-381.893 1398.05,-363.893"/>
<ellipse fill="none" stroke="#064a39" cx="1422.49" cy="-495.734" rx="4.00002" ry="4.00002"/>
<polygon fill="#064a39" stroke="#064a39" points="1398.06,-363.844 1404.59,-355.037 1399.13,-358.959 1400.19,-354.075 1400.19,-354.075 1400.19,-354.075 1399.13,-358.959 1395.8,-353.113 1398.06,-363.844 1398.06,-363.844"/>
</g>
<!-- OldSound -->
<g id="node19" class="node"><title>OldSound</title>
<ellipse fill="none" stroke="black" cx="1224.93" cy="-336" rx="45.9545" ry="18"/>
<text text-anchor="middle" x="1224.93" y="-331.8" font-family="Times,serif" font-size="14.00">OldSound</text>
</g>
<!-- Javascript&#45;&gt;OldSound -->
<g id="edge28" class="edge"><title>Javascript&#45;&gt;OldSound</title>
<path fill="none" stroke="#fa4f5c" d="M1409.58,-495.15C1369.87,-461.142 1291.52,-394.037 1250.83,-359.184"/>
<ellipse fill="none" stroke="#fa4f5c" cx="1412.71" cy="-497.826" rx="4.00002" ry="4.00002"/>
<polygon fill="#fa4f5c" stroke="#fa4f5c" points="1250.81,-359.168 1246.14,-349.246 1247.01,-355.916 1243.21,-352.663 1243.21,-352.663 1243.21,-352.663 1247.01,-355.916 1240.29,-356.081 1250.81,-359.168 1250.81,-359.168"/>
</g>
<!-- OldVideo -->
<g id="node20" class="node"><title>OldVideo</title>
<ellipse fill="none" stroke="black" cx="1582.93" cy="-336" rx="44.4146" ry="18"/>
<text text-anchor="middle" x="1582.93" y="-331.8" font-family="Times,serif" font-size="14.00">OldVideo</text>
</g>
<!-- Javascript&#45;&gt;OldVideo -->
<g id="edge29" class="edge"><title>Javascript&#45;&gt;OldVideo</title>
<path fill="none" stroke="#75c756" d="M1453.02,-493.492C1465.42,-479.216 1482.15,-460.569 1497.93,-445 1532.44,-410.93 1558.1,-416.313 1579.93,-373 1581.27,-370.322 1582.22,-367.389 1582.88,-364.389"/>
<ellipse fill="none" stroke="#75c756" cx="1450.26" cy="-496.69" rx="4.00002" ry="4.00002"/>
<polygon fill="#75c756" stroke="#75c756" points="1582.91,-364.135 1588.57,-354.743 1583.5,-359.171 1584.1,-354.207 1584.1,-354.207 1584.1,-354.207 1583.5,-359.171 1579.63,-353.67 1582.91,-364.135 1582.91,-364.135"/>
</g>
<!-- Sound -->
<g id="node25" class="node"><title>Sound</title>
<ellipse fill="none" stroke="black" cx="1103.93" cy="-409" rx="32.9255" ry="18"/>
<text text-anchor="middle" x="1103.93" y="-404.8" font-family="Times,serif" font-size="14.00">Sound</text>
</g>
<!-- Javascript&#45;&gt;Sound -->
<g id="edge24" class="edge"><title>Javascript&#45;&gt;Sound</title>
<path fill="none" stroke="#499c77" d="M1380.44,-513.674C1334.88,-510.256 1268.33,-501.819 1213.93,-481 1182.44,-468.952 1150.52,-447.033 1129.23,-430.725"/>
<ellipse fill="none" stroke="#499c77" cx="1384.71" cy="-513.974" rx="4" ry="4"/>
<polygon fill="#499c77" stroke="#499c77" points="1129.22,-430.719 1124.11,-421.017 1125.28,-427.641 1121.34,-424.563 1121.34,-424.563 1121.34,-424.563 1125.28,-427.641 1118.57,-428.11 1129.22,-430.719 1129.22,-430.719"/>
</g>
<!-- Video -->
<g id="node32" class="node"><title>Video</title>
<ellipse fill="none" stroke="black" cx="1435.93" cy="-409" rx="31.3854" ry="18"/>
<text text-anchor="middle" x="1435.93" y="-404.8" font-family="Times,serif" font-size="14.00">Video</text>
</g>
<!-- Javascript&#45;&gt;Video -->
<g id="edge25" class="edge"><title>Javascript&#45;&gt;Video</title>
<path fill="none" stroke="#75c86c" d="M1434.4,-490.795C1434.7,-474.735 1435.1,-453.927 1435.41,-437.45"/>
<ellipse fill="none" stroke="#75c86c" cx="1434.32" cy="-494.97" rx="4" ry="4"/>
<polygon fill="#75c86c" stroke="#75c86c" points="1435.41,-437.339 1440.1,-427.426 1435.5,-432.34 1435.6,-427.341 1435.6,-427.341 1435.6,-427.341 1435.5,-432.34 1431.1,-427.256 1435.41,-437.339 1435.41,-437.339"/>
</g>
<!-- License -->
<g id="node10" class="node"><title>License</title>
<ellipse fill="none" stroke="black" cx="1111.93" cy="-517" rx="37.7092" ry="18"/>
<text text-anchor="middle" x="1111.93" y="-512.8" font-family="Times,serif" font-size="14.00">License</text>
</g>
<!-- License&#45;&gt;Article -->
<g id="edge35" class="edge"><title>License&#45;&gt;Article</title>
<path fill="none" stroke="#5fbc48" d="M1154.54,-508.05C1225.66,-494.806 1373.07,-467.462 1497.93,-445 1551.92,-435.287 1614.21,-424.379 1654.51,-417.362"/>
<ellipse fill="none" stroke="#5fbc48" cx="1150.18" cy="-508.861" rx="4.00001" ry="4.00001"/>
<polygon fill="#5fbc48" stroke="#5fbc48" points="1654.66,-417.335 1665.28,-420.054 1659.59,-416.478 1664.51,-415.621 1664.51,-415.621 1664.51,-415.621 1659.59,-416.478 1663.74,-411.188 1654.66,-417.335 1654.66,-417.335"/>
</g>
<!-- License&#45;&gt;Dataset -->
<g id="edge31" class="edge"><title>License&#45;&gt;Dataset</title>
<path fill="none" stroke="#70870c" d="M1067.18,-511.794C1020.09,-506.778 944.053,-497 879.925,-481 809.959,-463.543 793.074,-455.711 726.925,-427 699.712,-415.189 628.686,-377.373 586.585,-354.691"/>
<ellipse fill="none" stroke="#70870c" cx="1071.36" cy="-512.231" rx="4" ry="4"/>
<polygon fill="#70870c" stroke="#70870c" points="586.361,-354.57 579.697,-345.861 581.96,-352.196 577.56,-349.822 577.56,-349.822 577.56,-349.822 581.96,-352.196 575.423,-353.782 586.361,-354.57 586.361,-354.57"/>
</g>
<!-- License&#45;&gt;Image -->
<g id="edge32" class="edge"><title>License&#45;&gt;Image</title>
<path fill="none" stroke="#92fc2c" d="M1080.42,-499.421C1048.75,-483.379 998.115,-459.43 951.925,-445 903.979,-430.021 846.899,-420.375 809.166,-415.08"/>
<ellipse fill="none" stroke="#92fc2c" cx="1084.1" cy="-501.299" rx="4.00002" ry="4.00002"/>
<polygon fill="#92fc2c" stroke="#92fc2c" points="808.968,-415.053 799.668,-409.243 804.014,-414.377 799.06,-413.701 799.06,-413.701 799.06,-413.701 804.014,-414.377 798.451,-418.16 808.968,-415.053 808.968,-415.053"/>
</g>
<!-- License&#45;&gt;Map -->
<g id="edge34" class="edge"><title>License&#45;&gt;Map</title>
<path fill="none" stroke="#361a3d" d="M1133.01,-494.285C1147.92,-479.52 1168.76,-460.016 1188.93,-445 1198.12,-438.153 1208.74,-431.508 1218.41,-425.88"/>
<ellipse fill="none" stroke="#361a3d" cx="1129.84" cy="-497.467" rx="4.00002" ry="4.00002"/>
<polygon fill="#361a3d" stroke="#361a3d" points="1218.62,-425.76 1229.54,-424.736 1222.97,-423.291 1227.32,-420.823 1227.32,-420.823 1227.32,-420.823 1222.97,-423.291 1225.1,-416.909 1218.62,-425.76 1218.62,-425.76"/>
</g>
<!-- License&#45;&gt;Sound -->
<g id="edge36" class="edge"><title>License&#45;&gt;Sound</title>
<path fill="none" stroke="#36e0f2" d="M1110.02,-490.743C1108.8,-474.577 1107.22,-453.617 1105.97,-437.103"/>
<ellipse fill="none" stroke="#36e0f2" cx="1110.34" cy="-494.981" rx="4" ry="4"/>
<polygon fill="#36e0f2" stroke="#36e0f2" points="1105.96,-436.96 1109.69,-426.65 1105.58,-431.974 1105.21,-426.988 1105.21,-426.988 1105.21,-426.988 1105.58,-431.974 1100.72,-427.327 1105.96,-436.96 1105.96,-436.96"/>
</g>
<!-- License&#45;&gt;Video -->
<g id="edge33" class="edge"><title>License&#45;&gt;Video</title>
<path fill="none" stroke="#ae6653" d="M1149.86,-503.589C1212.77,-483.007 1337.87,-442.081 1399.66,-421.865"/>
<ellipse fill="none" stroke="#ae6653" cx="1145.92" cy="-504.879" rx="4.00001" ry="4.00001"/>
<polygon fill="#ae6653" stroke="#ae6653" points="1399.86,-421.798 1410.77,-422.966 1404.62,-420.243 1409.37,-418.689 1409.37,-418.689 1409.37,-418.689 1404.62,-420.243 1407.97,-414.412 1399.86,-421.798 1399.86,-421.798"/>
</g>
<!-- Map&#45;&gt;OnPage -->
<g id="edge39" class="edge"><title>Map&#45;&gt;OnPage</title>
<path fill="none" stroke="#50002d" d="M1239.2,-383.431C1239.04,-379.405 1239.75,-375.433 1241.93,-372 1251.92,-356.209 1269.93,-369.791 1279.93,-354 1288.48,-340.48 1289.83,-330.566 1279.93,-318 1236.35,-262.716 1193.66,-300.176 1125.93,-281 1028.65,-253.458 916.502,-215.198 855.731,-193.91"/>
<ellipse fill="none" stroke="#50002d" cx="1239.91" cy="-387.667" rx="4.00001" ry="4.00001"/>
<polygon fill="#50002d" stroke="#50002d" points="855.506,-193.831 847.562,-186.271 850.789,-192.174 846.071,-190.517 846.071,-190.517 846.071,-190.517 850.789,-192.174 844.58,-194.763 855.506,-193.831 855.506,-193.831"/>
</g>
<!-- Map&#45;&gt;Attribution -->
<g id="edge42" class="edge"><title>Map&#45;&gt;Attribution</title>
<path fill="none" stroke="#5a5a95" d="M1215.17,-400.035C1164.23,-387.65 1065.69,-363.69 1005.86,-349.142"/>
<ellipse fill="none" stroke="#5a5a95" cx="1219.14" cy="-401.001" rx="4.00001" ry="4.00001"/>
<polygon fill="#5a5a95" stroke="#5a5a95" points="1005.6,-349.078 996.944,-342.343 1000.74,-347.897 995.881,-346.715 995.881,-346.715 995.881,-346.715 1000.74,-347.897 994.818,-351.088 1005.6,-349.078 1005.6,-349.078"/>
</g>
<!-- Map&#45;&gt;LiteratureReference -->
<g id="edge40" class="edge"><title>Map&#45;&gt;LiteratureReference</title>
<path fill="none" stroke="#33b282" d="M1273.99,-391.727C1300.26,-373.09 1336.93,-339.923 1336.93,-300 1336.93,-300 1336.93,-300 1336.93,-90 1336.93,-68.1368 1320,-51.3664 1301.73,-39.6285"/>
<ellipse fill="none" stroke="#33b282" cx="1270.53" cy="-394.104" rx="4.00002" ry="4.00002"/>
<polygon fill="#33b282" stroke="#33b282" points="1301.31,-39.3803 1295.01,-30.4022 1297.01,-36.8253 1292.71,-34.2703 1292.71,-34.2703 1292.71,-34.2703 1297.01,-36.8253 1290.41,-38.1385 1301.31,-39.3803 1301.31,-39.3803"/>
</g>
<!-- Map&#45;&gt;OldMap -->
<g id="edge43" class="edge"><title>Map&#45;&gt;OldMap</title>
<path fill="none" stroke="#029053" d="M1275.19,-393.13C1300.39,-381.052 1337.88,-364.096 1366.16,-351.987"/>
<ellipse fill="none" stroke="#029053" cx="1271.31" cy="-395.007" rx="4.00002" ry="4.00002"/>
<polygon fill="#029053" stroke="#029053" points="1366.16,-351.987 1377.12,-352.223 1370.76,-350.034 1375.36,-348.081 1375.36,-348.081 1375.36,-348.081 1370.76,-350.034 1373.6,-343.938 1366.16,-351.987 1366.16,-351.987"/>
</g>
<!-- Map&#45;&gt;OldMap -->
<g id="edge61" class="edge"><title>Map&#45;&gt;OldMap</title>
<path fill="none" stroke="black" d="M1271.11,-399.577C1300.6,-387.418 1350.84,-364.827 1380.77,-350.373"/>
</g>
<!-- Map&#45;&gt;Translation -->
<g id="edge41" class="edge"><title>Map&#45;&gt;Translation</title>
<path fill="none" stroke="#8dc1d3" d="M1222.61,-391.59C1212.33,-385.178 1200.23,-377.952 1188.93,-372 1177.11,-365.778 1163.97,-359.607 1151.89,-354.219"/>
<ellipse fill="none" stroke="#8dc1d3" cx="1226.03" cy="-393.74" rx="4.00002" ry="4.00002"/>
<polygon fill="#8dc1d3" stroke="#8dc1d3" points="1151.63,-354.106 1144.29,-345.961 1147.06,-352.093 1142.48,-350.081 1142.48,-350.081 1142.48,-350.081 1147.06,-352.093 1140.67,-354.2 1151.63,-354.106 1151.63,-354.106"/>
</g>
<!-- Name -->
<g id="node13" class="node"><title>Name</title>
<ellipse fill="none" stroke="black" cx="446.925" cy="-517" rx="31.4462" ry="18"/>
<text text-anchor="middle" x="446.925" y="-512.8" font-family="Times,serif" font-size="14.00">Name</text>
</g>
<!-- Name&#45;&gt;Appearance -->
<g id="edge45" class="edge"><title>Name&#45;&gt;Appearance</title>
<path fill="none" stroke="#e0865b" d="M457.33,-492.025C464.495,-475.514 474.018,-453.57 481.411,-436.534"/>
<ellipse fill="none" stroke="#e0865b" cx="455.705" cy="-495.768" rx="4.00002" ry="4.00002"/>
<polygon fill="#e0865b" stroke="#e0865b" points="481.502,-436.322 489.611,-428.94 483.493,-431.735 485.483,-427.149 485.483,-427.149 485.483,-427.149 483.493,-431.735 481.355,-425.357 481.502,-436.322 481.502,-436.322"/>
</g>
<!-- Name&#45;&gt;OnPage -->
<g id="edge46" class="edge"><title>Name&#45;&gt;OnPage</title>
<path fill="none" stroke="#cc0e81" d="M477.045,-500.79C502.817,-485.91 538.172,-460.594 553.925,-427 560.718,-412.514 560.837,-405.43 553.925,-391 542.591,-367.337 519.26,-377.663 507.925,-354 501.013,-339.57 502.096,-332.9 507.925,-318 531.072,-258.834 549.068,-243.271 604.925,-213 649.215,-188.997 706.071,-180.736 748.827,-178.202"/>
<ellipse fill="none" stroke="#cc0e81" cx="473.543" cy="-502.753" rx="4.00002" ry="4.00002"/>
<polygon fill="#cc0e81" stroke="#cc0e81" points="748.838,-178.201 759.052,-182.192 753.831,-177.949 758.825,-177.697 758.825,-177.697 758.825,-177.697 753.831,-177.949 758.598,-173.203 748.838,-178.201 748.838,-178.201"/>
</g>
<!-- Name&#45;&gt;LiteratureReference -->
<g id="edge47" class="edge"><title>Name&#45;&gt;LiteratureReference</title>
<path fill="none" stroke="#9069cc" d="M441.544,-490.907C438.021,-473.155 433.744,-448.739 431.925,-427 424.243,-335.196 454.925,-313.124 454.925,-221 454.925,-221 454.925,-221 454.925,-90 454.925,-54.5435 958.858,-30.686 1167.81,-22.3177"/>
<ellipse fill="none" stroke="#9069cc" cx="442.402" cy="-495.125" rx="4.00001" ry="4.00001"/>
<polygon fill="#9069cc" stroke="#9069cc" points="1167.84,-22.3165 1178.01,-26.4155 1172.84,-22.1178 1177.83,-21.9191 1177.83,-21.9191 1177.83,-21.9191 1172.84,-22.1178 1177.65,-17.4226 1167.84,-22.3165 1167.84,-22.3165"/>
</g>
<!-- Node&#45;&gt;OnPage -->
<g id="edge49" class="edge"><title>Node&#45;&gt;OnPage</title>
<path fill="none" stroke="#e63bc2" d="M107.464,-257.852C226.762,-244.31 605.586,-201.309 752.194,-184.667"/>
<ellipse fill="none" stroke="#e63bc2" cx="103.455" cy="-258.307" rx="4.00001" ry="4.00001"/>
<polygon fill="#e63bc2" stroke="#e63bc2" points="752.405,-184.643 762.849,-187.986 757.373,-184.079 762.341,-183.515 762.341,-183.515 762.341,-183.515 757.373,-184.079 761.834,-179.044 752.405,-184.643 752.405,-184.643"/>
</g>
<!-- Node&#45;&gt;Node -->
<g id="edge50" class="edge"><title>Node&#45;&gt;Node</title>
<path fill="none" stroke="#61ca86" d="M108.288,-265.066C114.17,-264.76 118.187,-264.071 118.187,-263 118.187,-262.048 115.013,-261.398 110.177,-261.05"/>
<ellipse fill="none" stroke="#61ca86" cx="104" cy="-265.161" rx="4" ry="4"/>
<polygon fill="#61ca86" stroke="#61ca86" points="109.997,-261.045 100.133,-256.252 104.999,-260.898 100.001,-260.751 100.001,-260.751 100.001,-260.751 104.999,-260.898 99.8685,-265.249 109.997,-261.045 109.997,-261.045"/>
<text text-anchor="middle" x="141.122" y="-258.8" font-family="Times,serif" font-size="14.00">contentren</text>
</g>
<!-- Node&#45;&gt;Node -->
<g id="edge52" class="edge"><title>Node&#45;&gt;Node</title>
<path fill="none" stroke="#b8c777" d="M110.056,-267.222C136.248,-268.153 164.056,-266.745 164.056,-263 164.056,-259.255 136.248,-257.847 110.056,-258.778"/>
<polygon fill="#b8c777" stroke="#b8c777" points="109.768,-267.209 99.996,-262.234 104.774,-266.969 99.7799,-266.728 99.7799,-266.728 99.7799,-266.728 104.774,-266.969 99.5638,-271.223 109.768,-267.209 109.768,-267.209"/>
<polygon fill="#b8c777" stroke="#b8c777" points="109.768,-258.791 99.5638,-254.777 104.774,-259.031 99.7799,-259.272 99.7799,-259.272 99.7799,-259.272 104.774,-259.031 99.996,-263.766 109.768,-258.791 109.768,-258.791"/>
<text text-anchor="middle" x="217.315" y="-258.8" font-family="Times,serif" font-size="14.00">self_and_ancestors</text>
</g>
<!-- Node&#45;&gt;Node -->
<g id="edge54" class="edge"><title>Node&#45;&gt;Node</title>
<path fill="none" stroke="#dd2763" d="M109.925,-267.833C169.587,-271.509 270.574,-269.898 270.574,-263 270.574,-256.102 169.587,-254.491 109.925,-258.167"/>
<polygon fill="#dd2763" stroke="#dd2763" points="109.632,-267.812 99.9705,-262.624 104.644,-267.463 99.656,-267.113 99.656,-267.113 99.656,-267.113 104.644,-267.463 99.3414,-271.602 109.632,-267.812 109.632,-267.812"/>
<polygon fill="#dd2763" stroke="#dd2763" points="109.632,-258.188 99.3414,-254.398 104.644,-258.537 99.656,-258.887 99.656,-258.887 99.656,-258.887 104.644,-258.537 99.9705,-263.376 109.632,-258.188 109.632,-258.188"/>
<text text-anchor="middle" x="331.609" y="-258.8" font-family="Times,serif" font-size="14.00">self_and_descendants</text>
</g>
<!-- NodeHierarchy -->
<g id="node34" class="node"><title>NodeHierarchy</title>
<ellipse fill="none" stroke="black" cx="70.9253" cy="-177" rx="64.7286" ry="18"/>
<text text-anchor="middle" x="70.9253" y="-172.8" font-family="Times,serif" font-size="14.00">NodeHierarchy</text>
</g>
<!-- Node&#45;&gt;NodeHierarchy -->
<g id="edge51" class="edge"><title>Node&#45;&gt;NodeHierarchy</title>
<path fill="none" stroke="#38b9e6" d="M36.0661,-252.538C23.3413,-247.214 10.2688,-239.115 2.87643,-227 -5.17392,-213.807 5.1557,-203.129 20.0053,-195.149"/>
<ellipse fill="none" stroke="#38b9e6" cx="40.1503" cy="-254.088" rx="4.00001" ry="4.00001"/>
<polygon fill="#38b9e6" stroke="#38b9e6" points="20.1462,-195.082 31.109,-194.823 24.6561,-192.923 29.1661,-190.764 29.1661,-190.764 29.1661,-190.764 24.6561,-192.923 27.2231,-186.705 20.1462,-195.082 20.1462,-195.082"/>
<text text-anchor="middle" x="60.4497" y="-215.8" font-family="Times,serif" font-size="14.00">ancestor_hierarchies</text>
</g>
<!-- Node&#45;&gt;NodeHierarchy -->
<g id="edge53" class="edge"><title>Node&#45;&gt;NodeHierarchy</title>
<path fill="none" stroke="#a31387" d="M100.389,-247.021C113.455,-238.193 124.547,-226.187 117.925,-213 115.414,-207.999 111.813,-203.532 107.705,-199.6"/>
<ellipse fill="none" stroke="#a31387" cx="96.8554" cy="-249.222" rx="4.00002" ry="4.00002"/>
<polygon fill="#a31387" stroke="#a31387" points="107.579,-199.495 102.77,-189.64 103.735,-196.297 99.8917,-193.099 99.8917,-193.099 99.8917,-193.099 103.735,-196.297 97.0137,-196.558 107.579,-199.495 107.579,-199.495"/>
<text text-anchor="middle" x="185.226" y="-215.8" font-family="Times,serif" font-size="14.00">descendant_hierarchies</text>
</g>
<!-- OldArticleSection -->
<g id="node16" class="node"><title>OldArticleSection</title>
<ellipse fill="none" stroke="black" cx="2313.93" cy="-177" rx="74.4016" ry="18"/>
<text text-anchor="middle" x="2313.93" y="-172.8" font-family="Times,serif" font-size="14.00">OldArticleSection</text>
</g>
<!-- OldArticle&#45;&gt;OldArticleSection -->
<g id="edge57" class="edge"><title>OldArticle&#45;&gt;OldArticleSection</title>
<path fill="none" stroke="#1deafa" d="M1899.92,-331.52C1989.84,-325.092 2163.75,-309.356 2217.93,-281 2252.45,-262.93 2281.21,-227.421 2297.99,-203.202"/>
<ellipse fill="none" stroke="#1deafa" cx="1895.74" cy="-331.814" rx="4" ry="4"/>
<polygon fill="#1deafa" stroke="#1deafa" points="2298.03,-203.137 2307.35,-197.356 2300.82,-198.99 2303.62,-194.843 2303.62,-194.843 2303.62,-194.843 2300.82,-198.99 2299.88,-192.329 2298.03,-203.137 2298.03,-203.137"/>
</g>
<!-- OldArticle&#45;&gt;Section -->
<g id="edge56" class="edge"><title>OldArticle&#45;&gt;Section</title>
<path fill="none" stroke="#153abc" d="M1844.93,-307.753C1844.93,-302.276 1844.93,-296.521 1844.93,-291.051"/>
<polygon fill="#153abc" stroke="#153abc" points="1844.93,-307.813 1840.43,-317.813 1844.93,-312.813 1844.93,-317.813 1844.93,-317.813 1844.93,-317.813 1844.93,-312.813 1849.43,-317.813 1844.93,-307.813 1844.93,-307.813"/>
<polygon fill="#153abc" stroke="#153abc" points="1844.93,-291.029 1849.43,-281.029 1844.93,-286.029 1844.93,-281.029 1844.93,-281.029 1844.93,-281.029 1844.93,-286.029 1840.43,-281.029 1844.93,-291.029 1844.93,-291.029"/>
</g>
<!-- Partner -->
<g id="node21" class="node"><title>Partner</title>
<ellipse fill="none" stroke="black" cx="310.925" cy="-409" rx="35.7887" ry="18"/>
<text text-anchor="middle" x="310.925" y="-404.8" font-family="Times,serif" font-size="14.00">Partner</text>
</g>
<!-- Partner&#45;&gt;Dataset -->
<g id="edge64" class="edge"><title>Partner&#45;&gt;Dataset</title>
<path fill="none" stroke="#4ad331" d="M348.916,-396.9C393.631,-383.835 467.58,-362.229 513.376,-348.848"/>
<ellipse fill="none" stroke="#4ad331" cx="345.05" cy="-398.03" rx="4.00001" ry="4.00001"/>
<polygon fill="#4ad331" stroke="#4ad331" points="513.66,-348.765 524.521,-350.28 518.459,-347.362 523.259,-345.96 523.259,-345.96 523.259,-345.96 518.459,-347.362 521.997,-341.641 513.66,-348.765 513.66,-348.765"/>
</g>
<!-- Publication -->
<g id="node22" class="node"><title>Publication</title>
<ellipse fill="none" stroke="black" cx="546.925" cy="-517" rx="50.281" ry="18"/>
<text text-anchor="middle" x="546.925" y="-512.8" font-family="Times,serif" font-size="14.00">Publication</text>
</g>
<!-- Publication&#45;&gt;Appearance -->
<g id="edge66" class="edge"><title>Publication&#45;&gt;Appearance</title>
<path fill="none" stroke="#c6417b" d="M534.595,-491.796C526.166,-475.25 514.997,-453.325 506.344,-436.34"/>
<ellipse fill="none" stroke="#c6417b" cx="536.433" cy="-495.405" rx="4.00002" ry="4.00002"/>
<polygon fill="#c6417b" stroke="#c6417b" points="506.119,-435.899 505.589,-424.946 503.849,-431.444 501.58,-426.988 501.58,-426.988 501.58,-426.988 503.849,-431.444 497.57,-429.031 506.119,-435.899 506.119,-435.899"/>
</g>
<!-- Role -->
<g id="node23" class="node"><title>Role</title>
<ellipse fill="none" stroke="black" cx="915.925" cy="-463" rx="27" ry="18"/>
<text text-anchor="middle" x="915.925" y="-458.8" font-family="Times,serif" font-size="14.00">Role</text>
</g>
<!-- Role&#45;&gt;Attribution -->
<g id="edge68" class="edge"><title>Role&#45;&gt;Attribution</title>
<path fill="none" stroke="#f8fc53" d="M923.826,-437.31C930.631,-416.045 940.43,-385.423 947.408,-363.616"/>
<ellipse fill="none" stroke="#f8fc53" cx="922.539" cy="-441.332" rx="4.00001" ry="4.00001"/>
<polygon fill="#f8fc53" stroke="#f8fc53" points="947.441,-363.514 954.774,-355.362 948.964,-358.752 950.488,-353.99 950.488,-353.99 950.488,-353.99 948.964,-358.752 946.202,-352.619 947.441,-363.514 947.441,-363.514"/>
</g>
<!-- Section&#45;&gt;ArticleSection -->
<g id="edge75" class="edge"><title>Section&#45;&gt;ArticleSection</title>
<path fill="none" stroke="#79a786" d="M1818.3,-243.069C1803.63,-233.21 1784.81,-221.479 1766.93,-213 1750.67,-205.29 1732.24,-198.505 1715.47,-193.011"/>
<ellipse fill="none" stroke="#79a786" cx="1821.84" cy="-245.483" rx="4.00002" ry="4.00002"/>
<polygon fill="#79a786" stroke="#79a786" points="1715.34,-192.97 1707.18,-185.642 1710.58,-191.449 1705.82,-189.928 1705.82,-189.928 1705.82,-189.928 1710.58,-191.449 1704.45,-194.215 1715.34,-192.97 1715.34,-192.97"/>
</g>
<!-- Section&#45;&gt;OldArticleSection -->
<g id="edge76" class="edge"><title>Section&#45;&gt;OldArticleSection</title>
<path fill="none" stroke="#a30c8d" d="M1889.86,-262.841C1958.97,-262.983 2094.89,-258.673 2204.93,-227 2218.3,-223.151 2220.31,-218.873 2232.93,-213 2244.54,-207.592 2257.21,-201.981 2269.01,-196.878"/>
<ellipse fill="none" stroke="#a30c8d" cx="1885.77" cy="-262.822" rx="4" ry="4"/>
<polygon fill="#a30c8d" stroke="#a30c8d" points="2269.06,-196.857 2280.03,-197.042 2273.65,-194.882 2278.25,-192.908 2278.25,-192.908 2278.25,-192.908 2273.65,-194.882 2276.47,-188.773 2269.06,-196.857 2269.06,-196.857"/>
</g>
<!-- Section&#45;&gt;Section -->
<g id="edge70" class="edge"><title>Section&#45;&gt;Section</title>
<path fill="none" stroke="#c207c6" d="M1889.79,-264.98C1895.67,-264.641 1899.56,-263.981 1899.56,-263 1899.56,-262.128 1896.48,-261.51 1891.68,-261.145"/>
<ellipse fill="none" stroke="#c207c6" cx="1885.43" cy="-265.115" rx="4" ry="4"/>
<polygon fill="#c207c6" stroke="#c207c6" points="1891.43,-261.136 1881.6,-256.264 1886.43,-260.948 1881.44,-260.761 1881.44,-260.761 1881.44,-260.761 1886.43,-260.948 1881.27,-265.258 1891.43,-261.136 1891.43,-261.136"/>
<text text-anchor="middle" x="1922.49" y="-258.8" font-family="Times,serif" font-size="14.00">contentren</text>
</g>
<!-- Section&#45;&gt;Section -->
<g id="edge72" class="edge"><title>Section&#45;&gt;Section</title>
<path fill="none" stroke="#1dd908" d="M1891.1,-267.329C1918.19,-268.028 1945.43,-266.585 1945.43,-263 1945.43,-259.415 1918.19,-257.972 1891.1,-258.671"/>
<polygon fill="#1dd908" stroke="#1dd908" points="1890.78,-267.317 1880.95,-262.459 1885.78,-267.137 1880.78,-266.956 1880.78,-266.956 1880.78,-266.956 1885.78,-267.137 1880.62,-271.453 1890.78,-267.317 1890.78,-267.317"/>
<polygon fill="#1dd908" stroke="#1dd908" points="1890.78,-258.683 1880.62,-254.547 1885.78,-258.863 1880.78,-259.044 1880.78,-259.044 1880.78,-259.044 1885.78,-258.863 1880.95,-263.541 1890.78,-258.683 1890.78,-258.683"/>
<text text-anchor="middle" x="1998.69" y="-258.8" font-family="Times,serif" font-size="14.00">self_and_ancestors</text>
</g>
<!-- Section&#45;&gt;Section -->
<g id="edge74" class="edge"><title>Section&#45;&gt;Section</title>
<path fill="none" stroke="#b499f2" d="M1890.66,-268.097C1953.16,-271.426 2051.94,-269.727 2051.94,-263 2051.94,-256.273 1953.16,-254.574 1890.66,-257.903"/>
<polygon fill="#b499f2" stroke="#b499f2" points="1890.56,-268.091 1880.84,-263.002 1885.57,-267.792 1880.58,-267.494 1880.58,-267.494 1880.58,-267.494 1885.57,-267.792 1880.31,-271.986 1890.56,-268.091 1890.56,-268.091"/>
<polygon fill="#b499f2" stroke="#b499f2" points="1890.56,-257.909 1880.31,-254.014 1885.57,-258.208 1880.58,-258.506 1880.58,-258.506 1880.58,-258.506 1885.57,-258.208 1880.84,-262.998 1890.56,-257.909 1890.56,-257.909"/>
<text text-anchor="middle" x="2112.98" y="-258.8" font-family="Times,serif" font-size="14.00">self_and_descendants</text>
</g>
<!-- Uri -->
<g id="node30" class="node"><title>Uri</title>
<ellipse fill="none" stroke="black" cx="1930.93" cy="-177" rx="27" ry="18"/>
<text text-anchor="middle" x="1930.93" y="-172.8" font-family="Times,serif" font-size="14.00">Uri</text>
</g>
<!-- Section&#45;&gt;Uri -->
<g id="edge78" class="edge"><title>Section&#45;&gt;Uri</title>
<path fill="none" stroke="#575bab" d="M1892.04,-261.504C1950.65,-259.772 2045.76,-252.918 2067.93,-227 2097.43,-192.501 2017.99,-182.291 1968.03,-179.27"/>
<polygon fill="#575bab" stroke="#575bab" points="1891.89,-261.508 1881.78,-257.265 1886.89,-261.636 1881.9,-261.764 1881.9,-261.764 1881.9,-261.764 1886.89,-261.636 1882.01,-266.262 1891.89,-261.508 1891.89,-261.508"/>
<polygon fill="#575bab" stroke="#575bab" points="1967.85,-179.26 1958.1,-174.234 1962.86,-178.994 1957.87,-178.728 1957.87,-178.728 1957.87,-178.728 1962.86,-178.994 1957.63,-183.222 1967.85,-179.26 1967.85,-179.26"/>
</g>
<!-- UriSection -->
<g id="node31" class="node"><title>UriSection</title>
<ellipse fill="none" stroke="black" cx="2211.93" cy="-91" rx="48.3427" ry="18"/>
<text text-anchor="middle" x="2211.93" y="-86.8" font-family="Times,serif" font-size="14.00">UriSection</text>
</g>
<!-- Section&#45;&gt;UriSection -->
<g id="edge77" class="edge"><title>Section&#45;&gt;UriSection</title>
<path fill="none" stroke="#8b2df2" d="M1889.52,-259.906C1974.12,-254.936 2153.05,-239.323 2192.93,-195 2211.3,-174.577 2214.6,-142.388 2214.23,-119.432"/>
<ellipse fill="none" stroke="#8b2df2" cx="1885.38" cy="-260.141" rx="4" ry="4"/>
<polygon fill="#8b2df2" stroke="#8b2df2" points="2214.22,-119.296 2218.31,-109.122 2214.02,-114.3 2213.81,-109.304 2213.81,-109.304 2213.81,-109.304 2214.02,-114.3 2209.32,-109.487 2214.22,-119.296 2214.22,-119.296"/>
</g>
<!-- SectionHierarchy -->
<g id="node35" class="node"><title>SectionHierarchy</title>
<ellipse fill="none" stroke="black" cx="1813.93" cy="-177" rx="71.9704" ry="18"/>
<text text-anchor="middle" x="1813.93" y="-172.8" font-family="Times,serif" font-size="14.00">SectionHierarchy</text>
</g>
<!-- Section&#45;&gt;SectionHierarchy -->
<g id="edge71" class="edge"><title>Section&#45;&gt;SectionHierarchy</title>
<path fill="none" stroke="#404788" d="M1822.7,-240.611C1819.52,-236.416 1816.71,-231.812 1814.88,-227 1812.31,-220.27 1811.34,-212.633 1811.18,-205.424"/>
<ellipse fill="none" stroke="#404788" cx="1825.35" cy="-243.772" rx="4.00002" ry="4.00002"/>
<polygon fill="#404788" stroke="#404788" points="1811.19,-205.321 1815.95,-195.447 1811.32,-200.323 1811.46,-195.325 1811.46,-195.325 1811.46,-195.325 1811.32,-200.323 1806.96,-195.203 1811.19,-205.321 1811.19,-205.321"/>
<text text-anchor="middle" x="1871.45" y="-215.8" font-family="Times,serif" font-size="14.00">ancestor_hierarchies</text>
</g>
<!-- Section&#45;&gt;SectionHierarchy -->
<g id="edge73" class="edge"><title>Section&#45;&gt;SectionHierarchy</title>
<path fill="none" stroke="#8f2857" d="M1886.59,-253.731C1914.92,-246.139 1944.78,-232.998 1929.93,-213 1923.29,-204.064 1902.31,-196.534 1879.99,-190.776"/>
<ellipse fill="none" stroke="#8f2857" cx="1882.55" cy="-254.748" rx="4.00001" ry="4.00001"/>
<polygon fill="#8f2857" stroke="#8f2857" points="1879.74,-190.716 1871.1,-183.966 1874.89,-189.526 1870.03,-188.337 1870.03,-188.337 1870.03,-188.337 1874.89,-189.526 1868.96,-192.707 1879.74,-190.716 1879.74,-190.716"/>
<text text-anchor="middle" x="1998.23" y="-215.8" font-family="Times,serif" font-size="14.00">descendant_hierarchies</text>
</g>
<!-- Sound&#45;&gt;OnPage -->
<g id="edge80" class="edge"><title>Sound&#45;&gt;OnPage</title>
<path fill="none" stroke="#d014fa" d="M1063.17,-406.604C1018.36,-403.121 946.318,-391.56 897.925,-354 849.336,-316.287 826.019,-244.29 816.488,-205.081"/>
<ellipse fill="none" stroke="#d014fa" cx="1067.22" cy="-406.886" rx="4" ry="4"/>
<polygon fill="#d014fa" stroke="#d014fa" points="816.451,-204.92 818.591,-194.165 815.329,-200.048 814.206,-195.176 814.206,-195.176 814.206,-195.176 815.329,-200.048 809.821,-196.186 816.451,-204.92 816.451,-204.92"/>
</g>
<!-- Sound&#45;&gt;Attribution -->
<g id="edge83" class="edge"><title>Sound&#45;&gt;Attribution</title>
<path fill="none" stroke="#cb3ea8" d="M1070.04,-395.207C1054.29,-388.967 1035.43,-381.074 1018.93,-373 1008.98,-368.135 998.433,-362.366 988.875,-356.888"/>
<ellipse fill="none" stroke="#cb3ea8" cx="1073.78" cy="-396.671" rx="4.00001" ry="4.00001"/>
<polygon fill="#cb3ea8" stroke="#cb3ea8" points="988.709,-356.791 982.327,-347.874 984.386,-354.277 980.064,-351.764 980.064,-351.764 980.064,-351.764 984.386,-354.277 977.802,-355.653 988.709,-356.791 988.709,-356.791"/>
</g>
<!-- Sound&#45;&gt;LiteratureReference -->
<g id="edge82" class="edge"><title>Sound&#45;&gt;LiteratureReference</title>
<path fill="none" stroke="#800d4f" d="M1078.42,-388.951C1068.13,-379.679 1057.41,-367.595 1051.93,-354 1045.94,-339.161 1044.86,-332.356 1051.93,-318 1083.13,-254.591 1177.93,-291.672 1177.93,-221 1177.93,-221 1177.93,-221 1177.93,-90 1177.93,-68.2893 1194.63,-51.531 1212.68,-39.7619"/>
<ellipse fill="none" stroke="#800d4f" cx="1081.68" cy="-391.747" rx="4.00002" ry="4.00002"/>
<polygon fill="#800d4f" stroke="#800d4f" points="1213.02,-39.5558 1223.91,-38.2371 1217.3,-36.9706 1221.58,-34.3853 1221.58,-34.3853 1221.58,-34.3853 1217.3,-36.9706 1219.26,-30.5335 1213.02,-39.5558 1213.02,-39.5558"/>
</g>
<!-- Sound&#45;&gt;OldSound -->
<g id="edge62" class="edge"><title>Sound&#45;&gt;OldSound</title>
<path fill="none" stroke="black" d="M1122.33,-393.973C1142.26,-381.283 1173.91,-362.73 1196.9,-350.278"/>
</g>
<!-- Sound&#45;&gt;OldSound -->
<g id="edge84" class="edge"><title>Sound&#45;&gt;OldSound</title>
<path fill="none" stroke="#0cb853" d="M1135.3,-392.9C1154.01,-382.658 1177.5,-368.989 1195.8,-357.73"/>
<ellipse fill="none" stroke="#0cb853" cx="1131.7" cy="-394.846" rx="4.00002" ry="4.00002"/>
<polygon fill="#0cb853" stroke="#0cb853" points="1195.83,-357.709 1206.7,-356.243 1200.08,-355.066 1204.32,-352.423 1204.32,-352.423 1204.32,-352.423 1200.08,-355.066 1201.94,-348.603 1195.83,-357.709 1195.83,-357.709"/>
</g>
<!-- Sound&#45;&gt;Translation -->
<g id="edge81" class="edge"><title>Sound&#45;&gt;Translation</title>
<path fill="none" stroke="#f3eb3c" d="M1106.41,-382.791C1107,-376.832 1107.63,-370.45 1108.22,-364.399"/>
<ellipse fill="none" stroke="#f3eb3c" cx="1106.01" cy="-386.832" rx="4" ry="4"/>
<polygon fill="#f3eb3c" stroke="#f3eb3c" points="1108.27,-363.981 1113.72,-354.47 1108.76,-359.005 1109.25,-354.029 1109.25,-354.029 1109.25,-354.029 1108.76,-359.005 1104.77,-353.587 1108.27,-363.981 1108.27,-363.981"/>
</g>
<!-- Stylesheet -->
<g id="node26" class="node"><title>Stylesheet</title>
<ellipse fill="none" stroke="black" cx="1543.93" cy="-517" rx="46.4132" ry="18"/>
<text text-anchor="middle" x="1543.93" y="-512.8" font-family="Times,serif" font-size="14.00">Stylesheet</text>
</g>
<!-- Stylesheet&#45;&gt;Article -->
<g id="edge86" class="edge"><title>Stylesheet&#45;&gt;Article</title>
<path fill="none" stroke="#4ea224" d="M1592.88,-506.463C1611.41,-501.154 1631.88,-493.087 1647.93,-481 1663.68,-469.133 1676.19,-450.691 1684.62,-435.576"/>
<ellipse fill="none" stroke="#4ea224" cx="1588.94" cy="-507.529" rx="4.00001" ry="4.00001"/>
<polygon fill="#4ea224" stroke="#4ea224" points="1684.66,-435.517 1693.32,-428.793 1687,-431.1 1689.34,-426.684 1689.34,-426.684 1689.34,-426.684 1687,-431.1 1685.37,-424.574 1684.66,-435.517 1684.66,-435.517"/>
</g>
<!-- Stylesheet&#45;&gt;Map -->
<g id="edge87" class="edge"><title>Stylesheet&#45;&gt;Map</title>
<path fill="none" stroke="#211847" d="M1503.36,-501.474C1444.13,-480.263 1335.12,-441.224 1280.67,-421.726"/>
<ellipse fill="none" stroke="#211847" cx="1507.35" cy="-502.903" rx="4.00001" ry="4.00001"/>
<polygon fill="#211847" stroke="#211847" points="1280.58,-421.693 1272.68,-414.085 1275.87,-420.007 1271.16,-418.321 1271.16,-418.321 1271.16,-418.321 1275.87,-420.007 1269.64,-422.558 1280.58,-421.693 1280.58,-421.693"/>
</g>
<!-- Stylesheet&#45;&gt;OldArticle -->
<g id="edge90" class="edge"><title>Stylesheet&#45;&gt;OldArticle</title>
<path fill="none" stroke="#41d8cf" d="M1595.05,-508.952C1650.42,-499.04 1738.75,-476.335 1797.93,-427 1820.27,-408.371 1822.64,-399.374 1834.93,-373 1836.25,-370.152 1837.43,-367.093 1838.48,-364.004"/>
<ellipse fill="none" stroke="#41d8cf" cx="1591.07" cy="-509.641" rx="4.00001" ry="4.00001"/>
<polygon fill="#41d8cf" stroke="#41d8cf" points="1838.53,-363.851 1845.68,-355.538 1839.94,-359.056 1841.36,-354.261 1841.36,-354.261 1841.36,-354.261 1839.94,-359.056 1837.05,-352.985 1838.53,-363.851 1838.53,-363.851"/>
</g>
<!-- Stylesheet&#45;&gt;OldMap -->
<g id="edge91" class="edge"><title>Stylesheet&#45;&gt;OldMap</title>
<path fill="none" stroke="#3ff2c4" d="M1549.58,-490.848C1551.64,-477.028 1552.49,-459.747 1547.93,-445 1539.32,-417.209 1532.79,-410.197 1510.93,-391 1491.55,-373.982 1465.85,-360.718 1444.61,-351.594"/>
<ellipse fill="none" stroke="#3ff2c4" cx="1548.86" cy="-495.011" rx="4.00001" ry="4.00001"/>
<polygon fill="#3ff2c4" stroke="#3ff2c4" points="1444.45,-351.525 1436.93,-343.538 1439.83,-349.61 1435.21,-347.695 1435.21,-347.695 1435.21,-347.695 1439.83,-349.61 1433.48,-351.852 1444.45,-351.525 1444.45,-351.525"/>
</g>
<!-- Stylesheet&#45;&gt;OldSound -->
<g id="edge92" class="edge"><title>Stylesheet&#45;&gt;OldSound</title>
<path fill="none" stroke="#1f358d" d="M1537.19,-490.85C1528.14,-462.132 1509.23,-415.917 1475.93,-391 1445.22,-368.033 1342.42,-351.546 1278.3,-343.203"/>
<ellipse fill="none" stroke="#1f358d" cx="1538.43" cy="-494.975" rx="4.00001" ry="4.00001"/>
<polygon fill="#1f358d" stroke="#1f358d" points="1278.27,-343.201 1268.92,-337.471 1273.31,-342.568 1268.35,-341.935 1268.35,-341.935 1268.35,-341.935 1273.31,-342.568 1267.79,-346.398 1278.27,-343.201 1278.27,-343.201"/>
</g>
<!-- Stylesheet&#45;&gt;OldVideo -->
<g id="edge93" class="edge"><title>Stylesheet&#45;&gt;OldVideo</title>
<path fill="none" stroke="#619d2a" d="M1590.67,-503.928C1602.05,-498.734 1612.94,-491.378 1619.93,-481 1647.02,-440.777 1645.49,-415.917 1624.93,-372 1622.51,-366.843 1618.92,-362.18 1614.84,-358.064"/>
<ellipse fill="none" stroke="#619d2a" cx="1586.86" cy="-505.507" rx="4.00002" ry="4.00002"/>
<polygon fill="#619d2a" stroke="#619d2a" points="1614.61,-357.865 1610.08,-347.879 1610.86,-354.56 1607.11,-351.256 1607.11,-351.256 1607.11,-351.256 1610.86,-354.56 1604.13,-354.633 1614.61,-357.865 1614.61,-357.865"/>
</g>
<!-- Stylesheet&#45;&gt;Sound -->
<g id="edge88" class="edge"><title>Stylesheet&#45;&gt;Sound</title>
<path fill="none" stroke="#805b5d" d="M1501.96,-502.439C1497.26,-501.163 1492.51,-499.983 1487.93,-499 1426.59,-485.843 1409.34,-493.802 1347.93,-481 1273.13,-465.408 1187.87,-438.419 1140.53,-422.589"/>
<ellipse fill="none" stroke="#805b5d" cx="1505.96" cy="-503.568" rx="4.00001" ry="4.00001"/>
<polygon fill="#805b5d" stroke="#805b5d" points="1140.5,-422.579 1132.46,-415.123 1135.76,-420.983 1131.02,-419.388 1131.02,-419.388 1131.02,-419.388 1135.76,-420.983 1129.58,-423.653 1140.5,-422.579 1140.5,-422.579"/>
</g>
<!-- Stylesheet&#45;&gt;Video -->
<g id="edge89" class="edge"><title>Stylesheet&#45;&gt;Video</title>
<path fill="none" stroke="#cb23dd" d="M1521.59,-494.077C1503.13,-475.962 1477.04,-450.358 1458.52,-432.174"/>
<ellipse fill="none" stroke="#cb23dd" cx="1524.67" cy="-497.099" rx="4.00002" ry="4.00002"/>
<polygon fill="#cb23dd" stroke="#cb23dd" points="1458.22,-431.883 1454.24,-421.667 1454.65,-428.381 1451.08,-424.878 1451.08,-424.878 1451.08,-424.878 1454.65,-428.381 1447.93,-428.09 1458.22,-431.883 1458.22,-431.883"/>
</g>
<!-- Page -->
<g id="node27" class="node"><title>Page</title>
<ellipse fill="none" stroke="black" cx="324.925" cy="-517" rx="30.9967" ry="18"/>
<text text-anchor="middle" x="324.925" y="-512.8" font-family="Times,serif" font-size="14.00">Page</text>
</g>
<!-- Page&#45;&gt;OnPage -->
<g id="edge95" class="edge"><title>Page&#45;&gt;OnPage</title>
<path fill="none" stroke="#e7d9d7" d="M337.538,-492.288C365.327,-441.752 436.224,-321.801 521.925,-245 543.273,-225.869 550.845,-222.401 577.925,-213 634.088,-193.504 701.578,-184.864 749.433,-181.037"/>
<ellipse fill="none" stroke="#e7d9d7" cx="335.517" cy="-495.995" rx="4.00002" ry="4.00002"/>
<polygon fill="#e7d9d7" stroke="#e7d9d7" points="749.666,-181.02 759.975,-184.757 754.652,-180.645 759.638,-180.27 759.638,-180.27 759.638,-180.27 754.652,-180.645 759.3,-175.783 749.666,-181.02 749.666,-181.02"/>
</g>
<!-- Page&#45;&gt;Node -->
<g id="edge96" class="edge"><title>Page&#45;&gt;Node</title>
<path fill="none" stroke="#7be4fc" d="M308.797,-493.717C272.881,-444.533 186.45,-328.69 147.925,-299 135.477,-289.407 119.98,-281.718 106.158,-276.017"/>
<ellipse fill="none" stroke="#7be4fc" cx="311.164" cy="-496.966" rx="4.00002" ry="4.00002"/>
<polygon fill="#7be4fc" stroke="#7be4fc" points="105.769,-275.865 98.098,-268.028 101.113,-274.042 96.4573,-272.219 96.4573,-272.219 96.4573,-272.219 101.113,-274.042 94.8166,-276.409 105.769,-275.865 105.769,-275.865"/>
</g>
<!-- Page&#45;&gt;Partner -->
<g id="edge97" class="edge"><title>Page&#45;&gt;Partner</title>
<path fill="none" stroke="#f4c9c7" d="M321.342,-488.867C319.248,-473.019 316.615,-453.082 314.52,-437.219"/>
<polygon fill="#f4c9c7" stroke="#f4c9c7" points="321.366,-489.055 318.215,-499.559 322.021,-494.012 322.676,-498.969 322.676,-498.969 322.676,-498.969 322.021,-494.012 327.137,-498.38 321.366,-489.055 321.366,-489.055"/>
<polygon fill="#f4c9c7" stroke="#f4c9c7" points="314.478,-436.902 317.63,-426.399 313.824,-431.945 313.169,-426.988 313.169,-426.988 313.169,-426.988 313.824,-431.945 308.708,-427.578 314.478,-436.902 314.478,-436.902"/>
</g>
<!-- Trait&#45;&gt;OnPage -->
<g id="edge100" class="edge"><title>Trait&#45;&gt;OnPage</title>
<path fill="none" stroke="#c2b7f2" d="M862.62,-115.22C854.864,-126.674 844.532,-140.475 835.067,-152.029"/>
<ellipse fill="none" stroke="#c2b7f2" cx="864.887" cy="-111.775" rx="4.00002" ry="4.00002"/>
<polygon fill="#c2b7f2" stroke="#c2b7f2" points="834.966,-152.15 825.086,-156.908 831.748,-155.977 828.53,-159.804 828.53,-159.804 828.53,-159.804 831.748,-155.977 831.975,-162.7 834.966,-152.15 834.966,-152.15"/>
</g>
<!-- Trait&#45;&gt;LiteratureReference -->
<g id="edge101" class="edge"><title>Trait&#45;&gt;LiteratureReference</title>
<path fill="none" stroke="#13634b" d="M907.52,-83.7723C969.69,-72.2473 1103.88,-47.3715 1186.68,-32.0215"/>
<ellipse fill="none" stroke="#13634b" cx="903.583" cy="-84.5021" rx="4.00001" ry="4.00001"/>
<polygon fill="#13634b" stroke="#13634b" points="1186.93,-31.975 1197.59,-34.5768 1191.85,-31.0636 1196.77,-30.1522 1196.77,-30.1522 1196.77,-30.1522 1191.85,-31.0636 1195.95,-25.7275 1186.93,-31.975 1186.93,-31.975"/>
</g>
<!-- Trait&#45;&gt;Trait -->
<g id="edge99" class="edge"><title>Trait&#45;&gt;Trait</title>
<path fill="none" stroke="#eb810e" d="M907.753,-97.4413C914.29,-96.6847 918.925,-94.5376 918.925,-91 918.925,-87.77 915.061,-85.6992 909.413,-84.7876"/>
<ellipse fill="none" stroke="#eb810e" cx="903.367" cy="-97.5717" rx="4" ry="4"/>
<polygon fill="#eb810e" stroke="#eb810e" points="909.357,-84.7851 899.583,-79.8144 904.363,-84.5472 899.369,-84.3093 899.369,-84.3093 899.369,-84.3093 904.363,-84.5472 899.155,-88.8042 909.357,-84.7851 909.357,-84.7851"/>
</g>
<!-- Uri&#45;&gt;Uri -->
<g id="edge105" class="edge"><title>Uri&#45;&gt;Uri</title>
<path fill="none" stroke="#991bb1" d="M1965.98,-179.442C1971.86,-179.102 1975.93,-178.288 1975.93,-177 1975.93,-175.855 1972.71,-175.085 1967.87,-174.689"/>
<ellipse fill="none" stroke="#991bb1" cx="1961.72" cy="-179.533" rx="4" ry="4"/>
<polygon fill="#991bb1" stroke="#991bb1" points="1967.72,-174.684 1957.86,-169.883 1962.72,-174.532 1957.72,-174.381 1957.72,-174.381 1957.72,-174.381 1962.72,-174.532 1957.58,-178.879 1967.72,-174.684 1967.72,-174.684"/>
<text text-anchor="middle" x="2004.3" y="-172.8" font-family="Times,serif" font-size="14.00">predicates</text>
</g>
<!-- Uri&#45;&gt;Uri -->
<g id="edge106" class="edge"><title>Uri&#45;&gt;Uri</title>
<path fill="none" stroke="#316761" d="M1966.01,-181.634C1996.29,-183.244 2032.67,-181.699 2032.67,-177 2032.67,-172.402 1997.83,-170.824 1967.96,-172.267"/>
<ellipse fill="none" stroke="#316761" cx="1961.66" cy="-181.354" rx="4" ry="4"/>
<polygon fill="#316761" stroke="#316761" points="1967.65,-172.286 1957.4,-168.412 1962.66,-172.595 1957.67,-172.904 1957.67,-172.904 1957.67,-172.904 1962.66,-172.595 1957.95,-177.395 1967.65,-172.286 1967.65,-172.286"/>
<text text-anchor="middle" x="2052.5" y="-172.8" font-family="Times,serif" font-size="14.00">objects</text>
</g>
<!-- Uri&#45;&gt;Uri -->
<g id="edge107" class="edge"><title>Uri&#45;&gt;Uri</title>
<path fill="none" stroke="#05e5c4" d="M1964.97,-182.956C2008.52,-186.827 2072.33,-184.841 2072.33,-177 2072.33,-169.273 2010.37,-167.232 1966.88,-170.878"/>
<ellipse fill="none" stroke="#05e5c4" cx="1960.8" cy="-182.536" rx="4" ry="4"/>
<polygon fill="#05e5c4" stroke="#05e5c4" points="1966.78,-170.889 1956.38,-167.386 1961.8,-171.377 1956.82,-171.865 1956.82,-171.865 1956.82,-171.865 1961.8,-171.377 1957.26,-176.343 1966.78,-170.889 1966.78,-170.889"/>
<text text-anchor="middle" x="2111.21" y="-172.8" font-family="Times,serif" font-size="14.00">original_units</text>
</g>
<!-- Uri&#45;&gt;UriSection -->
<g id="edge108" class="edge"><title>Uri&#45;&gt;UriSection</title>
<path fill="none" stroke="#3a6f80" d="M1963.04,-166.399C2012.61,-151.583 2107.98,-123.071 2165.2,-105.969"/>
<ellipse fill="none" stroke="#3a6f80" cx="1959.2" cy="-167.547" rx="4.00001" ry="4.00001"/>
<polygon fill="#3a6f80" stroke="#3a6f80" points="2165.49,-105.881 2176.36,-107.329 2170.28,-104.449 2175.07,-103.017 2175.07,-103.017 2175.07,-103.017 2170.28,-104.449 2173.78,-98.7058 2165.49,-105.881 2165.49,-105.881"/>
</g>
<!-- Uri::Translation -->
<g id="node36" class="node"><title>Uri::Translation</title>
<ellipse fill="none" stroke="black" cx="1930.93" cy="-91" rx="66.5558" ry="18"/>
<text text-anchor="middle" x="1930.93" y="-86.8" font-family="Times,serif" font-size="14.00">Uri::Translation</text>
</g>
<!-- Uri&#45;&gt;Uri::Translation -->
<g id="edge104" class="edge"><title>Uri&#45;&gt;Uri::Translation</title>
<path fill="none" stroke="#ae8a1f" d="M1930.93,-150.257C1930.93,-140.441 1930.93,-129.226 1930.93,-119.273"/>
<ellipse fill="none" stroke="#ae8a1f" cx="1930.93" cy="-154.595" rx="4" ry="4"/>
<polygon fill="#ae8a1f" stroke="#ae8a1f" points="1930.93,-119.095 1935.43,-109.095 1930.93,-114.095 1930.93,-109.095 1930.93,-109.095 1930.93,-109.095 1930.93,-114.095 1926.43,-109.095 1930.93,-119.095 1930.93,-119.095"/>
<text text-anchor="middle" x="1963.2" y="-129.8" font-family="Times,serif" font-size="14.00">translations</text>
</g>
<!-- Video&#45;&gt;OnPage -->
<g id="edge111" class="edge"><title>Video&#45;&gt;OnPage</title>
<path fill="none" stroke="#65a245" d="M1450.02,-384.701C1459.97,-364.915 1469.08,-336.814 1453.93,-318 1381.04,-227.537 1018.17,-192.451 872.041,-181.848"/>
<ellipse fill="none" stroke="#65a245" cx="1448.1" cy="-388.31" rx="4.00002" ry="4.00002"/>
<polygon fill="#65a245" stroke="#65a245" points="871.877,-181.837 862.221,-176.638 866.889,-181.482 861.902,-181.127 861.902,-181.127 861.902,-181.127 866.889,-181.482 861.582,-185.615 871.877,-181.837 871.877,-181.837"/>
</g>
<!-- Video&#45;&gt;Attribution -->
<g id="edge114" class="edge"><title>Video&#45;&gt;Attribution</title>
<path fill="none" stroke="#7749e6" d="M1397.47,-403.053C1328.25,-394.044 1178.11,-374.039 1051.93,-354 1037.94,-351.778 1022.83,-349.193 1008.84,-346.718"/>
<ellipse fill="none" stroke="#7749e6" cx="1401.54" cy="-403.581" rx="4.00001" ry="4.00001"/>
<polygon fill="#7749e6" stroke="#7749e6" points="1008.73,-346.698 999.67,-340.513 1003.8,-345.82 998.88,-344.943 998.88,-344.943 998.88,-344.943 1003.8,-345.82 998.091,-349.373 1008.73,-346.698 1008.73,-346.698"/>
</g>
<!-- Video&#45;&gt;LiteratureReference -->
<g id="edge113" class="edge"><title>Video&#45;&gt;LiteratureReference</title>
<path fill="none" stroke="#5f6529" d="M1460.33,-388.631C1482.22,-368.906 1510.93,-336.152 1510.93,-300 1510.93,-300 1510.93,-300 1510.93,-90 1510.93,-54.0315 1415.26,-35.47 1341.35,-26.497"/>
<ellipse fill="none" stroke="#5f6529" cx="1457.1" cy="-391.453" rx="4.00002" ry="4.00002"/>
<polygon fill="#5f6529" stroke="#5f6529" points="1341.01,-26.4572 1331.6,-20.8242 1336.04,-25.8754 1331.08,-25.2936 1331.08,-25.2936 1331.08,-25.2936 1336.04,-25.8754 1330.55,-29.7631 1341.01,-26.4572 1341.01,-26.4572"/>
</g>
<!-- Video&#45;&gt;OldVideo -->
<g id="edge63" class="edge"><title>Video&#45;&gt;OldVideo</title>
<path fill="none" stroke="black" d="M1465.77,-403.668C1489.78,-399.25 1523.16,-390.436 1547.93,-373 1555.24,-367.852 1561.26,-359.977 1566.5,-352.905"/>
</g>
<!-- Video&#45;&gt;OldVideo -->
<g id="edge115" class="edge"><title>Video&#45;&gt;OldVideo</title>
<path fill="none" stroke="#4ce3c1" d="M1474.78,-404.621C1502.53,-400.568 1539.24,-391.791 1565.93,-373 1569.93,-370.178 1573.56,-366.536 1576.6,-362.656"/>
<ellipse fill="none" stroke="#4ce3c1" cx="1470.81" cy="-405.155" rx="4.00001" ry="4.00001"/>
<polygon fill="#4ce3c1" stroke="#4ce3c1" points="1576.78,-362.377 1586.02,-356.471 1579.52,-358.192 1582.25,-354.008 1582.25,-354.008 1582.25,-354.008 1579.52,-358.192 1578.49,-351.545 1576.78,-362.377 1576.78,-362.377"/>
</g>
<!-- Video&#45;&gt;Translation -->
<g id="edge112" class="edge"><title>Video&#45;&gt;Translation</title>
<path fill="none" stroke="#9965b9" d="M1401.73,-396.286C1377.48,-388.38 1344.03,-378.28 1313.93,-372 1250.79,-358.829 1233.11,-366.968 1169.93,-354 1165.75,-353.144 1161.45,-352.141 1157.15,-351.059"/>
<ellipse fill="none" stroke="#9965b9" cx="1405.79" cy="-397.623" rx="4.00001" ry="4.00001"/>
<polygon fill="#9965b9" stroke="#9965b9" points="1156.88,-350.985 1148.37,-344.069 1152.04,-349.702 1147.21,-348.418 1147.21,-348.418 1147.21,-348.418 1152.04,-349.702 1146.06,-352.768 1156.88,-350.985 1156.88,-350.985"/>
</g>
<!-- ActiveRecord::Base -->
<g id="node33" class="node"><title>ActiveRecord::Base</title>
<ellipse fill="none" stroke="black" cx="1068.93" cy="-608.5" rx="81.1422" ry="18"/>
<text text-anchor="middle" x="1068.93" y="-604.3" font-family="Times,serif" font-size="14.00">ActiveRecord::Base</text>
</g>
<!-- ActiveRecord::Base&#45;&gt;Appearance -->
<g id="edge1" class="edge"><title>ActiveRecord::Base&#45;&gt;Appearance</title>
<path fill="none" stroke="black" d="M1036.82,-591.849C1019.99,-584.423 998.798,-576.26 978.925,-572 916.651,-558.652 449.61,-582.267 406.925,-535 374.265,-498.833 433.721,-449.66 469.213,-425.166"/>
</g>
<!-- ActiveRecord::Base&#45;&gt;Article -->
<g id="edge9" class="edge"><title>ActiveRecord::Base&#45;&gt;Article</title>
<path fill="none" stroke="black" d="M1150.4,-607.979C1257.04,-606.036 1448.09,-593.632 1598.93,-535 1638.22,-519.724 1652.43,-515.318 1676.93,-481 1688.38,-464.948 1693.29,-442.515 1695.39,-427.188"/>
</g>
<!-- ActiveRecord::Base&#45;&gt;ArticleSection -->
<g id="edge10" class="edge"><title>ActiveRecord::Base&#45;&gt;ArticleSection</title>
<path fill="none" stroke="black" d="M1150.23,-607.38C1363.19,-605.995 1920.93,-595.015 1920.93,-518 1920.93,-518 1920.93,-518 1920.93,-335 1920.93,-323.669 1911.66,-323.8 1901.93,-318 1860.14,-293.101 1841.1,-305.237 1798.93,-281 1758.17,-257.579 1755.84,-240.789 1717.93,-213 1708.61,-206.175 1697.99,-199.232 1688.58,-193.349"/>
</g>
<!-- ActiveRecord::Base&#45;&gt;OnPage -->
<g id="edge12" class="edge"><title>ActiveRecord::Base&#45;&gt;OnPage</title>
<path fill="none" stroke="black" d="M1032.37,-592.37C1016.11,-585.824 996.669,-578.248 978.925,-572 926.683,-553.604 908.749,-561.151 859.925,-535 760.603,-481.8 711.601,-475.55 664.925,-373 630.587,-297.555 734.412,-223.33 784.966,-192.681"/>
</g>
<!-- ActiveRecord::Base&#45;&gt;Attribution -->
<g id="edge13" class="edge"><title>ActiveRecord::Base&#45;&gt;Attribution</title>
<path fill="none" stroke="black" d="M1036.19,-591.769C1020.99,-582.795 1004.07,-570.103 993.925,-554 953.044,-489.121 952.89,-392.759 954.745,-354.027"/>
</g>
<!-- ActiveRecord::Base&#45;&gt;Dataset -->
<g id="edge15" class="edge"><title>ActiveRecord::Base&#45;&gt;Dataset</title>
<path fill="none" stroke="black" d="M1036.8,-591.915C1019.97,-584.506 998.781,-576.338 978.925,-572 943.05,-564.162 678.577,-575.661 648.925,-554 586.338,-508.28 621.057,-460.588 586.925,-391 580.539,-377.979 571.965,-364.029 565.157,-353.57"/>
</g>
<!-- ActiveRecord::Base&#45;&gt;Image -->
<g id="edge21" class="edge"><title>ActiveRecord::Base&#45;&gt;Image</title>
<path fill="none" stroke="black" d="M1031.31,-592.514C996.285,-578.461 948.26,-558.899 939.925,-554 875.463,-516.11 810.944,-454.055 782.713,-425.396"/>
</g>
<!-- ActiveRecord::Base&#45;&gt;Javascript -->
<g id="edge30" class="edge"><title>ActiveRecord::Base&#45;&gt;Javascript</title>
<path fill="none" stroke="black" d="M1145.2,-602.129C1208.41,-595.817 1299.73,-582.343 1374.93,-554 1388.51,-548.879 1402.44,-540.556 1413.34,-533.203"/>
</g>
<!-- ActiveRecord::Base&#45;&gt;License -->
<g id="edge37" class="edge"><title>ActiveRecord::Base&#45;&gt;License</title>
<path fill="none" stroke="black" d="M1077.22,-590.243C1084.93,-574.192 1096.34,-550.435 1103.95,-534.598"/>
</g>
<!-- ActiveRecord::Base&#45;&gt;LiteratureReference -->
<g id="edge38" class="edge"><title>ActiveRecord::Base&#45;&gt;LiteratureReference</title>
<path fill="none" stroke="black" d="M1149.88,-606.531C1446.12,-602.459 2453.93,-583.773 2453.93,-518 2453.93,-518 2453.93,-518 2453.93,-90 2453.93,-33.9546 1606.69,-21.9584 1337.79,-19.5623"/>
</g>
<!-- ActiveRecord::Base&#45;&gt;Map -->
<g id="edge44" class="edge"><title>ActiveRecord::Base&#45;&gt;Map</title>
<path fill="none" stroke="black" d="M1121.63,-594.682C1145.73,-586.504 1173.04,-573.641 1191.93,-554 1226.87,-517.646 1240.69,-457.027 1245.57,-427.388"/>
</g>
<!-- ActiveRecord::Base&#45;&gt;Name -->
<g id="edge48" class="edge"><title>ActiveRecord::Base&#45;&gt;Name</title>
<path fill="none" stroke="black" d="M1036.81,-591.863C1019.99,-584.44 998.794,-576.276 978.925,-572 816.669,-537.083 771,-571.219 605.925,-554 553.092,-548.489 539.03,-549.494 487.925,-535 482.143,-533.36 476.078,-531.141 470.439,-528.849"/>
</g>
<!-- ActiveRecord::Base&#45;&gt;Node -->
<g id="edge55" class="edge"><title>ActiveRecord::Base&#45;&gt;Node</title>
<path fill="none" stroke="black" d="M1037.27,-591.875C1020.38,-584.357 999.002,-576.103 978.925,-572 836.045,-542.803 467.911,-569.694 322.925,-554 237.912,-544.798 133.925,-603.51 133.925,-518 133.925,-518 133.925,-518 133.925,-335 133.925,-308.963 109.927,-288.02 91.5538,-275.801"/>
</g>
<!-- ActiveRecord::Base&#45;&gt;OldArticleSection -->
<g id="edge59" class="edge"><title>ActiveRecord::Base&#45;&gt;OldArticleSection</title>
<path fill="none" stroke="black" d="M1149.59,-605.93C1425.25,-600.04 2312.93,-576.531 2312.93,-518 2312.93,-518 2312.93,-518 2312.93,-262 2312.93,-238.811 2313.31,-212.023 2313.6,-195.053"/>
</g>
<!-- ActiveRecord::Base&#45;&gt;Partner -->
<g id="edge65" class="edge"><title>ActiveRecord::Base&#45;&gt;Partner</title>
<path fill="none" stroke="black" d="M1037.26,-591.892C1020.38,-584.379 998.998,-576.123 978.925,-572 903.284,-556.462 333.13,-595.326 284.925,-535 259.465,-503.138 284.035,-452.502 299.87,-426.54"/>
</g>
<!-- ActiveRecord::Base&#45;&gt;Publication -->
<g id="edge67" class="edge"><title>ActiveRecord::Base&#45;&gt;Publication</title>
<path fill="none" stroke="black" d="M1036.81,-591.868C1019.99,-584.447 998.793,-576.282 978.925,-572 818.85,-537.498 768.271,-599.353 610.925,-554 595.736,-549.622 580.245,-541.039 568.31,-533.351"/>
</g>
<!-- ActiveRecord::Base&#45;&gt;Role -->
<g id="edge69" class="edge"><title>ActiveRecord::Base&#45;&gt;Role</title>
<path fill="none" stroke="black" d="M1031.71,-592.458C996.03,-577.904 947.117,-557.538 943.925,-554 925.401,-533.466 919.132,-500.821 917.01,-481.004"/>
</g>
<!-- ActiveRecord::Base&#45;&gt;Section -->
<g id="edge79" class="edge"><title>ActiveRecord::Base&#45;&gt;Section</title>
<path fill="none" stroke="black" d="M1150,-606.566C1352.31,-603.664 1867.98,-592.533 1934.93,-554 1951.59,-544.408 1958.93,-537.23 1958.93,-518 1958.93,-518 1958.93,-518 1958.93,-335 1958.93,-296.878 1912.42,-278.49 1878.82,-270.179"/>
</g>
<!-- ActiveRecord::Base&#45;&gt;Sound -->
<g id="edge85" class="edge"><title>ActiveRecord::Base&#45;&gt;Sound</title>
<path fill="none" stroke="black" d="M1065.77,-590.37C1062.37,-568.803 1058.28,-530.733 1064.93,-499 1070.53,-472.252 1084.66,-443.716 1094.28,-426.367"/>
</g>
<!-- ActiveRecord::Base&#45;&gt;Stylesheet -->
<g id="edge94" class="edge"><title>ActiveRecord::Base&#45;&gt;Stylesheet</title>
<path fill="none" stroke="black" d="M1137.39,-598.691C1220.87,-587.257 1365.91,-565.141 1487.93,-535 1494.93,-533.27 1502.35,-531.192 1509.43,-529.092"/>
</g>
<!-- ActiveRecord::Base&#45;&gt;Page -->
<g id="edge98" class="edge"><title>ActiveRecord::Base&#45;&gt;Page</title>
<path fill="none" stroke="black" d="M1037.26,-591.894C1020.38,-584.382 998.997,-576.126 978.925,-572 913.051,-558.459 437.512,-575.9 373.925,-554 361.35,-549.669 349.283,-540.88 340.271,-533.071"/>
</g>
<!-- ActiveRecord::Base&#45;&gt;Trait -->
<g id="edge102" class="edge"><title>ActiveRecord::Base&#45;&gt;Trait</title>
<path fill="none" stroke="black" d="M1056.61,-590.33C1018.97,-537.697 907.394,-380.566 897.925,-354 881.746,-308.608 875.933,-160.056 874.39,-109.233"/>
</g>
<!-- ActiveRecord::Base&#45;&gt;Translation -->
<g id="edge103" class="edge"><title>ActiveRecord::Base&#45;&gt;Translation</title>
<path fill="none" stroke="black" d="M1100.59,-591.675C1121.39,-579.369 1146.89,-560.157 1158.93,-535 1171.5,-508.715 1164.69,-442.815 1145.93,-391 1140.98,-377.344 1132.03,-363.632 1124.42,-353.443"/>
</g>
<!-- ActiveRecord::Base&#45;&gt;Uri -->
<g id="edge109" class="edge"><title>ActiveRecord::Base&#45;&gt;Uri</title>
<path fill="none" stroke="black" d="M1149.46,-605.746C1419.34,-599.345 2274.93,-574.588 2274.93,-518 2274.93,-518 2274.93,-518 2274.93,-262 2274.93,-196.834 2039.01,-181.993 1957.92,-178.816"/>
</g>
<!-- ActiveRecord::Base&#45;&gt;UriSection -->
<g id="edge110" class="edge"><title>ActiveRecord::Base&#45;&gt;UriSection</title>
<path fill="none" stroke="black" d="M1149.9,-606.379C1440.82,-601.827 2415.93,-581.811 2415.93,-518 2415.93,-518 2415.93,-518 2415.93,-176 2415.93,-109.068 2320.87,-94.3727 2260.53,-91.7868"/>
</g>
<!-- ActiveRecord::Base&#45;&gt;Video -->
<g id="edge116" class="edge"><title>ActiveRecord::Base&#45;&gt;Video</title>
<path fill="none" stroke="black" d="M1111.78,-593.101C1139.25,-583.307 1175.36,-569.369 1205.93,-554 1288,-512.736 1378.49,-450.784 1416.95,-423.603"/>
</g>
</g>
</svg>
