<?xml version="1.0" encoding="UTF-8" standalone="no"?>
<!DOCTYPE svg PUBLIC "-//W3C//DTD SVG 1.1//EN"
 "http://www.w3.org/Graphics/SVG/1.1/DTD/svg11.dtd">
<!-- Generated by graphviz version 2.38.0 (20140413.2041)
 -->
<!-- Title: models_diagram Pages: 1 -->
<svg width="2704pt" height="653pt"
 viewBox="0.00 0.00 2703.99 653.00" xmlns="http://www.w3.org/2000/svg" xmlns:xlink="http://www.w3.org/1999/xlink">
<g id="graph0" class="graph" transform="scale(1 1) rotate(0) translate(4 649)">
<title>models_diagram</title>
<polygon fill="white" stroke="none" points="-4,4 -4,-649 2699.99,-649 2699.99,4 -4,4"/>
<!-- _diagram_info -->
<g id="node1" class="node"><title>_diagram_info</title>
<text text-anchor="start" x="924.307" y="-630.6" font-family="Times,serif" font-size="13.00">Models diagram</text>
<text text-anchor="start" x="924.307" y="-617.6" font-family="Times,serif" font-size="13.00">Date: Oct 21 2014 &#45; 15:19</text>
<text text-anchor="start" x="924.307" y="-604.6" font-family="Times,serif" font-size="13.00">Migration version: 20141013190813</text>
<text text-anchor="start" x="924.307" y="-591.6" font-family="Times,serif" font-size="13.00">Generated by RailRoady 1.1.2</text>
<text text-anchor="start" x="924.307" y="-578.6" font-family="Times,serif" font-size="13.00">http://railroady.prestonlee.com</text>
</g>
<!-- Appearance -->
<g id="node2" class="node"><title>Appearance</title>
<ellipse fill="none" stroke="black" cx="81.9948" cy="-409" rx="52.1589" ry="18"/>
<text text-anchor="middle" x="81.9948" y="-404.8" font-family="Times,serif" font-size="14.00">Appearance</text>
</g>
<!-- Article -->
<g id="node3" class="node"><title>Article</title>
<ellipse fill="none" stroke="black" cx="1139.99" cy="-336" rx="34.8198" ry="18"/>
<text text-anchor="middle" x="1139.99" y="-331.8" font-family="Times,serif" font-size="14.00">Article</text>
</g>
<!-- ArticleSection -->
<g id="node4" class="node"><title>ArticleSection</title>
<ellipse fill="none" stroke="black" cx="1708.99" cy="-177" rx="61.3718" ry="18"/>
<text text-anchor="middle" x="1708.99" y="-172.8" font-family="Times,serif" font-size="14.00">ArticleSection</text>
</g>
<!-- Article&#45;&gt;ArticleSection -->
<g id="edge6" class="edge"><title>Article&#45;&gt;ArticleSection</title>
<path fill="none" stroke="#60e6c2" d="M1176.73,-323.898C1184.68,-321.738 1193.08,-319.639 1200.99,-318 1319.17,-293.523 1353.74,-313.399 1469.99,-281 1544.31,-260.29 1625.8,-221.389 1671.85,-197.774"/>
<ellipse fill="none" stroke="#60e6c2" cx="1172.82" cy="-324.989" rx="4.00001" ry="4.00001"/>
<polygon fill="#60e6c2" stroke="#60e6c2" points="1671.96,-197.715 1682.91,-197.119 1676.41,-195.418 1680.85,-193.122 1680.85,-193.122 1680.85,-193.122 1676.41,-195.418 1678.78,-189.124 1671.96,-197.715 1671.96,-197.715"/>
</g>
<!-- Association -->
<g id="node5" class="node"><title>Association</title>
<ellipse fill="none" stroke="black" cx="1206.99" cy="-177" rx="51.726" ry="18"/>
<text text-anchor="middle" x="1206.99" y="-172.8" font-family="Times,serif" font-size="14.00">Association</text>
</g>
<!-- Article&#45;&gt;Association -->
<g id="edge2" class="edge"><title>Article&#45;&gt;Association</title>
<path fill="none" stroke="#76f58a" d="M1175.81,-322.009C1194.81,-313.289 1216.88,-299.898 1229.99,-281 1247.41,-255.905 1251.27,-241.391 1239.99,-213 1238.4,-208.983 1236.1,-205.16 1233.45,-201.617"/>
<ellipse fill="none" stroke="#76f58a" cx="1172.1" cy="-323.633" rx="4.00002" ry="4.00002"/>
<polygon fill="#76f58a" stroke="#76f58a" points="1233.32,-201.465 1230.19,-190.955 1230.05,-197.68 1226.78,-193.896 1226.78,-193.896 1226.78,-193.896 1230.05,-197.68 1223.38,-196.838 1233.32,-201.465 1233.32,-201.465"/>
</g>
<!-- Attribution -->
<g id="node6" class="node"><title>Attribution</title>
<ellipse fill="none" stroke="black" cx="980.995" cy="-177" rx="49.3205" ry="18"/>
<text text-anchor="middle" x="980.995" y="-172.8" font-family="Times,serif" font-size="14.00">Attribution</text>
</g>
<!-- Article&#45;&gt;Attribution -->
<g id="edge5" class="edge"><title>Article&#45;&gt;Attribution</title>
<path fill="none" stroke="#6dcaa0" d="M1118.4,-313.676C1088.68,-284.327 1035.36,-231.677 1004.61,-201.315"/>
<ellipse fill="none" stroke="#6dcaa0" cx="1121.61" cy="-316.85" rx="4.00002" ry="4.00002"/>
<polygon fill="#6dcaa0" stroke="#6dcaa0" points="1004.42,-201.13 1000.47,-190.902 1000.86,-197.617 997.304,-194.104 997.304,-194.104 997.304,-194.104 1000.86,-197.617 994.142,-197.306 1004.42,-201.13 1004.42,-201.13"/>
</g>
<!-- LiteratureReference -->
<g id="node11" class="node"><title>LiteratureReference</title>
<ellipse fill="none" stroke="black" cx="903.995" cy="-18" rx="80.6059" ry="18"/>
<text text-anchor="middle" x="903.995" y="-13.8" font-family="Times,serif" font-size="14.00">LiteratureReference</text>
</g>
<!-- Article&#45;&gt;LiteratureReference -->
<g id="edge3" class="edge"><title>Article&#45;&gt;LiteratureReference</title>
<path fill="none" stroke="#d8b57b" d="M1177.49,-323.811C1185.22,-321.713 1193.34,-319.661 1200.99,-318 1213.96,-315.186 1428.37,-291.085 1436.99,-281 1447.4,-268.842 1442.46,-260.038 1436.99,-245 1402.95,-151.295 1376.21,-127.916 1292.99,-73 1245.13,-41.4111 1092.2,-28.0201 992.951,-22.5508"/>
<ellipse fill="none" stroke="#d8b57b" cx="1173.15" cy="-325.018" rx="4.00001" ry="4.00001"/>
<polygon fill="#d8b57b" stroke="#d8b57b" points="992.908,-22.5486 983.162,-17.5213 987.915,-22.2817 982.922,-22.0149 982.922,-22.0149 982.922,-22.0149 987.915,-22.2817 982.682,-26.5085 992.908,-22.5486 992.908,-22.5486"/>
</g>
<!-- OldArticle -->
<g id="node15" class="node"><title>OldArticle</title>
<ellipse fill="none" stroke="black" cx="449.995" cy="-263" rx="47.8496" ry="18"/>
<text text-anchor="middle" x="449.995" y="-258.8" font-family="Times,serif" font-size="14.00">OldArticle</text>
</g>
<!-- Article&#45;&gt;OldArticle -->
<g id="edge8" class="edge"><title>Article&#45;&gt;OldArticle</title>
<path fill="none" stroke="#72fd88" d="M1099.27,-328.754C1076.07,-325.315 1046.44,-321.125 1019.99,-318 832.461,-295.845 609.362,-276.834 506.759,-268.502"/>
<ellipse fill="none" stroke="#72fd88" cx="1103.24" cy="-329.346" rx="4.00001" ry="4.00001"/>
<polygon fill="#72fd88" stroke="#72fd88" points="506.588,-268.488 496.983,-263.196 501.604,-268.085 496.62,-267.682 496.62,-267.682 496.62,-267.682 501.604,-268.085 496.257,-272.167 506.588,-268.488 506.588,-268.488"/>
</g>
<!-- Section -->
<g id="node23" class="node"><title>Section</title>
<ellipse fill="none" stroke="black" cx="1786.99" cy="-263" rx="36.7663" ry="18"/>
<text text-anchor="middle" x="1786.99" y="-258.8" font-family="Times,serif" font-size="14.00">Section</text>
</g>
<!-- Article&#45;&gt;Section -->
<g id="edge7" class="edge"><title>Article&#45;&gt;Section</title>
<path fill="none" stroke="#49d925" d="M1178.68,-323.094C1186.03,-321.151 1193.71,-319.34 1200.99,-318 1214.28,-315.558 1605.56,-280.296 1741.22,-268.108"/>
<polygon fill="#49d925" stroke="#49d925" points="1178.55,-323.13 1167.71,-321.456 1173.73,-324.461 1168.91,-325.793 1168.91,-325.793 1168.91,-325.793 1173.73,-324.461 1170.11,-330.13 1178.55,-323.13 1178.55,-323.13"/>
<polygon fill="#49d925" stroke="#49d925" points="1741.33,-268.098 1751.69,-271.685 1746.31,-267.651 1751.29,-267.203 1751.29,-267.203 1751.29,-267.203 1746.31,-267.651 1750.88,-262.722 1741.33,-268.098 1741.33,-268.098"/>
</g>
<!-- Translation -->
<g id="node28" class="node"><title>Translation</title>
<ellipse fill="none" stroke="black" cx="722.995" cy="-177" rx="50.1504" ry="18"/>
<text text-anchor="middle" x="722.995" y="-172.8" font-family="Times,serif" font-size="14.00">Translation</text>
</g>
<!-- Article&#45;&gt;Translation -->
<g id="edge4" class="edge"><title>Article&#45;&gt;Translation</title>
<path fill="none" stroke="#3b6d8f" d="M1111.47,-317.496C1078.24,-297.707 1021.23,-265.573 968.995,-245 933.493,-231.018 834.24,-205.481 773.203,-190.295"/>
<ellipse fill="none" stroke="#3b6d8f" cx="1115.16" cy="-319.707" rx="4.00002" ry="4.00002"/>
<polygon fill="#3b6d8f" stroke="#3b6d8f" points="773.088,-190.266 764.465,-183.491 768.235,-189.062 763.382,-187.858 763.382,-187.858 763.382,-187.858 768.235,-189.062 762.298,-192.226 773.088,-190.266 773.088,-190.266"/>
</g>
<!-- Trait -->
<g id="node27" class="node"><title>Trait</title>
<ellipse fill="none" stroke="black" cx="1206.99" cy="-91" rx="27" ry="18"/>
<text text-anchor="middle" x="1206.99" y="-86.8" font-family="Times,serif" font-size="14.00">Trait</text>
</g>
<!-- Association&#45;&gt;Trait -->
<g id="edge11" class="edge"><title>Association&#45;&gt;Trait</title>
<path fill="none" stroke="#c7a055" d="M1200.76,-150.936C1200.11,-140.802 1200.08,-129.088 1200.65,-118.786"/>
<ellipse fill="none" stroke="#c7a055" cx="1201.11" cy="-155.016" rx="4" ry="4"/>
<polygon fill="#c7a055" stroke="#c7a055" points="1200.67,-118.653 1205.97,-109.054 1201.07,-113.67 1201.48,-108.687 1201.48,-108.687 1201.48,-108.687 1201.07,-113.67 1197,-108.32 1200.67,-118.653 1200.67,-118.653"/>
</g>
<!-- Dataset -->
<g id="node7" class="node"><title>Dataset</title>
<ellipse fill="none" stroke="black" cx="2227.99" cy="-336" rx="36.7489" ry="18"/>
<text text-anchor="middle" x="2227.99" y="-331.8" font-family="Times,serif" font-size="14.00">Dataset</text>
</g>
<!-- Node -->
<g id="node14" class="node"><title>Node</title>
<ellipse fill="none" stroke="black" cx="2311.99" cy="-263" rx="29.0257" ry="18"/>
<text text-anchor="middle" x="2311.99" y="-258.8" font-family="Times,serif" font-size="14.00">Node</text>
</g>
<!-- Dataset&#45;&gt;Node -->
<g id="edge14" class="edge"><title>Dataset&#45;&gt;Node</title>
<path fill="none" stroke="#1d9f53" d="M2251.93,-314.77C2263.1,-305.331 2276.37,-294.111 2287.6,-284.623"/>
<ellipse fill="none" stroke="#1d9f53" cx="2248.86" cy="-317.361" rx="4.00002" ry="4.00002"/>
<polygon fill="#1d9f53" stroke="#1d9f53" points="2287.71,-284.525 2298.25,-281.507 2291.53,-281.297 2295.35,-278.07 2295.35,-278.07 2295.35,-278.07 2291.53,-281.297 2292.44,-274.633 2287.71,-284.525 2287.71,-284.525"/>
</g>
<!-- Image -->
<g id="node8" class="node"><title>Image</title>
<ellipse fill="none" stroke="black" cx="1241.99" cy="-336" rx="32.4063" ry="18"/>
<text text-anchor="middle" x="1241.99" y="-331.8" font-family="Times,serif" font-size="14.00">Image</text>
</g>
<!-- Image&#45;&gt;Association -->
<g id="edge16" class="edge"><title>Image&#45;&gt;Association</title>
<path fill="none" stroke="#402e29" d="M1256.14,-311.737C1269.8,-285.993 1285.97,-244.043 1267.99,-213 1263.95,-206.017 1257.93,-200.306 1251.22,-195.677"/>
<ellipse fill="none" stroke="#402e29" cx="1254.14" cy="-315.36" rx="4.00002" ry="4.00002"/>
<polygon fill="#402e29" stroke="#402e29" points="1251.01,-195.55 1244.78,-186.526 1246.73,-192.964 1242.45,-190.377 1242.45,-190.377 1242.45,-190.377 1246.73,-192.964 1240.12,-194.228 1251.01,-195.55 1251.01,-195.55"/>
</g>
<!-- Image&#45;&gt;Attribution -->
<g id="edge19" class="edge"><title>Image&#45;&gt;Attribution</title>
<path fill="none" stroke="#9adbac" d="M1222.15,-313.732C1216.83,-308.599 1210.91,-303.347 1204.99,-299 1145,-254.939 1067.01,-216.488 1020.66,-195.331"/>
<ellipse fill="none" stroke="#9adbac" cx="1225.24" cy="-316.816" rx="4.00002" ry="4.00002"/>
<polygon fill="#9adbac" stroke="#9adbac" points="1020.66,-195.33 1013.4,-187.109 1016.1,-193.269 1011.55,-191.209 1011.55,-191.209 1011.55,-191.209 1016.1,-193.269 1009.69,-195.309 1020.66,-195.33 1020.66,-195.33"/>
</g>
<!-- Image&#45;&gt;LiteratureReference -->
<g id="edge17" class="edge"><title>Image&#45;&gt;LiteratureReference</title>
<path fill="none" stroke="#7cb80a" d="M1281.62,-330.658C1336.97,-323.682 1433.04,-307.955 1453.99,-281 1488.61,-236.461 1450.33,-205.903 1418.99,-159 1388.79,-113.793 1379.21,-99.9591 1331.99,-73 1276,-41.0264 1101.69,-27.6342 993.563,-22.2926"/>
<ellipse fill="none" stroke="#7cb80a" cx="1277.4" cy="-331.175" rx="4.00001" ry="4.00001"/>
<polygon fill="#7cb80a" stroke="#7cb80a" points="993.3,-22.2801 983.528,-17.3056 988.306,-22.0402 983.312,-21.8004 983.312,-21.8004 983.312,-21.8004 988.306,-22.0402 983.096,-26.2952 993.3,-22.2801 993.3,-22.2801"/>
</g>
<!-- OldImage -->
<g id="node16" class="node"><title>OldImage</title>
<ellipse fill="none" stroke="black" cx="1364.99" cy="-263" rx="45.4355" ry="18"/>
<text text-anchor="middle" x="1364.99" y="-258.8" font-family="Times,serif" font-size="14.00">OldImage</text>
</g>
<!-- Image&#45;&gt;OldImage -->
<g id="edge20" class="edge"><title>Image&#45;&gt;OldImage</title>
<path fill="none" stroke="#a5fb57" d="M1271.87,-319.042C1282.68,-313.166 1294.95,-306.386 1305.99,-300 1314.78,-294.919 1324.21,-289.264 1332.89,-283.97"/>
<ellipse fill="none" stroke="#a5fb57" cx="1268.17" cy="-321.045" rx="4.00002" ry="4.00002"/>
<polygon fill="#a5fb57" stroke="#a5fb57" points="1333.08,-283.851 1343.96,-282.458 1337.34,-281.237 1341.61,-278.622 1341.61,-278.622 1341.61,-278.622 1337.34,-281.237 1339.25,-274.786 1333.08,-283.851 1333.08,-283.851"/>
</g>
<!-- Image&#45;&gt;Translation -->
<g id="edge18" class="edge"><title>Image&#45;&gt;Translation</title>
<path fill="none" stroke="#322e58" d="M1209.62,-321.216C1157.59,-299.17 1057.53,-257.213 1020.99,-245 968.238,-227.363 954.196,-225.513 899.995,-213 858.882,-203.509 812.029,-194.315 776.859,-187.734"/>
<ellipse fill="none" stroke="#322e58" cx="1213.55" cy="-322.885" rx="4.00002" ry="4.00002"/>
<polygon fill="#322e58" stroke="#322e58" points="776.634,-187.692 767.626,-181.44 771.718,-186.778 766.803,-185.864 766.803,-185.864 766.803,-185.864 771.718,-186.778 765.98,-190.288 776.634,-187.692 776.634,-187.692"/>
</g>
<!-- Javascript -->
<g id="node9" class="node"><title>Javascript</title>
<ellipse fill="none" stroke="black" cx="869.995" cy="-409" rx="45.4355" ry="18"/>
<text text-anchor="middle" x="869.995" y="-404.8" font-family="Times,serif" font-size="14.00">Javascript</text>
</g>
<!-- Javascript&#45;&gt;Article -->
<g id="edge22" class="edge"><title>Javascript&#45;&gt;Article</title>
<path fill="none" stroke="#6cd7ab" d="M922.631,-404.389C965.494,-400.218 1027.03,-391.395 1077.99,-373 1089.59,-368.817 1101.48,-362.485 1111.72,-356.292"/>
<ellipse fill="none" stroke="#6cd7ab" cx="918.567" cy="-404.768" rx="4" ry="4"/>
<polygon fill="#6cd7ab" stroke="#6cd7ab" points="1111.77,-356.262 1122.63,-354.754 1116,-353.603 1120.23,-350.943 1120.23,-350.943 1120.23,-350.943 1116,-353.603 1117.84,-347.133 1111.77,-356.262 1111.77,-356.262"/>
</g>
<!-- Map -->
<g id="node12" class="node"><title>Map</title>
<ellipse fill="none" stroke="black" cx="523.995" cy="-336" rx="27" ry="18"/>
<text text-anchor="middle" x="523.995" y="-331.8" font-family="Times,serif" font-size="14.00">Map</text>
</g>
<!-- Javascript&#45;&gt;Map -->
<g id="edge23" class="edge"><title>Javascript&#45;&gt;Map</title>
<path fill="none" stroke="#b26c28" d="M825.446,-396.425C816.717,-394.415 807.6,-392.493 798.995,-391 726.313,-378.386 706.454,-386.836 633.995,-373 602.751,-367.034 595.078,-364.334 564.995,-354 561.861,-352.924 558.623,-351.729 555.405,-350.487"/>
<ellipse fill="none" stroke="#b26c28" cx="829.435" cy="-397.367" rx="4.00001" ry="4.00001"/>
<polygon fill="#b26c28" stroke="#b26c28" points="555.212,-350.409 547.607,-342.509 550.572,-348.547 545.931,-346.685 545.931,-346.685 545.931,-346.685 550.572,-348.547 544.255,-350.862 555.212,-350.409 555.212,-350.409"/>
</g>
<!-- Javascript&#45;&gt;OldArticle -->
<g id="edge26" class="edge"><title>Javascript&#45;&gt;OldArticle</title>
<path fill="none" stroke="#11e3ef" d="M824.797,-396.385C776.021,-383.702 701.619,-363.882 673.995,-354 636.901,-340.731 629.437,-332.965 592.995,-318 559.727,-304.339 521.607,-290.008 493.095,-279.546"/>
<ellipse fill="none" stroke="#11e3ef" cx="828.821" cy="-397.429" rx="4.00001" ry="4.00001"/>
<polygon fill="#11e3ef" stroke="#11e3ef" points="492.826,-279.448 484.98,-271.787 488.13,-277.731 483.434,-276.014 483.434,-276.014 483.434,-276.014 488.13,-277.731 481.889,-280.24 492.826,-279.448 492.826,-279.448"/>
</g>
<!-- OldMap -->
<g id="node17" class="node"><title>OldMap</title>
<ellipse fill="none" stroke="black" cx="267.995" cy="-263" rx="39.6645" ry="18"/>
<text text-anchor="middle" x="267.995" y="-258.8" font-family="Times,serif" font-size="14.00">OldMap</text>
</g>
<!-- Javascript&#45;&gt;OldMap -->
<g id="edge27" class="edge"><title>Javascript&#45;&gt;OldMap</title>
<path fill="none" stroke="#ca5f60" d="M824.512,-396.701C816.049,-394.715 807.268,-392.732 798.995,-391 753.471,-381.47 633.738,-376.432 592.995,-354 573.981,-343.532 579.13,-328.244 559.995,-318 465.62,-267.475 426.234,-305.364 321.995,-281 317.568,-279.965 312.979,-278.75 308.43,-277.452"/>
<ellipse fill="none" stroke="#ca5f60" cx="828.609" cy="-397.674" rx="4.00001" ry="4.00001"/>
<polygon fill="#ca5f60" stroke="#ca5f60" points="308.195,-277.382 299.902,-270.208 303.404,-275.951 298.614,-274.52 298.614,-274.52 298.614,-274.52 303.404,-275.951 297.325,-278.831 308.195,-277.382 308.195,-277.382"/>
</g>
<!-- OldSound -->
<g id="node18" class="node"><title>OldSound</title>
<ellipse fill="none" stroke="black" cx="713.995" cy="-263" rx="45.9545" ry="18"/>
<text text-anchor="middle" x="713.995" y="-258.8" font-family="Times,serif" font-size="14.00">OldSound</text>
</g>
<!-- Javascript&#45;&gt;OldSound -->
<g id="edge28" class="edge"><title>Javascript&#45;&gt;OldSound</title>
<path fill="none" stroke="#cd1b65" d="M844.122,-387.367C832.028,-377.506 817.558,-365.392 804.995,-354 780.942,-332.189 754.699,-305.954 736.603,-287.452"/>
<ellipse fill="none" stroke="#cd1b65" cx="847.462" cy="-390.076" rx="4.00002" ry="4.00002"/>
<polygon fill="#cd1b65" stroke="#cd1b65" points="736.353,-287.196 732.6,-276.892 732.864,-283.614 729.376,-280.032 729.376,-280.032 729.376,-280.032 732.864,-283.614 726.152,-283.171 736.353,-287.196 736.353,-287.196"/>
</g>
<!-- OldVideo -->
<g id="node19" class="node"><title>OldVideo</title>
<ellipse fill="none" stroke="black" cx="915.995" cy="-263" rx="44.4146" ry="18"/>
<text text-anchor="middle" x="915.995" y="-258.8" font-family="Times,serif" font-size="14.00">OldVideo</text>
</g>
<!-- Javascript&#45;&gt;OldVideo -->
<g id="edge29" class="edge"><title>Javascript&#45;&gt;OldVideo</title>
<path fill="none" stroke="#a40b56" d="M877.913,-383.213C886.139,-357.461 898.969,-317.298 907.428,-290.818"/>
<ellipse fill="none" stroke="#a40b56" cx="876.67" cy="-387.106" rx="4.00001" ry="4.00001"/>
<polygon fill="#a40b56" stroke="#a40b56" points="907.501,-290.588 914.831,-282.431 909.023,-285.825 910.545,-281.062 910.545,-281.062 910.545,-281.062 909.023,-285.825 906.258,-279.693 907.501,-290.588 907.501,-290.588"/>
</g>
<!-- Sound -->
<g id="node24" class="node"><title>Sound</title>
<ellipse fill="none" stroke="black" cx="715.995" cy="-336" rx="32.9255" ry="18"/>
<text text-anchor="middle" x="715.995" y="-331.8" font-family="Times,serif" font-size="14.00">Sound</text>
</g>
<!-- Javascript&#45;&gt;Sound -->
<g id="edge24" class="edge"><title>Javascript&#45;&gt;Sound</title>
<path fill="none" stroke="#e5c35e" d="M833.946,-391.38C808.524,-379.66 774.703,-364.067 749.797,-352.584"/>
<ellipse fill="none" stroke="#e5c35e" cx="837.757" cy="-393.137" rx="4.00002" ry="4.00002"/>
<polygon fill="#e5c35e" stroke="#e5c35e" points="749.471,-352.434 742.274,-344.161 744.931,-350.341 740.39,-348.247 740.39,-348.247 740.39,-348.247 744.931,-350.341 738.506,-352.334 749.471,-352.434 749.471,-352.434"/>
</g>
<!-- Video -->
<g id="node31" class="node"><title>Video</title>
<ellipse fill="none" stroke="black" cx="979.995" cy="-336" rx="31.3854" ry="18"/>
<text text-anchor="middle" x="979.995" y="-331.8" font-family="Times,serif" font-size="14.00">Video</text>
</g>
<!-- Javascript&#45;&gt;Video -->
<g id="edge25" class="edge"><title>Javascript&#45;&gt;Video</title>
<path fill="none" stroke="#186327" d="M899.554,-388.921C915.65,-378.532 935.473,-365.737 951.413,-355.448"/>
<ellipse fill="none" stroke="#186327" cx="896.148" cy="-391.12" rx="4.00002" ry="4.00002"/>
<polygon fill="#186327" stroke="#186327" points="951.419,-355.444 962.262,-353.802 955.62,-352.733 959.821,-350.021 959.821,-350.021 959.821,-350.021 955.62,-352.733 957.381,-346.24 951.419,-355.444 951.419,-355.444"/>
</g>
<!-- License -->
<g id="node10" class="node"><title>License</title>
<ellipse fill="none" stroke="black" cx="1137.99" cy="-409" rx="37.7092" ry="18"/>
<text text-anchor="middle" x="1137.99" y="-404.8" font-family="Times,serif" font-size="14.00">License</text>
</g>
<!-- License&#45;&gt;Article -->
<g id="edge35" class="edge"><title>License&#45;&gt;Article</title>
<path fill="none" stroke="#c0e869" d="M1138.7,-382.791C1138.87,-376.832 1139.05,-370.45 1139.22,-364.399"/>
<ellipse fill="none" stroke="#c0e869" cx="1138.59" cy="-386.814" rx="4" ry="4"/>
<polygon fill="#c0e869" stroke="#c0e869" points="1139.23,-364.025 1144.01,-354.156 1139.37,-359.027 1139.52,-354.029 1139.52,-354.029 1139.52,-354.029 1139.37,-359.027 1135.02,-353.902 1139.23,-364.025 1139.23,-364.025"/>
</g>
<!-- License&#45;&gt;Dataset -->
<g id="edge31" class="edge"><title>License&#45;&gt;Dataset</title>
<path fill="none" stroke="#472548" d="M1183.43,-405.04C1360.54,-393.504 2003.61,-351.616 2181.89,-340.003"/>
<ellipse fill="none" stroke="#472548" cx="1179.19" cy="-405.317" rx="4" ry="4"/>
<polygon fill="#472548" stroke="#472548" points="2182,-339.996 2192.28,-343.836 2186.99,-339.671 2191.98,-339.346 2191.98,-339.346 2191.98,-339.346 2186.99,-339.671 2191.69,-334.855 2182,-339.996 2182,-339.996"/>
</g>
<!-- License&#45;&gt;Image -->
<g id="edge32" class="edge"><title>License&#45;&gt;Image</title>
<path fill="none" stroke="#b941d3" d="M1165.86,-388.974C1180.78,-378.789 1199.11,-366.28 1214.04,-356.085"/>
<ellipse fill="none" stroke="#b941d3" cx="1162.34" cy="-391.377" rx="4.00002" ry="4.00002"/>
<polygon fill="#b941d3" stroke="#b941d3" points="1214.13,-356.024 1224.92,-354.102 1218.26,-353.205 1222.39,-350.386 1222.39,-350.386 1222.39,-350.386 1218.26,-353.205 1219.85,-346.669 1214.13,-356.024 1214.13,-356.024"/>
</g>
<!-- License&#45;&gt;Map -->
<g id="edge34" class="edge"><title>License&#45;&gt;Map</title>
<path fill="none" stroke="#aa1557" d="M1093.61,-402.867C977.649,-389.458 667.247,-353.565 560.583,-341.231"/>
<ellipse fill="none" stroke="#aa1557" cx="1097.91" cy="-403.364" rx="4.00001" ry="4.00001"/>
<polygon fill="#aa1557" stroke="#aa1557" points="560.265,-341.194 550.848,-335.575 555.298,-340.62 550.331,-340.045 550.331,-340.045 550.331,-340.045 555.298,-340.62 549.814,-344.516 560.265,-341.194 560.265,-341.194"/>
</g>
<!-- License&#45;&gt;Sound -->
<g id="edge36" class="edge"><title>License&#45;&gt;Sound</title>
<path fill="none" stroke="#12e33a" d="M1095.19,-400.799C1013.69,-387.086 837.224,-357.396 757.08,-343.912"/>
<ellipse fill="none" stroke="#12e33a" cx="1099.16" cy="-401.466" rx="4.00001" ry="4.00001"/>
<polygon fill="#12e33a" stroke="#12e33a" points="756.746,-343.856 747.631,-337.759 751.815,-343.027 746.885,-342.197 746.885,-342.197 746.885,-342.197 751.815,-343.027 746.138,-346.635 756.746,-343.856 756.746,-343.856"/>
</g>
<!-- License&#45;&gt;Video -->
<g id="edge33" class="edge"><title>License&#45;&gt;Video</title>
<path fill="none" stroke="#b6d719" d="M1104.19,-392.807C1077.33,-380.739 1039.97,-363.952 1013.26,-351.947"/>
<ellipse fill="none" stroke="#b6d719" cx="1107.9" cy="-394.477" rx="4.00002" ry="4.00002"/>
<polygon fill="#b6d719" stroke="#b6d719" points="1013.06,-351.858 1005.78,-343.654 1008.5,-349.808 1003.94,-347.759 1003.94,-347.759 1003.94,-347.759 1008.5,-349.808 1002.09,-351.863 1013.06,-351.858 1013.06,-351.858"/>
</g>
<!-- Map&#45;&gt;Association -->
<g id="edge39" class="edge"><title>Map&#45;&gt;Association</title>
<path fill="none" stroke="#1adc2e" d="M551.495,-319.451C569.358,-309.077 592.96,-294.845 612.995,-281 634.352,-266.241 635.012,-254.939 658.995,-245 681.378,-235.724 1010.38,-199.292 1147.59,-184.398"/>
<ellipse fill="none" stroke="#1adc2e" cx="547.683" cy="-321.651" rx="4.00002" ry="4.00002"/>
<polygon fill="#1adc2e" stroke="#1adc2e" points="1147.97,-184.356 1158.4,-187.752 1152.94,-183.817 1157.91,-183.278 1157.91,-183.278 1157.91,-183.278 1152.94,-183.817 1157.43,-178.805 1147.97,-184.356 1147.97,-184.356"/>
</g>
<!-- Map&#45;&gt;Attribution -->
<g id="edge42" class="edge"><title>Map&#45;&gt;Attribution</title>
<path fill="none" stroke="#1245d1" d="M542.896,-314.191C569.973,-285.901 622.777,-236.181 678.995,-213 701.018,-203.919 842.163,-190.24 923.47,-182.965"/>
<ellipse fill="none" stroke="#1245d1" cx="539.949" cy="-317.312" rx="4.00002" ry="4.00002"/>
<polygon fill="#1245d1" stroke="#1245d1" points="923.6,-182.953 933.959,-186.549 928.58,-182.51 933.56,-182.067 933.56,-182.067 933.56,-182.067 928.58,-182.51 933.162,-177.585 923.6,-182.953 923.6,-182.953"/>
</g>
<!-- Map&#45;&gt;LiteratureReference -->
<g id="edge40" class="edge"><title>Map&#45;&gt;LiteratureReference</title>
<path fill="none" stroke="#d204a6" d="M489.054,-332.558C391.616,-324.798 123.995,-296.602 123.995,-221 123.995,-221 123.995,-221 123.995,-90 123.995,-17.5446 211.243,-64.0734 282.995,-54 470.026,-27.7421 691.363,-21.0264 812.827,-19.4066"/>
<ellipse fill="none" stroke="#d204a6" cx="493.141" cy="-332.875" rx="4" ry="4"/>
<polygon fill="#d204a6" stroke="#d204a6" points="813.191,-19.4021 823.246,-23.7772 818.19,-19.3398 823.19,-19.2776 823.19,-19.2776 823.19,-19.2776 818.19,-19.3398 823.134,-14.7779 813.191,-19.4021 813.191,-19.4021"/>
</g>
<!-- Map&#45;&gt;OldMap -->
<g id="edge43" class="edge"><title>Map&#45;&gt;OldMap</title>
<path fill="none" stroke="#ad3a03" d="M491.141,-326.809C451.04,-316.676 381.246,-298.599 321.995,-281 317.746,-279.738 313.319,-278.393 308.908,-277.034"/>
<ellipse fill="none" stroke="#ad3a03" cx="495.114" cy="-327.81" rx="4.00001" ry="4.00001"/>
<polygon fill="#ad3a03" stroke="#ad3a03" points="308.9,-277.032 300.688,-269.764 304.126,-275.546 299.352,-274.061 299.352,-274.061 299.352,-274.061 304.126,-275.546 298.015,-278.358 308.9,-277.032 308.9,-277.032"/>
</g>
<!-- Map&#45;&gt;Translation -->
<g id="edge41" class="edge"><title>Map&#45;&gt;Translation</title>
<path fill="none" stroke="#837223" d="M489.449,-331.322C458.349,-325.975 414.35,-312.901 392.995,-281 384.094,-267.704 384.811,-258.749 392.995,-245 420.212,-199.276 575.591,-184.701 663.096,-180.096"/>
<ellipse fill="none" stroke="#837223" cx="493.501" cy="-331.957" rx="4.00001" ry="4.00001"/>
<polygon fill="#837223" stroke="#837223" points="663.171,-180.093 673.383,-184.089 668.165,-179.844 673.159,-179.595 673.159,-179.595 673.159,-179.595 668.165,-179.844 672.935,-175.1 663.171,-180.093 663.171,-180.093"/>
</g>
<!-- Name -->
<g id="node13" class="node"><title>Name</title>
<ellipse fill="none" stroke="black" cx="215.995" cy="-517" rx="31.4462" ry="18"/>
<text text-anchor="middle" x="215.995" y="-512.8" font-family="Times,serif" font-size="14.00">Name</text>
</g>
<!-- Name&#45;&gt;Appearance -->
<g id="edge45" class="edge"><title>Name&#45;&gt;Appearance</title>
<path fill="none" stroke="#ac5c1a" d="M185.599,-500.87C175.93,-495.32 165.538,-488.532 156.995,-481 141.791,-467.595 143.477,-459.182 128.995,-445 124.111,-440.218 118.553,-435.535 113.012,-431.228"/>
<ellipse fill="none" stroke="#ac5c1a" cx="189.31" cy="-502.926" rx="4.00002" ry="4.00002"/>
<polygon fill="#ac5c1a" stroke="#ac5c1a" points="112.991,-431.213 107.682,-421.618 108.988,-428.217 104.985,-425.221 104.985,-425.221 104.985,-425.221 108.988,-428.217 102.289,-428.824 112.991,-431.213 112.991,-431.213"/>
</g>
<!-- Name&#45;&gt;Association -->
<g id="edge46" class="edge"><title>Name&#45;&gt;Association</title>
<path fill="none" stroke="#899a4d" d="M210.044,-490.922C205.494,-469.544 199.995,-437.931 199.995,-410 199.995,-410 199.995,-410 199.995,-299 199.995,-273.558 198.901,-260.606 218.995,-245 263.432,-210.49 1002.4,-197.568 1038.99,-195 1075.41,-192.444 1116.15,-188.353 1148.39,-184.824"/>
<ellipse fill="none" stroke="#899a4d" cx="210.931" cy="-494.955" rx="4.00001" ry="4.00001"/>
<polygon fill="#899a4d" stroke="#899a4d" points="1148.6,-184.8 1159.04,-188.173 1153.57,-184.251 1158.54,-183.701 1158.54,-183.701 1158.54,-183.701 1153.57,-184.251 1158.05,-179.228 1148.6,-184.8 1148.6,-184.8"/>
</g>
<!-- Name&#45;&gt;LiteratureReference -->
<g id="edge47" class="edge"><title>Name&#45;&gt;LiteratureReference</title>
<path fill="none" stroke="#a084bb" d="M202.68,-492.564C169.539,-433.362 85.9948,-278.429 85.9948,-221 85.9948,-221 85.9948,-221 85.9948,-90 85.9948,-62.617 110.132,-62.997 135.995,-54 198.428,-32.2808 624.144,-23.2169 813.503,-20.2281"/>
<ellipse fill="none" stroke="#a084bb" cx="204.686" cy="-496.133" rx="4.00002" ry="4.00002"/>
<polygon fill="#a084bb" stroke="#a084bb" points="813.712,-20.2249 823.781,-24.5687 818.712,-20.1471 823.711,-20.0692 823.711,-20.0692 823.711,-20.0692 818.712,-20.1471 823.641,-15.5698 813.712,-20.2249 813.712,-20.2249"/>
</g>
<!-- Node&#45;&gt;Association -->
<g id="edge49" class="edge"><title>Node&#45;&gt;Association</title>
<path fill="none" stroke="#0801a6" d="M2276.61,-254.556C2222.18,-243.439 2114.49,-222.762 2021.99,-213 1984.72,-209.066 1451.52,-187.694 1268.29,-180.423"/>
<ellipse fill="none" stroke="#0801a6" cx="2280.64" cy="-255.385" rx="4.00001" ry="4.00001"/>
<polygon fill="#0801a6" stroke="#0801a6" points="1268.28,-180.423 1258.46,-175.53 1263.28,-180.224 1258.28,-180.026 1258.28,-180.026 1258.28,-180.026 1263.28,-180.224 1258.11,-184.523 1268.28,-180.423 1268.28,-180.423"/>
</g>
<!-- Node&#45;&gt;Node -->
<g id="edge50" class="edge"><title>Node&#45;&gt;Node</title>
<path fill="none" stroke="#634632" d="M2349.36,-265.066C2355.24,-264.76 2359.26,-264.071 2359.26,-263 2359.26,-262.048 2356.08,-261.398 2351.25,-261.05"/>
<ellipse fill="none" stroke="#634632" cx="2345.07" cy="-265.161" rx="4" ry="4"/>
<polygon fill="#634632" stroke="#634632" points="2351.07,-261.045 2341.2,-256.252 2346.07,-260.898 2341.07,-260.751 2341.07,-260.751 2341.07,-260.751 2346.07,-260.898 2340.94,-265.249 2351.07,-261.045 2351.07,-261.045"/>
<text text-anchor="middle" x="2382.19" y="-258.8" font-family="Times,serif" font-size="14.00">children</text>
</g>
<!-- Node&#45;&gt;Node -->
<g id="edge52" class="edge"><title>Node&#45;&gt;Node</title>
<path fill="none" stroke="#48e3da" d="M2351.13,-267.222C2377.32,-268.153 2405.13,-266.745 2405.13,-263 2405.13,-259.255 2377.32,-257.847 2351.13,-258.778"/>
<polygon fill="#48e3da" stroke="#48e3da" points="2350.84,-267.209 2341.07,-262.234 2345.84,-266.969 2340.85,-266.728 2340.85,-266.728 2340.85,-266.728 2345.84,-266.969 2340.63,-271.223 2350.84,-267.209 2350.84,-267.209"/>
<polygon fill="#48e3da" stroke="#48e3da" points="2350.84,-258.791 2340.63,-254.777 2345.84,-259.031 2340.85,-259.272 2340.85,-259.272 2340.85,-259.272 2345.84,-259.031 2341.07,-263.766 2350.84,-258.791 2350.84,-258.791"/>
<text text-anchor="middle" x="2458.38" y="-258.8" font-family="Times,serif" font-size="14.00">self_and_ancestors</text>
</g>
<!-- Node&#45;&gt;Node -->
<g id="edge54" class="edge"><title>Node&#45;&gt;Node</title>
<path fill="none" stroke="#435a8c" d="M2350.99,-267.833C2410.66,-271.509 2511.64,-269.898 2511.64,-263 2511.64,-256.102 2410.66,-254.491 2350.99,-258.167"/>
<polygon fill="#435a8c" stroke="#435a8c" points="2350.7,-267.812 2341.04,-262.624 2345.71,-267.463 2340.73,-267.113 2340.73,-267.113 2340.73,-267.113 2345.71,-267.463 2340.41,-271.602 2350.7,-267.812 2350.7,-267.812"/>
<polygon fill="#435a8c" stroke="#435a8c" points="2350.7,-258.188 2340.41,-254.398 2345.71,-258.537 2340.73,-258.887 2340.73,-258.887 2340.73,-258.887 2345.71,-258.537 2341.04,-263.376 2350.7,-258.188 2350.7,-258.188"/>
<text text-anchor="middle" x="2572.68" y="-258.8" font-family="Times,serif" font-size="14.00">self_and_descendants</text>
</g>
<!-- NodeHierarchy -->
<g id="node33" class="node"><title>NodeHierarchy</title>
<ellipse fill="none" stroke="black" cx="2493.99" cy="-177" rx="64.7286" ry="18"/>
<text text-anchor="middle" x="2493.99" y="-172.8" font-family="Times,serif" font-size="14.00">NodeHierarchy</text>
</g>
<!-- Node&#45;&gt;NodeHierarchy -->
<g id="edge51" class="edge"><title>Node&#45;&gt;NodeHierarchy</title>
<path fill="none" stroke="#9f6953" d="M2323.52,-238.344C2329.1,-229.163 2336.64,-219.349 2345.95,-213 2349.83,-210.351 2395.22,-199.815 2434.73,-190.989"/>
<ellipse fill="none" stroke="#9f6953" cx="2321.44" cy="-242.015" rx="4.00002" ry="4.00002"/>
<polygon fill="#9f6953" stroke="#9f6953" points="2434.86,-190.961 2445.6,-193.18 2439.74,-189.874 2444.62,-188.788 2444.62,-188.788 2444.62,-188.788 2439.74,-189.874 2443.64,-184.395 2434.86,-190.961 2434.86,-190.961"/>
<text text-anchor="middle" x="2402.52" y="-215.8" font-family="Times,serif" font-size="14.00">ancestor_hierarchies</text>
</g>
<!-- Node&#45;&gt;NodeHierarchy -->
<g id="edge53" class="edge"><title>Node&#45;&gt;NodeHierarchy</title>
<path fill="none" stroke="#f80b72" d="M2349.67,-260.699C2381.79,-257.931 2427.88,-249.872 2460.99,-227 2469.42,-221.179 2476.3,-212.442 2481.55,-203.95"/>
<ellipse fill="none" stroke="#f80b72" cx="2345.4" cy="-261.021" rx="4" ry="4"/>
<polygon fill="#f80b72" stroke="#f80b72" points="2481.69,-203.692 2490.53,-197.191 2484.15,-199.337 2486.61,-194.981 2486.61,-194.981 2486.61,-194.981 2484.15,-199.337 2482.69,-192.771 2481.69,-203.692 2481.69,-203.692"/>
<text text-anchor="middle" x="2539.3" y="-215.8" font-family="Times,serif" font-size="14.00">descendant_hierarchies</text>
</g>
<!-- OldArticle&#45;&gt;Association -->
<g id="edge56" class="edge"><title>OldArticle&#45;&gt;Association</title>
<path fill="none" stroke="#2af8fc" d="M503.485,-256.065C640.774,-240.83 1004.83,-200.433 1147.99,-184.547"/>
<ellipse fill="none" stroke="#2af8fc" cx="499.338" cy="-256.525" rx="4.00001" ry="4.00001"/>
<polygon fill="#2af8fc" stroke="#2af8fc" points="1148.38,-184.505 1158.81,-187.874 1153.35,-183.953 1158.32,-183.402 1158.32,-183.402 1158.32,-183.402 1153.35,-183.953 1157.82,-178.929 1148.38,-184.505 1148.38,-184.505"/>
</g>
<!-- OldArticle&#45;&gt;Attribution -->
<g id="edge59" class="edge"><title>OldArticle&#45;&gt;Attribution</title>
<path fill="none" stroke="#e37b5b" d="M470.942,-240.169C482.094,-230.02 496.656,-218.909 511.995,-213 568.109,-191.384 722.035,-199.559 781.995,-195 829.704,-191.372 883.798,-186.716 923.533,-183.194"/>
<ellipse fill="none" stroke="#e37b5b" cx="468.023" cy="-242.924" rx="4.00002" ry="4.00002"/>
<polygon fill="#e37b5b" stroke="#e37b5b" points="923.609,-183.188 933.968,-186.784 928.589,-182.745 933.569,-182.302 933.569,-182.302 933.569,-182.302 928.589,-182.745 933.171,-177.819 923.609,-183.188 923.609,-183.188"/>
</g>
<!-- OldArticle&#45;&gt;LiteratureReference -->
<g id="edge58" class="edge"><title>OldArticle&#45;&gt;LiteratureReference</title>
<path fill="none" stroke="#11c831" d="M446.358,-236.793C446.363,-228.69 447.703,-220.005 451.995,-213 518.322,-104.744 583.381,-120.809 700.995,-73 744.442,-55.339 795.466,-41.7948 835.49,-32.6881"/>
<ellipse fill="none" stroke="#11c831" cx="446.567" cy="-240.938" rx="4" ry="4"/>
<polygon fill="#11c831" stroke="#11c831" points="835.658,-32.6506 846.399,-34.8603 840.538,-31.5596 845.417,-30.4687 845.417,-30.4687 845.417,-30.4687 840.538,-31.5596 844.435,-26.0771 835.658,-32.6506 835.658,-32.6506"/>
</g>
<!-- OldArticle&#45;&gt;Translation -->
<g id="edge57" class="edge"><title>OldArticle&#45;&gt;Translation</title>
<path fill="none" stroke="#f5985f" d="M452.115,-237.058C454.137,-228.223 457.935,-218.998 464.995,-213 493.892,-188.448 595.726,-181.045 662.484,-178.858"/>
<ellipse fill="none" stroke="#f5985f" cx="451.413" cy="-241.019" rx="4.00001" ry="4.00001"/>
<polygon fill="#f5985f" stroke="#f5985f" points="662.885,-178.846 673.013,-183.048 667.882,-178.698 672.88,-178.55 672.88,-178.55 672.88,-178.55 667.882,-178.698 672.747,-174.051 662.885,-178.846 662.885,-178.846"/>
</g>
<!-- OldImage&#45;&gt;Association -->
<g id="edge61" class="edge"><title>OldImage&#45;&gt;Association</title>
<path fill="none" stroke="#bab74b" d="M1342.48,-240.075C1332.02,-230.778 1319.04,-220.405 1305.99,-213 1290.77,-204.353 1273.03,-197.267 1256.8,-191.788"/>
<ellipse fill="none" stroke="#bab74b" cx="1345.68" cy="-242.994" rx="4.00002" ry="4.00002"/>
<polygon fill="#bab74b" stroke="#bab74b" points="1256.45,-191.672 1248.33,-184.305 1251.69,-190.129 1246.94,-188.585 1246.94,-188.585 1246.94,-188.585 1251.69,-190.129 1245.55,-192.865 1256.45,-191.672 1256.45,-191.672"/>
</g>
<!-- OldImage&#45;&gt;Attribution -->
<g id="edge64" class="edge"><title>OldImage&#45;&gt;Attribution</title>
<path fill="none" stroke="#b82d61" d="M1322.7,-248.785C1287.46,-238.105 1235.8,-223.217 1189.99,-213 1138.41,-201.494 1078.91,-191.88 1036.62,-185.658"/>
<ellipse fill="none" stroke="#b82d61" cx="1326.58" cy="-249.967" rx="4.00001" ry="4.00001"/>
<polygon fill="#b82d61" stroke="#b82d61" points="1036.42,-185.629 1027.17,-179.736 1031.47,-184.909 1026.52,-184.189 1026.52,-184.189 1026.52,-184.189 1031.47,-184.909 1025.87,-188.642 1036.42,-185.629 1036.42,-185.629"/>
</g>
<!-- OldImage&#45;&gt;LiteratureReference -->
<g id="edge63" class="edge"><title>OldImage&#45;&gt;LiteratureReference</title>
<path fill="none" stroke="#b85141" d="M1358.94,-237.014C1347.49,-195.539 1318.48,-113.083 1260.99,-73 1218.75,-43.538 1083.62,-29.6489 992.274,-23.4799"/>
<ellipse fill="none" stroke="#b85141" cx="1360.03" cy="-241.11" rx="4.00001" ry="4.00001"/>
<polygon fill="#b85141" stroke="#b85141" points="992.171,-23.4732 982.487,-18.3279 987.182,-23.1457 982.192,-22.8182 982.192,-22.8182 982.192,-22.8182 987.182,-23.1457 981.898,-27.3086 992.171,-23.4732 992.171,-23.4732"/>
</g>
<!-- OldImage&#45;&gt;OldImage -->
<g id="edge65" class="edge"><title>OldImage&#45;&gt;OldImage</title>
<path fill="none" stroke="#37ebc8" d="M1415.72,-269.131C1423.32,-268.181 1428.46,-266.138 1428.46,-263 1428.46,-260.124 1424.14,-258.167 1417.57,-257.129"/>
<ellipse fill="none" stroke="#37ebc8" cx="1411.4" cy="-269.436" rx="4" ry="4"/>
<polygon fill="#37ebc8" stroke="#37ebc8" points="1417.37,-257.113 1407.78,-251.799 1412.39,-256.698 1407.41,-256.283 1407.41,-256.283 1407.41,-256.283 1412.39,-256.698 1407.04,-260.768 1417.37,-257.113 1417.37,-257.113"/>
</g>
<!-- OldImage&#45;&gt;Translation -->
<g id="edge62" class="edge"><title>OldImage&#45;&gt;Translation</title>
<path fill="none" stroke="#cc5f1c" d="M1314.3,-255.367C1196.14,-239.906 903.115,-201.567 779.471,-185.389"/>
<ellipse fill="none" stroke="#cc5f1c" cx="1318.41" cy="-255.904" rx="4.00001" ry="4.00001"/>
<polygon fill="#cc5f1c" stroke="#cc5f1c" points="779.368,-185.376 770.036,-179.617 774.41,-184.727 769.452,-184.079 769.452,-184.079 769.452,-184.079 774.41,-184.727 768.869,-188.541 779.368,-185.376 779.368,-185.376"/>
</g>
<!-- OldMap&#45;&gt;Association -->
<g id="edge67" class="edge"><title>OldMap&#45;&gt;Association</title>
<path fill="none" stroke="#fd6793" d="M313.255,-255.262C336.967,-251.88 366.509,-247.897 392.995,-245 564.118,-226.283 607.347,-226.056 778.995,-213 894.493,-204.215 923.581,-204.832 1038.99,-195 1075.24,-191.913 1115.81,-187.825 1148,-184.431"/>
<ellipse fill="none" stroke="#fd6793" cx="309.085" cy="-255.861" rx="4.00001" ry="4.00001"/>
<polygon fill="#fd6793" stroke="#fd6793" points="1148.2,-184.41 1158.62,-187.831 1153.17,-183.883 1158.15,-183.356 1158.15,-183.356 1158.15,-183.356 1153.17,-183.883 1157.67,-178.881 1148.2,-184.41 1148.2,-184.41"/>
</g>
<!-- OldMap&#45;&gt;Attribution -->
<g id="edge70" class="edge"><title>OldMap&#45;&gt;Attribution</title>
<path fill="none" stroke="#a2f5cd" d="M308.718,-250.674C351.869,-239.167 422.176,-221.819 483.995,-213 615.351,-194.261 649.66,-204.648 781.995,-195 829.715,-191.521 883.808,-186.853 923.54,-183.289"/>
<ellipse fill="none" stroke="#a2f5cd" cx="304.848" cy="-251.714" rx="4.00001" ry="4.00001"/>
<polygon fill="#a2f5cd" stroke="#a2f5cd" points="923.616,-183.282 933.979,-186.867 928.596,-182.834 933.576,-182.385 933.576,-182.385 933.576,-182.385 928.596,-182.834 933.172,-177.903 923.616,-183.282 923.616,-183.282"/>
</g>
<!-- OldMap&#45;&gt;LiteratureReference -->
<g id="edge69" class="edge"><title>OldMap&#45;&gt;LiteratureReference</title>
<path fill="none" stroke="#96f92c" d="M261.215,-237.039C250.948,-193.037 237.506,-101.814 286.995,-54 305.618,-36.0075 647.135,-25.2458 813.881,-21.0428"/>
<ellipse fill="none" stroke="#96f92c" cx="262.194" cy="-241.048" rx="4.00001" ry="4.00001"/>
<polygon fill="#96f92c" stroke="#96f92c" points="814.124,-21.0368 824.233,-25.286 819.122,-20.9121 824.121,-20.7874 824.121,-20.7874 824.121,-20.7874 819.122,-20.9121 824.008,-16.2888 814.124,-21.0368 814.124,-21.0368"/>
</g>
<!-- OldMap&#45;&gt;Translation -->
<g id="edge68" class="edge"><title>OldMap&#45;&gt;Translation</title>
<path fill="none" stroke="#a8bb60" d="M291.774,-241.269C305.05,-230.925 322.421,-219.303 339.995,-213 397.848,-192.252 570.563,-183.245 663.019,-179.822"/>
<ellipse fill="none" stroke="#a8bb60" cx="288.345" cy="-244.022" rx="4.00002" ry="4.00002"/>
<polygon fill="#a8bb60" stroke="#a8bb60" points="663.074,-179.82 673.23,-183.957 668.071,-179.64 673.068,-179.46 673.068,-179.46 673.068,-179.46 668.071,-179.64 672.906,-174.963 663.074,-179.82 663.074,-179.82"/>
</g>
<!-- OldSound&#45;&gt;Association -->
<g id="edge72" class="edge"><title>OldSound&#45;&gt;Association</title>
<path fill="none" stroke="#ae3957" d="M763.768,-254.165C784.251,-251.081 808.234,-247.652 829.995,-245 911.999,-235.008 933.624,-241.256 1014.99,-227 1064.76,-218.281 1120.63,-203.437 1159.21,-192.367"/>
<ellipse fill="none" stroke="#ae3957" cx="759.764" cy="-254.772" rx="4.00001" ry="4.00001"/>
<polygon fill="#ae3957" stroke="#ae3957" points="1159.51,-192.278 1170.37,-193.819 1164.31,-190.888 1169.12,-189.497 1169.12,-189.497 1169.12,-189.497 1164.31,-190.888 1167.87,-185.174 1159.51,-192.278 1159.51,-192.278"/>
</g>
<!-- OldSound&#45;&gt;Attribution -->
<g id="edge75" class="edge"><title>OldSound&#45;&gt;Attribution</title>
<path fill="none" stroke="#f72e68" d="M756.346,-248.676C805.097,-233.339 884.885,-208.237 935.088,-192.443"/>
<ellipse fill="none" stroke="#f72e68" cx="752.442" cy="-249.904" rx="4.00001" ry="4.00001"/>
<polygon fill="#f72e68" stroke="#f72e68" points="935.177,-192.415 946.067,-193.706 939.947,-190.914 944.716,-189.413 944.716,-189.413 944.716,-189.413 939.947,-190.914 943.366,-185.121 935.177,-192.415 935.177,-192.415"/>
</g>
<!-- OldSound&#45;&gt;LiteratureReference -->
<g id="edge74" class="edge"><title>OldSound&#45;&gt;LiteratureReference</title>
<path fill="none" stroke="#8f2946" d="M690.883,-240.394C671.17,-219.238 648.316,-186.297 663.995,-159 702.32,-92.2739 786.072,-54.3451 843.756,-35.2338"/>
<ellipse fill="none" stroke="#8f2946" cx="693.809" cy="-243.422" rx="4.00002" ry="4.00002"/>
<polygon fill="#8f2946" stroke="#8f2946" points="843.972,-35.1646 854.869,-36.3881 848.732,-33.6343 853.492,-32.104 853.492,-32.104 853.492,-32.104 848.732,-33.6343 852.114,-27.8199 843.972,-35.1646 843.972,-35.1646"/>
</g>
<!-- OldSound&#45;&gt;OldSound -->
<g id="edge76" class="edge"><title>OldSound&#45;&gt;OldSound</title>
<path fill="none" stroke="#58a813" d="M765.131,-269.131C772.788,-268.181 777.972,-266.138 777.972,-263 777.972,-260.124 773.616,-258.167 766.992,-257.129"/>
<ellipse fill="none" stroke="#58a813" cx="760.74" cy="-269.438" rx="4" ry="4"/>
<polygon fill="#58a813" stroke="#58a813" points="766.716,-257.106 757.12,-251.799 761.733,-256.695 756.75,-256.283 756.75,-256.283 756.75,-256.283 761.733,-256.695 756.38,-260.768 766.716,-257.106 766.716,-257.106"/>
</g>
<!-- OldSound&#45;&gt;Translation -->
<g id="edge73" class="edge"><title>OldSound&#45;&gt;Translation</title>
<path fill="none" stroke="#eca68f" d="M716.709,-236.665C717.762,-226.835 718.971,-215.552 720.046,-205.523"/>
<ellipse fill="none" stroke="#eca68f" cx="716.242" cy="-241.024" rx="4" ry="4"/>
<polygon fill="#eca68f" stroke="#eca68f" points="720.08,-205.205 725.62,-195.741 720.613,-200.233 721.145,-195.262 721.145,-195.262 721.145,-195.262 720.613,-200.233 716.671,-194.782 720.08,-205.205 720.08,-205.205"/>
</g>
<!-- OldVideo&#45;&gt;Association -->
<g id="edge78" class="edge"><title>OldVideo&#45;&gt;Association</title>
<path fill="none" stroke="#db8ae0" d="M968.746,-260.759C1015.38,-258.052 1084.43,-250.049 1139.99,-227 1155.24,-220.674 1170.26,-210.197 1182.2,-200.551"/>
<ellipse fill="none" stroke="#db8ae0" cx="964.591" cy="-260.979" rx="4" ry="4"/>
<polygon fill="#db8ae0" stroke="#db8ae0" points="1182.28,-200.489 1192.83,-197.517 1186.11,-197.278 1189.94,-194.067 1189.94,-194.067 1189.94,-194.067 1186.11,-197.278 1187.05,-190.618 1182.28,-200.489 1182.28,-200.489"/>
</g>
<!-- OldVideo&#45;&gt;Attribution -->
<g id="edge81" class="edge"><title>OldVideo&#45;&gt;Attribution</title>
<path fill="none" stroke="#aede6c" d="M933.922,-238.833C942.665,-227.534 953.183,-213.941 962.057,-202.473"/>
<ellipse fill="none" stroke="#aede6c" cx="931.285" cy="-242.241" rx="4.00002" ry="4.00002"/>
<polygon fill="#aede6c" stroke="#aede6c" points="962.06,-202.47 971.739,-197.315 965.12,-198.516 968.18,-194.561 968.18,-194.561 968.18,-194.561 965.12,-198.516 964.621,-191.807 962.06,-202.47 962.06,-202.47"/>
</g>
<!-- OldVideo&#45;&gt;LiteratureReference -->
<g id="edge80" class="edge"><title>OldVideo&#45;&gt;LiteratureReference</title>
<path fill="none" stroke="#82fb82" d="M914.742,-236.637C912.468,-190.573 907.677,-93.5607 905.337,-46.1876"/>
<ellipse fill="none" stroke="#82fb82" cx="914.954" cy="-240.918" rx="4" ry="4"/>
<polygon fill="#82fb82" stroke="#82fb82" points="905.331,-46.0562 909.332,-35.8464 905.084,-41.0623 904.838,-36.0684 904.838,-36.0684 904.838,-36.0684 905.084,-41.0623 900.343,-36.2904 905.331,-46.0562 905.331,-46.0562"/>
</g>
<!-- OldVideo&#45;&gt;Translation -->
<g id="edge79" class="edge"><title>OldVideo&#45;&gt;Translation</title>
<path fill="none" stroke="#3c4680" d="M882.972,-244.344C864.169,-234.582 840.035,-222.535 817.995,-213 801.83,-206.007 783.765,-199.126 767.764,-193.341"/>
<ellipse fill="none" stroke="#3c4680" cx="886.616" cy="-246.248" rx="4.00002" ry="4.00002"/>
<polygon fill="#3c4680" stroke="#3c4680" points="767.52,-193.253 759.617,-185.651 762.811,-191.571 758.103,-189.889 758.103,-189.889 758.103,-189.889 762.811,-191.571 756.589,-194.127 767.52,-193.253 767.52,-193.253"/>
</g>
<!-- Partner -->
<g id="node20" class="node"><title>Partner</title>
<ellipse fill="none" stroke="black" cx="2239.99" cy="-409" rx="35.7887" ry="18"/>
<text text-anchor="middle" x="2239.99" y="-404.8" font-family="Times,serif" font-size="14.00">Partner</text>
</g>
<!-- Partner&#45;&gt;Dataset -->
<g id="edge83" class="edge"><title>Partner&#45;&gt;Dataset</title>
<path fill="none" stroke="#64aef8" d="M2235.73,-382.791C2234.7,-376.683 2233.59,-370.13 2232.55,-363.946"/>
<ellipse fill="none" stroke="#64aef8" cx="2236.42" cy="-386.869" rx="4.00001" ry="4.00001"/>
<polygon fill="#64aef8" stroke="#64aef8" points="2232.54,-363.889 2235.31,-353.279 2231.71,-358.959 2230.87,-354.029 2230.87,-354.029 2230.87,-354.029 2231.71,-358.959 2226.44,-354.779 2232.54,-363.889 2232.54,-363.889"/>
</g>
<!-- Publication -->
<g id="node21" class="node"><title>Publication</title>
<ellipse fill="none" stroke="black" cx="78.9948" cy="-517" rx="50.281" ry="18"/>
<text text-anchor="middle" x="78.9948" y="-512.8" font-family="Times,serif" font-size="14.00">Publication</text>
</g>
<!-- Publication&#45;&gt;Appearance -->
<g id="edge85" class="edge"><title>Publication&#45;&gt;Appearance</title>
<path fill="none" stroke="#4dcaf4" d="M79.7082,-490.795C80.1627,-474.735 80.7516,-453.927 81.218,-437.45"/>
<ellipse fill="none" stroke="#4dcaf4" cx="79.5901" cy="-494.971" rx="4" ry="4"/>
<polygon fill="#4dcaf4" stroke="#4dcaf4" points="81.2211,-437.337 86.0023,-427.468 81.3626,-432.339 81.5041,-427.341 81.5041,-427.341 81.5041,-427.341 81.3626,-432.339 77.0059,-427.213 81.2211,-437.337 81.2211,-437.337"/>
</g>
<!-- Role -->
<g id="node22" class="node"><title>Role</title>
<ellipse fill="none" stroke="black" cx="1489.99" cy="-463" rx="27" ry="18"/>
<text text-anchor="middle" x="1489.99" y="-458.8" font-family="Times,serif" font-size="14.00">Role</text>
</g>
<!-- Role&#45;&gt;Attribution -->
<g id="edge87" class="edge"><title>Role&#45;&gt;Attribution</title>
<path fill="none" stroke="#d09946" d="M1491.73,-436.778C1492.81,-418.967 1493.99,-394.533 1493.99,-373 1493.99,-373 1493.99,-373 1493.99,-262 1493.99,-239.076 1170.77,-199.619 1037.45,-184.319"/>
<ellipse fill="none" stroke="#d09946" cx="1491.47" cy="-440.956" rx="4" ry="4"/>
<polygon fill="#d09946" stroke="#d09946" points="1037.36,-184.309 1027.94,-178.702 1032.39,-183.741 1027.42,-183.173 1027.42,-183.173 1027.42,-183.173 1032.39,-183.741 1026.91,-187.644 1037.36,-184.309 1037.36,-184.309"/>
</g>
<!-- Section&#45;&gt;ArticleSection -->
<g id="edge94" class="edge"><title>Section&#45;&gt;ArticleSection</title>
<path fill="none" stroke="#eb5574" d="M1762.71,-241.347C1757.7,-236.772 1752.56,-231.841 1747.99,-227 1740.91,-219.484 1733.71,-210.798 1727.46,-202.846"/>
<ellipse fill="none" stroke="#eb5574" cx="1765.96" cy="-244.251" rx="4.00002" ry="4.00002"/>
<polygon fill="#eb5574" stroke="#eb5574" points="1727.44,-202.822 1724.9,-192.156 1724.39,-198.863 1721.34,-194.904 1721.34,-194.904 1721.34,-194.904 1724.39,-198.863 1717.77,-197.653 1727.44,-202.822 1727.44,-202.822"/>
</g>
<!-- Section&#45;&gt;Section -->
<g id="edge89" class="edge"><title>Section&#45;&gt;Section</title>
<path fill="none" stroke="#e8c41f" d="M1831.86,-264.98C1837.74,-264.641 1841.63,-263.981 1841.63,-263 1841.63,-262.128 1838.55,-261.51 1833.74,-261.145"/>
<ellipse fill="none" stroke="#e8c41f" cx="1827.5" cy="-265.115" rx="4" ry="4"/>
<polygon fill="#e8c41f" stroke="#e8c41f" points="1833.5,-261.136 1823.67,-256.264 1828.5,-260.948 1823.51,-260.761 1823.51,-260.761 1823.51,-260.761 1828.5,-260.948 1823.34,-265.258 1833.5,-261.136 1833.5,-261.136"/>
<text text-anchor="middle" x="1864.56" y="-258.8" font-family="Times,serif" font-size="14.00">children</text>
</g>
<!-- Section&#45;&gt;Section -->
<g id="edge91" class="edge"><title>Section&#45;&gt;Section</title>
<path fill="none" stroke="#292a9d" d="M1833.17,-267.329C1860.26,-268.028 1887.5,-266.585 1887.5,-263 1887.5,-259.415 1860.26,-257.972 1833.17,-258.671"/>
<polygon fill="#292a9d" stroke="#292a9d" points="1832.85,-267.317 1823.02,-262.459 1827.85,-267.137 1822.85,-266.956 1822.85,-266.956 1822.85,-266.956 1827.85,-267.137 1822.69,-271.453 1832.85,-267.317 1832.85,-267.317"/>
<polygon fill="#292a9d" stroke="#292a9d" points="1832.85,-258.683 1822.69,-254.547 1827.85,-258.863 1822.85,-259.044 1822.85,-259.044 1822.85,-259.044 1827.85,-258.863 1823.02,-263.541 1832.85,-258.683 1832.85,-258.683"/>
<text text-anchor="middle" x="1940.76" y="-258.8" font-family="Times,serif" font-size="14.00">self_and_ancestors</text>
</g>
<!-- Section&#45;&gt;Section -->
<g id="edge93" class="edge"><title>Section&#45;&gt;Section</title>
<path fill="none" stroke="#c214ad" d="M1832.72,-268.097C1895.23,-271.426 1994.01,-269.727 1994.01,-263 1994.01,-256.273 1895.23,-254.574 1832.72,-257.903"/>
<polygon fill="#c214ad" stroke="#c214ad" points="1832.63,-268.091 1822.91,-263.002 1827.64,-267.792 1822.65,-267.494 1822.65,-267.494 1822.65,-267.494 1827.64,-267.792 1822.38,-271.986 1832.63,-268.091 1832.63,-268.091"/>
<polygon fill="#c214ad" stroke="#c214ad" points="1832.63,-257.909 1822.38,-254.014 1827.64,-258.208 1822.65,-258.506 1822.65,-258.506 1822.65,-258.506 1827.64,-258.208 1822.91,-262.998 1832.63,-257.909 1832.63,-257.909"/>
<text text-anchor="middle" x="2055.05" y="-258.8" font-family="Times,serif" font-size="14.00">self_and_descendants</text>
</g>
<!-- Uri -->
<g id="node29" class="node"><title>Uri</title>
<ellipse fill="none" stroke="black" cx="2119.99" cy="-177" rx="27" ry="18"/>
<text text-anchor="middle" x="2119.99" y="-172.8" font-family="Times,serif" font-size="14.00">Uri</text>
</g>
<!-- Section&#45;&gt;Uri -->
<g id="edge96" class="edge"><title>Section&#45;&gt;Uri</title>
<path fill="none" stroke="#e19b23" d="M1833.25,-259.502C1901.31,-255.268 2024.71,-245.304 2064.99,-227 2078.41,-220.905 2090.89,-210.373 2100.56,-200.631"/>
<polygon fill="#e19b23" stroke="#e19b23" points="1833.21,-259.504 1822.95,-255.617 1828.22,-259.806 1823.22,-260.109 1823.22,-260.109 1823.22,-260.109 1828.22,-259.806 1823.5,-264.6 1833.21,-259.504 1833.21,-259.504"/>
<polygon fill="#e19b23" stroke="#e19b23" points="2100.81,-200.362 2110.95,-196.176 2104.24,-196.725 2107.67,-193.088 2107.67,-193.088 2107.67,-193.088 2104.24,-196.725 2104.4,-190 2100.81,-200.362 2100.81,-200.362"/>
</g>
<!-- UriSection -->
<g id="node30" class="node"><title>UriSection</title>
<ellipse fill="none" stroke="black" cx="2119.99" cy="-91" rx="48.3427" ry="18"/>
<text text-anchor="middle" x="2119.99" y="-86.8" font-family="Times,serif" font-size="14.00">UriSection</text>
</g>
<!-- Section&#45;&gt;UriSection -->
<g id="edge95" class="edge"><title>Section&#45;&gt;UriSection</title>
<path fill="none" stroke="#33cf0b" d="M1831.24,-259.479C1890.2,-255.437 1990.76,-245.954 2021.99,-227 2044.16,-213.554 2083.24,-152.906 2104.75,-117.641"/>
<ellipse fill="none" stroke="#33cf0b" cx="1827.2" cy="-259.748" rx="4" ry="4"/>
<polygon fill="#33cf0b" stroke="#33cf0b" points="2104.89,-117.404 2113.92,-111.176 2107.48,-113.125 2110.07,-108.847 2110.07,-108.847 2110.07,-108.847 2107.48,-113.125 2106.22,-106.518 2104.89,-117.404 2104.89,-117.404"/>
</g>
<!-- SectionHierarchy -->
<g id="node34" class="node"><title>SectionHierarchy</title>
<ellipse fill="none" stroke="black" cx="1890.99" cy="-177" rx="71.9704" ry="18"/>
<text text-anchor="middle" x="1890.99" y="-172.8" font-family="Times,serif" font-size="14.00">SectionHierarchy</text>
</g>
<!-- Section&#45;&gt;SectionHierarchy -->
<g id="edge90" class="edge"><title>Section&#45;&gt;SectionHierarchy</title>
<path fill="none" stroke="#858163" d="M1831.65,-260.222C1855.73,-256.701 1883.6,-247.94 1898.99,-227 1903.68,-220.626 1903.98,-212.524 1902.43,-204.753"/>
<ellipse fill="none" stroke="#858163" cx="1827.62" cy="-260.727" rx="4.00001" ry="4.00001"/>
<polygon fill="#858163" stroke="#858163" points="1902.36,-204.498 1903.87,-193.637 1900.95,-199.699 1899.55,-194.9 1899.55,-194.9 1899.55,-194.9 1900.95,-199.699 1895.23,-196.163 1902.36,-204.498 1902.36,-204.498"/>
<text text-anchor="middle" x="1960.52" y="-215.8" font-family="Times,serif" font-size="14.00">ancestor_hierarchies</text>
</g>
<!-- Section&#45;&gt;SectionHierarchy -->
<g id="edge92" class="edge"><title>Section&#45;&gt;SectionHierarchy</title>
<path fill="none" stroke="#0870a0" d="M1766.98,-239.97C1761.35,-231.1 1758.25,-221.079 1764.39,-213 1771.95,-203.068 1796.2,-195.23 1821.47,-189.512"/>
<ellipse fill="none" stroke="#0870a0" cx="1769.33" cy="-243.231" rx="4.00002" ry="4.00002"/>
<polygon fill="#0870a0" stroke="#0870a0" points="1821.78,-189.446 1832.5,-191.746 1826.67,-188.396 1831.56,-187.346 1831.56,-187.346 1831.56,-187.346 1826.67,-188.396 1830.61,-182.947 1821.78,-189.446 1821.78,-189.446"/>
<text text-anchor="middle" x="1829.3" y="-215.8" font-family="Times,serif" font-size="14.00">descendant_hierarchies</text>
</g>
<!-- Sound&#45;&gt;Association -->
<g id="edge98" class="edge"><title>Sound&#45;&gt;Association</title>
<path fill="none" stroke="#4214b0" d="M740.275,-315.224C768.07,-293.812 815.864,-260.632 862.995,-245 946.445,-217.323 973.941,-245.021 1059.99,-227 1096.31,-219.396 1136.16,-205.764 1165.19,-194.806"/>
<ellipse fill="none" stroke="#4214b0" cx="736.805" cy="-317.935" rx="4.00002" ry="4.00002"/>
<polygon fill="#4214b0" stroke="#4214b0" points="1165.27,-194.778 1176.21,-195.408 1169.94,-192.992 1174.61,-191.205 1174.61,-191.205 1174.61,-191.205 1169.94,-192.992 1173,-187.002 1165.27,-194.778 1165.27,-194.778"/>
</g>
<!-- Sound&#45;&gt;Attribution -->
<g id="edge101" class="edge"><title>Sound&#45;&gt;Attribution</title>
<path fill="none" stroke="#4b2b72" d="M690.066,-316.195C667.243,-297.36 640.327,-267.952 658.995,-245 691.55,-204.974 838.598,-188.071 922.274,-181.591"/>
<ellipse fill="none" stroke="#4b2b72" cx="693.227" cy="-318.717" rx="4.00002" ry="4.00002"/>
<polygon fill="#4b2b72" stroke="#4b2b72" points="922.428,-181.579 932.736,-185.321 927.414,-181.206 932.4,-180.833 932.4,-180.833 932.4,-180.833 927.414,-181.206 932.064,-176.346 922.428,-181.579 922.428,-181.579"/>
</g>
<!-- Sound&#45;&gt;LiteratureReference -->
<g id="edge100" class="edge"><title>Sound&#45;&gt;LiteratureReference</title>
<path fill="none" stroke="#998955" d="M677.089,-328.827C591.71,-315.236 395.294,-283.716 392.995,-281 382.656,-268.789 387.742,-260.113 392.995,-245 450.961,-78.2307 684.802,-34.3592 815.134,-22.9305"/>
<ellipse fill="none" stroke="#998955" cx="681.044" cy="-329.456" rx="4.00001" ry="4.00001"/>
<polygon fill="#998955" stroke="#998955" points="815.139,-22.9302 825.477,-26.5863 820.122,-22.516 825.105,-22.1018 825.105,-22.1018 825.105,-22.1018 820.122,-22.516 824.732,-17.6172 815.139,-22.9302 815.139,-22.9302"/>
</g>
<!-- Sound&#45;&gt;OldSound -->
<g id="edge102" class="edge"><title>Sound&#45;&gt;OldSound</title>
<path fill="none" stroke="#6e4050" d="M715.285,-309.791C715.117,-303.832 714.937,-297.45 714.767,-291.399"/>
<ellipse fill="none" stroke="#6e4050" cx="715.398" cy="-313.814" rx="4" ry="4"/>
<polygon fill="#6e4050" stroke="#6e4050" points="714.756,-291.025 718.973,-280.902 714.615,-286.027 714.475,-281.029 714.475,-281.029 714.475,-281.029 714.615,-286.027 709.976,-281.156 714.756,-291.025 714.756,-291.025"/>
</g>
<!-- Sound&#45;&gt;Translation -->
<g id="edge99" class="edge"><title>Sound&#45;&gt;Translation</title>
<path fill="none" stroke="#5faa62" d="M682.114,-322.057C677.732,-320.587 673.279,-319.191 668.995,-318 629.273,-306.957 604.167,-331.856 577.995,-300 541.35,-255.397 623.058,-214.623 678.093,-193.383"/>
<ellipse fill="none" stroke="#5faa62" cx="686.095" cy="-323.442" rx="4.00001" ry="4.00001"/>
<polygon fill="#5faa62" stroke="#5faa62" points="678.328,-193.294 689.272,-193.983 683.007,-191.533 687.687,-189.771 687.687,-189.771 687.687,-189.771 683.007,-191.533 686.101,-185.56 678.328,-193.294 678.328,-193.294"/>
</g>
<!-- Stylesheet -->
<g id="node25" class="node"><title>Stylesheet</title>
<ellipse fill="none" stroke="black" cx="743.995" cy="-409" rx="46.4132" ry="18"/>
<text text-anchor="middle" x="743.995" y="-404.8" font-family="Times,serif" font-size="14.00">Stylesheet</text>
</g>
<!-- Stylesheet&#45;&gt;Article -->
<g id="edge104" class="edge"><title>Stylesheet&#45;&gt;Article</title>
<path fill="none" stroke="#612428" d="M789.841,-396.692C798.506,-394.692 807.511,-392.707 815.995,-391 915.879,-370.908 1034.16,-352.559 1096.5,-343.306"/>
<ellipse fill="none" stroke="#612428" cx="785.899" cy="-397.614" rx="4.00001" ry="4.00001"/>
<polygon fill="#612428" stroke="#612428" points="1096.85,-343.254 1107.4,-346.244 1101.8,-342.523 1106.75,-341.793 1106.75,-341.793 1106.75,-341.793 1101.8,-342.523 1106.09,-337.341 1096.85,-343.254 1096.85,-343.254"/>
</g>
<!-- Stylesheet&#45;&gt;Map -->
<g id="edge105" class="edge"><title>Stylesheet&#45;&gt;Map</title>
<path fill="none" stroke="#77cce5" d="M692.107,-401.621C659.376,-396.45 616.694,-387.566 580.995,-373 570.155,-368.577 559.083,-362.114 549.616,-355.88"/>
<ellipse fill="none" stroke="#77cce5" cx="696.25" cy="-402.254" rx="4.00001" ry="4.00001"/>
<polygon fill="#77cce5" stroke="#77cce5" points="549.344,-355.694 543.632,-346.334 545.218,-352.871 541.091,-350.048 541.091,-350.048 541.091,-350.048 545.218,-352.871 538.55,-353.762 549.344,-355.694 549.344,-355.694"/>
</g>
<!-- Stylesheet&#45;&gt;OldArticle -->
<g id="edge108" class="edge"><title>Stylesheet&#45;&gt;OldArticle</title>
<path fill="none" stroke="#577d12" d="M691.641,-402.464C626.214,-394.625 519.044,-378.466 487.995,-354 468.596,-338.714 458.971,-311.698 454.277,-291.243"/>
<ellipse fill="none" stroke="#577d12" cx="695.825" cy="-402.956" rx="4.00001" ry="4.00001"/>
<polygon fill="#577d12" stroke="#577d12" points="454.236,-291.041 456.657,-280.345 453.241,-286.141 452.247,-281.24 452.247,-281.24 452.247,-281.24 453.241,-286.141 447.836,-282.136 454.236,-291.041 454.236,-291.041"/>
</g>
<!-- Stylesheet&#45;&gt;OldMap -->
<g id="edge109" class="edge"><title>Stylesheet&#45;&gt;OldMap</title>
<path fill="none" stroke="#cc5b3e" d="M690.772,-403.458C632.381,-397.219 536.635,-383.252 458.995,-354 402.39,-332.673 339.399,-301.445 301.774,-281.942"/>
<ellipse fill="none" stroke="#cc5b3e" cx="694.779" cy="-403.875" rx="4" ry="4"/>
<polygon fill="#cc5b3e" stroke="#cc5b3e" points="301.641,-281.873 294.855,-273.26 297.208,-279.562 292.774,-277.25 292.774,-277.25 292.774,-277.25 297.208,-279.562 290.694,-281.24 301.641,-281.873 301.641,-281.873"/>
</g>
<!-- Stylesheet&#45;&gt;OldSound -->
<g id="edge110" class="edge"><title>Stylesheet&#45;&gt;OldSound</title>
<path fill="none" stroke="#32956c" d="M708.873,-390.091C695.377,-381.22 681.433,-369.132 673.995,-354 663.137,-331.91 677.138,-306.205 691.474,-287.936"/>
<ellipse fill="none" stroke="#32956c" cx="712.458" cy="-392.322" rx="4.00002" ry="4.00002"/>
<polygon fill="#32956c" stroke="#32956c" points="691.597,-287.789 701.455,-282.985 694.797,-283.947 697.997,-280.105 697.997,-280.105 697.997,-280.105 694.797,-283.947 694.539,-277.225 691.597,-287.789 691.597,-287.789"/>
</g>
<!-- Stylesheet&#45;&gt;OldVideo -->
<g id="edge111" class="edge"><title>Stylesheet&#45;&gt;OldVideo</title>
<path fill="none" stroke="#542de6" d="M768.912,-387.139C801.099,-360.192 856.882,-313.49 889.718,-285.999"/>
<ellipse fill="none" stroke="#542de6" cx="765.796" cy="-389.748" rx="4.00002" ry="4.00002"/>
<polygon fill="#542de6" stroke="#542de6" points="889.876,-285.867 900.433,-282.898 893.71,-282.657 897.544,-279.447 897.544,-279.447 897.544,-279.447 893.71,-282.657 894.655,-275.997 889.876,-285.867 889.876,-285.867"/>
</g>
<!-- Stylesheet&#45;&gt;Sound -->
<g id="edge106" class="edge"><title>Stylesheet&#45;&gt;Sound</title>
<path fill="none" stroke="#b3c533" d="M734.375,-383.606C731.762,-376.982 728.924,-369.783 726.276,-363.07"/>
<ellipse fill="none" stroke="#b3c533" cx="735.892" cy="-387.453" rx="4.00001" ry="4.00001"/>
<polygon fill="#b3c533" stroke="#b3c533" points="726.252,-363.008 726.769,-352.054 724.417,-358.357 722.583,-353.705 722.583,-353.705 722.583,-353.705 724.417,-358.357 718.397,-355.356 726.252,-363.008 726.252,-363.008"/>
</g>
<!-- Stylesheet&#45;&gt;Video -->
<g id="edge107" class="edge"><title>Stylesheet&#45;&gt;Video</title>
<path fill="none" stroke="#8ab678" d="M787.385,-394.946C832.162,-381.475 901.242,-360.693 943.362,-348.021"/>
<ellipse fill="none" stroke="#8ab678" cx="783.412" cy="-396.141" rx="4.00001" ry="4.00001"/>
<polygon fill="#8ab678" stroke="#8ab678" points="943.37,-348.018 954.243,-349.447 948.158,-346.578 952.946,-345.137 952.946,-345.137 952.946,-345.137 948.158,-346.578 951.65,-340.828 943.37,-348.018 943.37,-348.018"/>
</g>
<!-- Synth -->
<g id="node26" class="node"><title>Synth</title>
<ellipse fill="none" stroke="black" cx="2234.99" cy="-517" rx="30.9967" ry="18"/>
<text text-anchor="middle" x="2234.99" y="-512.8" font-family="Times,serif" font-size="14.00">Synth</text>
</g>
<!-- Synth&#45;&gt;Association -->
<g id="edge113" class="edge"><title>Synth&#45;&gt;Association</title>
<path fill="none" stroke="#5cf411" d="M2208.94,-498.429C2170.17,-472.752 2094.51,-424.406 2025.99,-391 1903.96,-331.494 1864.86,-336.614 1740.99,-281 1680.79,-253.969 1672.4,-231.318 1608.99,-213 1546.82,-195.035 1364.98,-184.77 1268.61,-180.449"/>
<ellipse fill="none" stroke="#5cf411" cx="2212.41" cy="-500.736" rx="4.00002" ry="4.00002"/>
<polygon fill="#5cf411" stroke="#5cf411" points="1268.41,-180.44 1258.62,-175.504 1263.42,-180.22 1258.42,-180 1258.42,-180 1258.42,-180 1263.42,-180.22 1258.22,-184.496 1268.41,-180.44 1268.41,-180.44"/>
</g>
<!-- Synth&#45;&gt;Node -->
<g id="edge114" class="edge"><title>Synth&#45;&gt;Node</title>
<path fill="none" stroke="#0b225b" d="M2250.8,-493.125C2262.05,-475.747 2276.61,-450.847 2284.99,-427 2301.15,-381.049 2307.75,-324.342 2310.37,-291.365"/>
<ellipse fill="none" stroke="#0b225b" cx="2248.41" cy="-496.748" rx="4.00002" ry="4.00002"/>
<polygon fill="#0b225b" stroke="#0b225b" points="2310.38,-291.115 2315.6,-281.467 2310.75,-286.128 2311.11,-281.141 2311.11,-281.141 2311.11,-281.141 2310.75,-286.128 2306.62,-280.815 2310.38,-291.115 2310.38,-291.115"/>
</g>
<!-- Synth&#45;&gt;Partner -->
<g id="edge115" class="edge"><title>Synth&#45;&gt;Partner</title>
<path fill="none" stroke="#b35ca5" d="M2236.27,-488.931C2237.01,-473.187 2237.95,-453.393 2238.69,-437.566"/>
<polygon fill="#b35ca5" stroke="#b35ca5" points="2236.27,-488.98 2231.3,-498.757 2236.03,-493.975 2235.8,-498.969 2235.8,-498.969 2235.8,-498.969 2236.03,-493.975 2240.29,-499.181 2236.27,-488.98 2236.27,-488.98"/>
<polygon fill="#b35ca5" stroke="#b35ca5" points="2238.71,-437.33 2243.67,-427.553 2238.94,-432.335 2239.18,-427.341 2239.18,-427.341 2239.18,-427.341 2238.94,-432.335 2234.68,-427.129 2238.71,-437.33 2238.71,-437.33"/>
</g>
<!-- Trait&#45;&gt;Association -->
<g id="edge118" class="edge"><title>Trait&#45;&gt;Association</title>
<path fill="none" stroke="#7b3f56" d="M1213.21,-116.749C1213.87,-126.88 1213.92,-138.632 1213.35,-148.985"/>
<ellipse fill="none" stroke="#7b3f56" cx="1212.86" cy="-112.672" rx="4" ry="4"/>
<polygon fill="#7b3f56" stroke="#7b3f56" points="1213.34,-149.033 1208.06,-158.641 1212.94,-154.017 1212.54,-159.001 1212.54,-159.001 1212.54,-159.001 1212.94,-154.017 1217.03,-159.361 1213.34,-149.033 1213.34,-149.033"/>
</g>
<!-- Trait&#45;&gt;LiteratureReference -->
<g id="edge119" class="edge"><title>Trait&#45;&gt;LiteratureReference</title>
<path fill="none" stroke="#5c0288" d="M1178.04,-76.3788C1160.91,-68.8056 1138.59,-59.7727 1117.99,-54 1074.89,-41.9185 1025.65,-33.5088 985.279,-27.9666"/>
<ellipse fill="none" stroke="#5c0288" cx="1181.87" cy="-78.1001" rx="4.00002" ry="4.00002"/>
<polygon fill="#5c0288" stroke="#5c0288" points="985.127,-27.9464 975.813,-22.1587 980.171,-27.2826 975.215,-26.6189 975.215,-26.6189 975.215,-26.6189 980.171,-27.2826 974.618,-31.0791 985.127,-27.9464 985.127,-27.9464"/>
</g>
<!-- Trait&#45;&gt;Trait -->
<g id="edge117" class="edge"><title>Trait&#45;&gt;Trait</title>
<path fill="none" stroke="#5a708a" d="M1240.82,-97.4413C1247.36,-96.6847 1251.99,-94.5376 1251.99,-91 1251.99,-87.77 1248.13,-85.6992 1242.48,-84.7876"/>
<ellipse fill="none" stroke="#5a708a" cx="1236.44" cy="-97.5717" rx="4" ry="4"/>
<polygon fill="#5a708a" stroke="#5a708a" points="1242.43,-84.7851 1232.65,-79.8144 1237.43,-84.5472 1232.44,-84.3093 1232.44,-84.3093 1232.44,-84.3093 1237.43,-84.5472 1232.22,-88.8042 1242.43,-84.7851 1242.43,-84.7851"/>
</g>
<!-- Uri&#45;&gt;Uri -->
<g id="edge123" class="edge"><title>Uri&#45;&gt;Uri</title>
<path fill="none" stroke="#1847ab" d="M2155.05,-179.442C2160.93,-179.102 2164.99,-178.288 2164.99,-177 2164.99,-175.855 2161.78,-175.085 2156.94,-174.689"/>
<ellipse fill="none" stroke="#1847ab" cx="2150.79" cy="-179.533" rx="4" ry="4"/>
<polygon fill="#1847ab" stroke="#1847ab" points="2156.79,-174.684 2146.93,-169.883 2151.79,-174.532 2146.79,-174.381 2146.79,-174.381 2146.79,-174.381 2151.79,-174.532 2146.65,-178.879 2156.79,-174.684 2156.79,-174.684"/>
<text text-anchor="middle" x="2193.37" y="-172.8" font-family="Times,serif" font-size="14.00">predicates</text>
</g>
<!-- Uri&#45;&gt;Uri -->
<g id="edge124" class="edge"><title>Uri&#45;&gt;Uri</title>
<path fill="none" stroke="#b2fab3" d="M2155.08,-181.634C2185.36,-183.244 2221.74,-181.699 2221.74,-177 2221.74,-172.402 2186.89,-170.824 2157.03,-172.267"/>
<ellipse fill="none" stroke="#b2fab3" cx="2150.73" cy="-181.354" rx="4" ry="4"/>
<polygon fill="#b2fab3" stroke="#b2fab3" points="2156.72,-172.286 2146.46,-168.412 2151.73,-172.595 2146.74,-172.904 2146.74,-172.904 2146.74,-172.904 2151.73,-172.595 2147.02,-177.395 2156.72,-172.286 2156.72,-172.286"/>
<text text-anchor="middle" x="2241.57" y="-172.8" font-family="Times,serif" font-size="14.00">objects</text>
</g>
<!-- Uri&#45;&gt;Uri -->
<g id="edge125" class="edge"><title>Uri&#45;&gt;Uri</title>
<path fill="none" stroke="#233f36" d="M2154.04,-182.956C2197.59,-186.827 2261.4,-184.841 2261.4,-177 2261.4,-169.273 2199.44,-167.232 2155.95,-170.878"/>
<ellipse fill="none" stroke="#233f36" cx="2149.87" cy="-182.536" rx="4" ry="4"/>
<polygon fill="#233f36" stroke="#233f36" points="2155.85,-170.889 2145.45,-167.386 2150.87,-171.377 2145.89,-171.865 2145.89,-171.865 2145.89,-171.865 2150.87,-171.377 2146.33,-176.343 2155.85,-170.889 2155.85,-170.889"/>
<text text-anchor="middle" x="2300.28" y="-172.8" font-family="Times,serif" font-size="14.00">original_units</text>
</g>
<!-- Uri&#45;&gt;UriSection -->
<g id="edge126" class="edge"><title>Uri&#45;&gt;UriSection</title>
<path fill="none" stroke="#ed2f21" d="M2119.99,-150.257C2119.99,-140.441 2119.99,-129.226 2119.99,-119.273"/>
<ellipse fill="none" stroke="#ed2f21" cx="2119.99" cy="-154.595" rx="4" ry="4"/>
<polygon fill="#ed2f21" stroke="#ed2f21" points="2119.99,-119.095 2124.49,-109.095 2119.99,-114.095 2119.99,-109.095 2119.99,-109.095 2119.99,-109.095 2119.99,-114.095 2115.49,-109.095 2119.99,-119.095 2119.99,-119.095"/>
</g>
<!-- Uri::Translation -->
<g id="node35" class="node"><title>Uri::Translation</title>
<ellipse fill="none" stroke="black" cx="1946.99" cy="-91" rx="66.5558" ry="18"/>
<text text-anchor="middle" x="1946.99" y="-86.8" font-family="Times,serif" font-size="14.00">Uri::Translation</text>
</g>
<!-- Uri&#45;&gt;Uri::Translation -->
<g id="edge122" class="edge"><title>Uri&#45;&gt;Uri::Translation</title>
<path fill="none" stroke="#230681" d="M2091.25,-162.045C2062.8,-148.227 2018.98,-126.952 1987.1,-111.474"/>
<ellipse fill="none" stroke="#230681" cx="2095.18" cy="-163.953" rx="4.00002" ry="4.00002"/>
<polygon fill="#230681" stroke="#230681" points="1987.03,-111.44 1980,-103.024 1982.53,-109.256 1978.04,-107.072 1978.04,-107.072 1978.04,-107.072 1982.53,-109.256 1976.07,-111.12 1987.03,-111.44 1987.03,-111.44"/>
<text text-anchor="middle" x="2075.27" y="-129.8" font-family="Times,serif" font-size="14.00">translations</text>
</g>
<!-- Video&#45;&gt;Association -->
<g id="edge129" class="edge"><title>Video&#45;&gt;Association</title>
<path fill="none" stroke="#b73fb6" d="M1016.08,-325.478C1035.2,-319.616 1058.66,-311.086 1077.99,-300 1122.59,-274.434 1163.82,-230.412 1187.15,-202.824"/>
<ellipse fill="none" stroke="#b73fb6" cx="1012.01" cy="-326.688" rx="4.00001" ry="4.00001"/>
<polygon fill="#b73fb6" stroke="#b73fb6" points="1187.4,-202.517 1197.26,-197.706 1190.6,-198.673 1193.8,-194.828 1193.8,-194.828 1193.8,-194.828 1190.6,-198.673 1190.34,-191.951 1187.4,-202.517 1187.4,-202.517"/>
</g>
<!-- Video&#45;&gt;Attribution -->
<g id="edge132" class="edge"><title>Video&#45;&gt;Attribution</title>
<path fill="none" stroke="#3879ca" d="M980.155,-309.852C980.338,-281.193 980.635,-234.523 980.822,-205.082"/>
<ellipse fill="none" stroke="#3879ca" cx="980.129" cy="-313.899" rx="4" ry="4"/>
<polygon fill="#3879ca" stroke="#3879ca" points="980.822,-205.079 985.386,-195.108 980.854,-200.079 980.886,-195.08 980.886,-195.08 980.886,-195.08 980.854,-200.079 976.386,-195.051 980.822,-205.079 980.822,-205.079"/>
</g>
<!-- Video&#45;&gt;LiteratureReference -->
<g id="edge131" class="edge"><title>Video&#45;&gt;LiteratureReference</title>
<path fill="none" stroke="#bbf11f" d="M997.794,-312.526C1022.24,-278.76 1060.84,-213.126 1038.99,-159 1018.58,-108.413 970.162,-65.9166 937.219,-41.447"/>
<ellipse fill="none" stroke="#bbf11f" cx="995.201" cy="-316.02" rx="4.00002" ry="4.00002"/>
<polygon fill="#bbf11f" stroke="#bbf11f" points="936.882,-41.2017 931.434,-31.6847 932.836,-38.2638 928.79,-35.326 928.79,-35.326 928.79,-35.326 932.836,-38.2638 926.146,-38.9673 936.882,-41.2017 936.882,-41.2017"/>
</g>
<!-- Video&#45;&gt;OldVideo -->
<g id="edge133" class="edge"><title>Video&#45;&gt;OldVideo</title>
<path fill="none" stroke="#7f0718" d="M960.652,-313.542C953.313,-305.4 944.915,-296.083 937.397,-287.743"/>
<ellipse fill="none" stroke="#7f0718" cx="963.43" cy="-316.623" rx="4.00002" ry="4.00002"/>
<polygon fill="#7f0718" stroke="#7f0718" points="937.217,-287.543 933.864,-277.102 933.869,-283.829 930.521,-280.115 930.521,-280.115 930.521,-280.115 933.869,-283.829 927.179,-283.128 937.217,-287.543 937.217,-287.543"/>
</g>
<!-- Video&#45;&gt;Translation -->
<g id="edge130" class="edge"><title>Video&#45;&gt;Translation</title>
<path fill="none" stroke="#126a5f" d="M947.16,-321.95C923.202,-311.93 890.286,-297.114 862.995,-281 821.551,-256.53 777.404,-222.569 750.01,-200.442"/>
<ellipse fill="none" stroke="#126a5f" cx="950.909" cy="-323.501" rx="4.00002" ry="4.00002"/>
<polygon fill="#126a5f" stroke="#126a5f" points="749.824,-200.291 744.908,-190.488 745.946,-197.135 742.068,-193.979 742.068,-193.979 742.068,-193.979 745.946,-197.135 739.227,-197.469 749.824,-200.291 749.824,-200.291"/>
</g>
<!-- ActiveRecord::Base -->
<g id="node32" class="node"><title>ActiveRecord::Base</title>
<ellipse fill="none" stroke="black" cx="1222.99" cy="-608.5" rx="81.1422" ry="18"/>
<text text-anchor="middle" x="1222.99" y="-604.3" font-family="Times,serif" font-size="14.00">ActiveRecord::Base</text>
</g>
<!-- ActiveRecord::Base&#45;&gt;Appearance -->
<g id="edge1" class="edge"><title>ActiveRecord::Base&#45;&gt;Appearance</title>
<path fill="none" stroke="black" d="M1191.35,-591.818C1174.47,-584.285 1153.09,-576.033 1132.99,-572 941.878,-533.634 449.359,-578.661 255.995,-554 219.744,-549.377 206.955,-554.416 175.995,-535 153.912,-521.151 112.078,-457.763 92.5417,-426.935"/>
</g>
<!-- ActiveRecord::Base&#45;&gt;Article -->
<g id="edge9" class="edge"><title>ActiveRecord::Base&#45;&gt;Article</title>
<path fill="none" stroke="black" d="M1222.93,-590.326C1222.18,-552.502 1216.95,-459.893 1184.99,-391 1178.11,-376.165 1166.11,-362.065 1156.23,-351.995"/>
</g>
<!-- ActiveRecord::Base&#45;&gt;ArticleSection -->
<g id="edge10" class="edge"><title>ActiveRecord::Base&#45;&gt;ArticleSection</title>
<path fill="none" stroke="black" d="M1298.24,-601.669C1437.64,-589.847 1721.99,-560.522 1721.99,-518 1721.99,-518 1721.99,-518 1721.99,-299 1721.99,-261.815 1715.85,-218.568 1712.01,-195.17"/>
</g>
<!-- ActiveRecord::Base&#45;&gt;Association -->
<g id="edge12" class="edge"><title>ActiveRecord::Base&#45;&gt;Association</title>
<path fill="none" stroke="black" d="M1304.05,-606.646C1426.88,-603.125 1645.99,-587.152 1645.99,-518 1645.99,-518 1645.99,-518 1645.99,-299 1645.99,-236.24 1592.26,-236.321 1533.99,-213 1485.16,-193.454 1337.23,-183.914 1258.15,-180.101"/>
</g>
<!-- ActiveRecord::Base&#45;&gt;Attribution -->
<g id="edge13" class="edge"><title>ActiveRecord::Base&#45;&gt;Attribution</title>
<path fill="none" stroke="black" d="M1297.01,-600.879C1388.42,-590.612 1531.99,-566.73 1531.99,-518 1531.99,-518 1531.99,-518 1531.99,-299 1531.99,-272.736 1528.69,-261.171 1507.99,-245 1444.01,-194.998 1226.79,-203.202 1145.99,-195 1106.17,-190.957 1060.95,-186.293 1027.93,-182.874"/>
</g>
<!-- ActiveRecord::Base&#45;&gt;Dataset -->
<g id="edge15" class="edge"><title>ActiveRecord::Base&#45;&gt;Dataset</title>
<path fill="none" stroke="black" d="M1304.57,-608.183C1519.13,-609.236 2087.22,-606.938 2151.99,-554 2210.01,-506.587 2165.6,-459.914 2194.99,-391 2200.69,-377.66 2209.28,-363.72 2216.27,-353.346"/>
</g>
<!-- ActiveRecord::Base&#45;&gt;Image -->
<g id="edge21" class="edge"><title>ActiveRecord::Base&#45;&gt;Image</title>
<path fill="none" stroke="black" d="M1224.21,-590.168C1227.64,-541.31 1237.37,-402.869 1240.79,-354.188"/>
</g>
<!-- ActiveRecord::Base&#45;&gt;Javascript -->
<g id="edge30" class="edge"><title>ActiveRecord::Base&#45;&gt;Javascript</title>
<path fill="none" stroke="black" d="M1189.97,-591.834C1173.26,-584.596 1152.45,-576.601 1132.99,-572 1089.14,-561.625 967.424,-580.532 930.995,-554 889.077,-523.47 875.752,-458.338 871.688,-427.231"/>
</g>
<!-- ActiveRecord::Base&#45;&gt;License -->
<g id="edge37" class="edge"><title>ActiveRecord::Base&#45;&gt;License</title>
<path fill="none" stroke="black" d="M1211.36,-590.662C1204.57,-580.374 1196.16,-566.777 1189.99,-554 1168.62,-509.714 1150.98,-454.234 1142.84,-426.866"/>
</g>
<!-- ActiveRecord::Base&#45;&gt;LiteratureReference -->
<g id="edge38" class="edge"><title>ActiveRecord::Base&#45;&gt;LiteratureReference</title>
<path fill="none" stroke="black" d="M1304.02,-606.85C1612.47,-603.852 2695.99,-588.315 2695.99,-518 2695.99,-518 2695.99,-518 2695.99,-90 2695.99,-46.5562 1333.17,-24.8885 984.475,-20.0557"/>
</g>
<!-- ActiveRecord::Base&#45;&gt;Map -->
<g id="edge44" class="edge"><title>ActiveRecord::Base&#45;&gt;Map</title>
<path fill="none" stroke="black" d="M1190.42,-591.868C1173.65,-584.544 1152.65,-576.465 1132.99,-572 966.66,-534.216 905.914,-606.378 750.995,-535 653.865,-490.248 567.061,-390.645 536.066,-352.382"/>
</g>
<!-- ActiveRecord::Base&#45;&gt;Name -->
<g id="edge48" class="edge"><title>ActiveRecord::Base&#45;&gt;Name</title>
<path fill="none" stroke="black" d="M1191.35,-591.819C1174.47,-584.286 1153.09,-576.034 1132.99,-572 1037.98,-552.921 352.106,-587.02 260.995,-554 249.331,-549.773 238.409,-541.195 230.246,-533.472"/>
</g>
<!-- ActiveRecord::Base&#45;&gt;Node -->
<g id="edge55" class="edge"><title>ActiveRecord::Base&#45;&gt;Node</title>
<path fill="none" stroke="black" d="M1303.25,-605.316C1507.76,-599.409 2044.76,-581.678 2220.99,-554 2279.8,-544.765 2349.99,-577.524 2349.99,-518 2349.99,-518 2349.99,-518 2349.99,-335 2349.99,-313.749 2336.6,-292.703 2325.71,-279.111"/>
</g>
<!-- ActiveRecord::Base&#45;&gt;OldArticle -->
<g id="edge60" class="edge"><title>ActiveRecord::Base&#45;&gt;OldArticle</title>
<path fill="none" stroke="black" d="M1190.87,-591.903C1174.05,-584.491 1152.85,-576.324 1132.99,-572 1047.89,-553.471 350.995,-605.096 350.995,-518 350.995,-518 350.995,-518 350.995,-335 350.995,-303.486 384.532,-284.604 412.567,-274.326"/>
</g>
<!-- ActiveRecord::Base&#45;&gt;OldImage -->
<g id="edge66" class="edge"><title>ActiveRecord::Base&#45;&gt;OldImage</title>
<path fill="none" stroke="black" d="M1282.11,-596.083C1348.77,-581.476 1447.99,-553.734 1447.99,-518 1447.99,-518 1447.99,-518 1447.99,-335 1447.99,-306.746 1419.88,-287.329 1396.37,-276.034"/>
</g>
<!-- ActiveRecord::Base&#45;&gt;OldMap -->
<g id="edge71" class="edge"><title>ActiveRecord::Base&#45;&gt;OldMap</title>
<path fill="none" stroke="black" d="M1191.34,-591.854C1174.46,-584.331 1153.08,-576.077 1132.99,-572 975.71,-540.065 569.877,-576.69 410.995,-554 349.097,-545.16 274.995,-580.526 274.995,-518 274.995,-518 274.995,-518 274.995,-335 274.995,-316.545 272.624,-295.52 270.641,-281.17"/>
</g>
<!-- ActiveRecord::Base&#45;&gt;OldSound -->
<g id="edge77" class="edge"><title>ActiveRecord::Base&#45;&gt;OldSound</title>
<path fill="none" stroke="black" d="M1188.97,-592.062C1172.38,-585.057 1151.95,-577.195 1132.99,-572 1084.37,-558.672 1068.62,-570.55 1020.99,-554 1004.64,-548.317 998.626,-547.82 986.995,-535 940.056,-483.263 970.039,-443.535 923.995,-391 873.726,-333.645 791.085,-294.406 745.918,-275.99"/>
</g>
<!-- ActiveRecord::Base&#45;&gt;OldVideo -->
<g id="edge82" class="edge"><title>ActiveRecord::Base&#45;&gt;OldVideo</title>
<path fill="none" stroke="black" d="M1187.52,-592.182C1134.05,-568.832 1038.99,-526.17 1038.99,-518 1038.99,-518 1038.99,-518 1038.99,-335 1038.99,-314.042 984.754,-289.609 948.312,-275.559"/>
</g>
<!-- ActiveRecord::Base&#45;&gt;Partner -->
<g id="edge84" class="edge"><title>ActiveRecord::Base&#45;&gt;Partner</title>
<path fill="none" stroke="black" d="M1303.36,-605.262C1505.5,-599.288 2031.24,-581.522 2203.99,-554 2236.25,-548.861 2255.1,-560.912 2274.99,-535 2300.38,-501.928 2270.8,-451.376 2252.44,-425.88"/>
</g>
<!-- ActiveRecord::Base&#45;&gt;Publication -->
<g id="edge86" class="edge"><title>ActiveRecord::Base&#45;&gt;Publication</title>
<path fill="none" stroke="black" d="M1191.35,-591.799C1174.47,-584.26 1153.09,-576.01 1132.99,-572 1025.1,-550.472 249.164,-582.845 142.995,-554 127.74,-549.855 112.248,-541.28 100.327,-533.538"/>
</g>
<!-- ActiveRecord::Base&#45;&gt;Role -->
<g id="edge88" class="edge"><title>ActiveRecord::Base&#45;&gt;Role</title>
<path fill="none" stroke="black" d="M1293.63,-599.557C1354.99,-591.284 1437.73,-576.37 1461.99,-554 1482.45,-535.146 1488.09,-501.644 1489.56,-481.263"/>
</g>
<!-- ActiveRecord::Base&#45;&gt;Section -->
<g id="edge97" class="edge"><title>ActiveRecord::Base&#45;&gt;Section</title>
<path fill="none" stroke="black" d="M1302.6,-604.757C1426.63,-599.556 1659.69,-585.795 1735.99,-554 1759.32,-544.281 1779.99,-543.267 1779.99,-518 1779.99,-518 1779.99,-518 1779.99,-335 1779.99,-316.545 1782.37,-295.52 1784.35,-281.17"/>
</g>
<!-- ActiveRecord::Base&#45;&gt;Sound -->
<g id="edge103" class="edge"><title>ActiveRecord::Base&#45;&gt;Sound</title>
<path fill="none" stroke="black" d="M1190.4,-591.969C1173.62,-584.671 1152.62,-576.584 1132.99,-572 1003.46,-541.749 956.794,-590.696 835.995,-535 762.373,-501.055 725.608,-499.332 688.995,-427 676.618,-402.548 692.114,-371.43 704.229,-352.925"/>
</g>
<!-- ActiveRecord::Base&#45;&gt;Stylesheet -->
<g id="edge112" class="edge"><title>ActiveRecord::Base&#45;&gt;Stylesheet</title>
<path fill="none" stroke="black" d="M1190.39,-592.002C1173.61,-584.712 1152.61,-576.623 1132.99,-572 1025.38,-546.64 979.423,-595.674 886.995,-535 836.274,-501.705 784.59,-451.696 759.53,-426.2"/>
</g>
<!-- ActiveRecord::Base&#45;&gt;Synth -->
<g id="edge116" class="edge"><title>ActiveRecord::Base&#45;&gt;Synth</title>
<path fill="none" stroke="black" d="M1303.62,-605.854C1521,-601.022 2108.32,-585.209 2189.99,-554 2201.58,-549.572 2212.5,-540.987 2220.68,-533.311"/>
</g>
<!-- ActiveRecord::Base&#45;&gt;Trait -->
<g id="edge120" class="edge"><title>ActiveRecord::Base&#45;&gt;Trait</title>
<path fill="none" stroke="black" d="M1304.42,-607.548C1409.29,-605.735 1596.34,-596.123 1749.99,-554 1857.29,-524.586 1727.22,-535.915 2084.99,-318 2116.74,-298.665 2140.37,-312.565 2159.99,-281 2168.44,-267.412 2168.64,-258.463 2159.99,-245 2135.17,-206.344 2016.41,-170.73 1971.99,-159 1827.95,-120.959 1352.33,-98.2729 1233.89,-93.126"/>
</g>
<!-- ActiveRecord::Base&#45;&gt;Translation -->
<g id="edge121" class="edge"><title>ActiveRecord::Base&#45;&gt;Translation</title>
<path fill="none" stroke="black" d="M1191.35,-591.798C1174.47,-584.259 1153.09,-576.009 1132.99,-572 1072.32,-559.897 60.1142,-582.096 19.9948,-535 6.65795,-519.344 -17.5361,-472.049 20.9948,-391 42.8132,-345.106 152.048,-268.709 196.995,-245 242.785,-220.846 258.074,-222.336 308.995,-213 439.009,-189.164 595.023,-181.519 673.195,-179.098"/>
</g>
<!-- ActiveRecord::Base&#45;&gt;Uri -->
<g id="edge127" class="edge"><title>ActiveRecord::Base&#45;&gt;Uri</title>
<path fill="none" stroke="black" d="M1304.42,-607.548C1409.29,-605.735 1596.34,-596.123 1749.99,-554 1769.36,-548.69 1773.36,-544.606 1790.99,-535 1814.19,-522.364 2180.25,-304.137 2192.99,-281 2212.35,-245.871 2166.73,-208.332 2139.14,-189.78"/>
</g>
<!-- ActiveRecord::Base&#45;&gt;UriSection -->
<g id="edge128" class="edge"><title>ActiveRecord::Base&#45;&gt;UriSection</title>
<path fill="none" stroke="black" d="M1302.69,-604.483C1409,-599.357 1602.68,-586.168 1764.99,-554 2024.59,-502.552 2054.91,-393.459 2273.99,-245 2296.77,-229.564 2301.98,-224.464 2326.99,-213 2350.38,-202.284 2366.9,-215.824 2381.99,-195 2437.72,-118.133 2258.03,-98.6144 2168.1,-93.6704"/>
</g>
<!-- ActiveRecord::Base&#45;&gt;Video -->
<g id="edge134" class="edge"><title>ActiveRecord::Base&#45;&gt;Video</title>
<path fill="none" stroke="black" d="M1188.96,-592.111C1172.36,-585.116 1151.93,-577.25 1132.99,-572 1086.1,-559 1060.07,-587.726 1024.99,-554 968.691,-499.868 973.386,-395.137 977.743,-354.091"/>
</g>
</g>
</svg>
