<?xml version="1.0" encoding="UTF-8" standalone="no"?>
<!DOCTYPE svg PUBLIC "-//W3C//DTD SVG 1.1//EN"
 "http://www.w3.org/Graphics/SVG/1.1/DTD/svg11.dtd">
<!-- Generated by graphviz version 2.38.0 (20140413.2041)
 -->
<!-- Title: models_diagram Pages: 1 -->
<svg width="2262pt" height="739pt"
 viewBox="0.00 0.00 2262.00 739.00" xmlns="http://www.w3.org/2000/svg" xmlns:xlink="http://www.w3.org/1999/xlink">
<g id="graph0" class="graph" transform="scale(1 1) rotate(0) translate(4 735)">
<title>models_diagram</title>
<polygon fill="white" stroke="none" points="-4,4 -4,-735 2258,-735 2258,4 -4,4"/>
<!-- _diagram_info -->
<g id="node1" class="node"><title>_diagram_info</title>
<text text-anchor="start" x="626.312" y="-716.6" font-family="Times,serif" font-size="13.00">Models diagram</text>
<text text-anchor="start" x="626.312" y="-703.6" font-family="Times,serif" font-size="13.00">Date: Oct 13 2014 &#45; 15:09</text>
<text text-anchor="start" x="626.312" y="-690.6" font-family="Times,serif" font-size="13.00">Migration version: 20141013190813</text>
<text text-anchor="start" x="626.312" y="-677.6" font-family="Times,serif" font-size="13.00">Generated by RailRoady 1.1.2</text>
<text text-anchor="start" x="626.312" y="-664.6" font-family="Times,serif" font-size="13.00">http://railroady.prestonlee.com</text>
</g>
<!-- Appearance -->
<g id="node2" class="node"><title>Appearance</title>
<ellipse fill="none" stroke="black" cx="187" cy="-495" rx="52.1589" ry="18"/>
<text text-anchor="middle" x="187" y="-490.8" font-family="Times,serif" font-size="14.00">Appearance</text>
</g>
<!-- Article -->
<g id="node3" class="node"><title>Article</title>
<ellipse fill="none" stroke="black" cx="427" cy="-422" rx="34.8198" ry="18"/>
<text text-anchor="middle" x="427" y="-417.8" font-family="Times,serif" font-size="14.00">Article</text>
</g>
<!-- Association -->
<g id="node4" class="node"><title>Association</title>
<ellipse fill="none" stroke="black" cx="1371" cy="-336" rx="51.726" ry="18"/>
<text text-anchor="middle" x="1371" y="-331.8" font-family="Times,serif" font-size="14.00">Association</text>
</g>
<!-- Article&#45;&gt;Association -->
<g id="edge2" class="edge"><title>Article&#45;&gt;Association</title>
<path fill="none" stroke="#733334" d="M465.372,-411.625C479.057,-408.66 494.639,-405.712 509,-404 629.987,-389.58 938.892,-415.937 1057,-386 1070.49,-382.582 1071.68,-376.015 1085,-372 1160,-349.397 1250.26,-341.35 1309.05,-338.509"/>
<ellipse fill="none" stroke="#733334" cx="461.461" cy="-412.495" rx="4.00001" ry="4.00001"/>
<polygon fill="#733334" stroke="#733334" points="1309.3,-338.498 1319.49,-342.547 1314.29,-338.275 1319.29,-338.052 1319.29,-338.052 1319.29,-338.052 1314.29,-338.275 1319.09,-333.556 1309.3,-338.498 1309.3,-338.498"/>
</g>
<!-- CollectionAttribution -->
<g id="node5" class="node"><title>CollectionAttribution</title>
<ellipse fill="none" stroke="black" cx="495" cy="-336" rx="86.0051" ry="18"/>
<text text-anchor="middle" x="495" y="-331.8" font-family="Times,serif" font-size="14.00">CollectionAttribution</text>
</g>
<!-- Article&#45;&gt;CollectionAttribution -->
<g id="edge5" class="edge"><title>Article&#45;&gt;CollectionAttribution</title>
<path fill="none" stroke="#e2fe0c" d="M425.116,-395.659C425.632,-387.546 427.46,-378.889 432,-372 435.615,-366.515 440.396,-361.808 445.714,-357.79"/>
<ellipse fill="none" stroke="#e2fe0c" cx="425.055" cy="-399.82" rx="4" ry="4"/>
<polygon fill="#e2fe0c" stroke="#e2fe0c" points="446.081,-357.548 456.904,-355.784 450.252,-354.789 454.422,-352.031 454.422,-352.031 454.422,-352.031 450.252,-354.789 451.94,-348.278 446.081,-357.548 446.081,-357.548"/>
</g>
<!-- LiteratureReference -->
<g id="node11" class="node"><title>LiteratureReference</title>
<ellipse fill="none" stroke="black" cx="690" cy="-336" rx="80.6059" ry="18"/>
<text text-anchor="middle" x="690" y="-331.8" font-family="Times,serif" font-size="14.00">LiteratureReference</text>
</g>
<!-- Article&#45;&gt;LiteratureReference -->
<g id="edge3" class="edge"><title>Article&#45;&gt;LiteratureReference</title>
<path fill="none" stroke="#4ca3e2" d="M463.544,-409.328C508.301,-395.033 584.501,-370.695 636.017,-354.242"/>
<ellipse fill="none" stroke="#4ca3e2" cx="459.457" cy="-410.634" rx="4.00001" ry="4.00001"/>
<polygon fill="#4ca3e2" stroke="#4ca3e2" points="636.129,-354.206 647.024,-355.45 640.892,-352.685 645.655,-351.163 645.655,-351.163 645.655,-351.163 640.892,-352.685 644.286,-346.877 636.129,-354.206 636.129,-354.206"/>
</g>
<!-- Translation -->
<g id="node27" class="node"><title>Translation</title>
<ellipse fill="none" stroke="black" cx="946" cy="-336" rx="50.1504" ry="18"/>
<text text-anchor="middle" x="946" y="-331.8" font-family="Times,serif" font-size="14.00">Translation</text>
</g>
<!-- Article&#45;&gt;Translation -->
<g id="edge4" class="edge"><title>Article&#45;&gt;Translation</title>
<path fill="none" stroke="#0f3158" d="M466.14,-411.788C479.652,-408.901 494.929,-405.961 509,-404 618.455,-388.75 650.434,-415.269 757,-386 770.416,-382.315 771.878,-376.625 785,-372 819.324,-359.903 859.298,-351.185 890.827,-345.475"/>
<ellipse fill="none" stroke="#0f3158" cx="461.89" cy="-412.716" rx="4.00001" ry="4.00001"/>
<polygon fill="#0f3158" stroke="#0f3158" points="890.901,-345.462 901.531,-348.159 895.826,-344.595 900.75,-343.727 900.75,-343.727 900.75,-343.727 895.826,-344.595 899.969,-339.295 890.901,-345.462 890.901,-345.462"/>
</g>
<!-- Trait -->
<g id="node26" class="node"><title>Trait</title>
<ellipse fill="none" stroke="black" cx="1705" cy="-263" rx="27" ry="18"/>
<text text-anchor="middle" x="1705" y="-258.8" font-family="Times,serif" font-size="14.00">Trait</text>
</g>
<!-- Association&#45;&gt;Trait -->
<g id="edge7" class="edge"><title>Association&#45;&gt;Trait</title>
<path fill="none" stroke="#fcacc6" d="M1422.1,-324.138C1490.48,-309.602 1610.01,-284.192 1669.41,-271.566"/>
<ellipse fill="none" stroke="#fcacc6" cx="1417.89" cy="-325.032" rx="4.00001" ry="4.00001"/>
<polygon fill="#fcacc6" stroke="#fcacc6" points="1669.65,-271.514 1680.37,-273.837 1674.54,-270.475 1679.43,-269.435 1679.43,-269.435 1679.43,-269.435 1674.54,-270.475 1678.5,-265.033 1669.65,-271.514 1669.65,-271.514"/>
</g>
<!-- Node -->
<g id="node6" class="node"><title>Node</title>
<ellipse fill="none" stroke="black" cx="1746" cy="-422" rx="39.6558" ry="18"/>
<text text-anchor="middle" x="1746" y="-417.8" font-family="Times,serif" font-size="14.00">Node</text>
</g>
<!-- Node&#45;&gt;Association -->
<g id="edge15" class="edge"><title>Node&#45;&gt;Association</title>
<path fill="none" stroke="#2fa727" d="M1727.62,-398.875C1718.07,-388.943 1705.58,-378.108 1692,-372 1647.11,-351.805 1512.75,-342.847 1432.79,-339.212"/>
<ellipse fill="none" stroke="#2fa727" cx="1730.45" cy="-401.95" rx="4.00002" ry="4.00002"/>
<polygon fill="#2fa727" stroke="#2fa727" points="1432.36,-339.193 1422.57,-334.258 1427.36,-338.973 1422.37,-338.754 1422.37,-338.754 1422.37,-338.754 1427.36,-338.973 1422.17,-343.25 1432.36,-339.193 1432.36,-339.193"/>
</g>
<!-- Node&#45;&gt;Node -->
<g id="edge10" class="edge"><title>Node&#45;&gt;Node</title>
<path fill="none" stroke="#e58c8d" d="M1793.35,-423.977C1799.51,-423.636 1803.58,-422.977 1803.58,-422 1803.58,-421.15 1800.5,-420.541 1795.65,-420.173"/>
<ellipse fill="none" stroke="#e58c8d" cx="1789.29" cy="-424.104" rx="4" ry="4"/>
<polygon fill="#e58c8d" stroke="#e58c8d" points="1795.28,-420.159 1785.47,-415.273 1790.29,-419.964 1785.29,-419.77 1785.29,-419.77 1785.29,-419.77 1790.29,-419.964 1785.12,-424.266 1795.28,-420.159 1795.28,-420.159"/>
<text text-anchor="middle" x="1826.51" y="-417.8" font-family="Times,serif" font-size="14.00">children</text>
</g>
<!-- Node&#45;&gt;Node -->
<g id="edge12" class="edge"><title>Node&#45;&gt;Node</title>
<path fill="none" stroke="#15982b" d="M1794.74,-426.355C1822.24,-426.99 1849.45,-425.538 1849.45,-422 1849.45,-418.462 1822.24,-417.01 1794.74,-417.645"/>
<polygon fill="#15982b" stroke="#15982b" points="1794.64,-426.352 1784.79,-421.529 1789.64,-426.19 1784.65,-426.027 1784.65,-426.027 1784.65,-426.027 1789.64,-426.19 1784.5,-430.525 1794.64,-426.352 1794.64,-426.352"/>
<polygon fill="#15982b" stroke="#15982b" points="1794.64,-417.648 1784.5,-413.475 1789.64,-417.81 1784.65,-417.973 1784.65,-417.973 1784.65,-417.973 1789.64,-417.81 1784.79,-422.471 1794.64,-417.648 1794.64,-417.648"/>
<text text-anchor="middle" x="1902.71" y="-417.8" font-family="Times,serif" font-size="14.00">self_and_ancestors</text>
</g>
<!-- Node&#45;&gt;Node -->
<g id="edge14" class="edge"><title>Node&#45;&gt;Node</title>
<path fill="none" stroke="#a6eef8" d="M1794.99,-427.218C1858.54,-430.383 1955.96,-428.644 1955.96,-422 1955.96,-415.356 1858.54,-413.617 1794.99,-416.782"/>
<polygon fill="#a6eef8" stroke="#a6eef8" points="1794.69,-427.202 1784.96,-422.151 1789.7,-426.923 1784.71,-426.644 1784.71,-426.644 1784.71,-426.644 1789.7,-426.923 1784.46,-431.137 1794.69,-427.202 1794.69,-427.202"/>
<polygon fill="#a6eef8" stroke="#a6eef8" points="1794.69,-416.798 1784.46,-412.863 1789.7,-417.077 1784.71,-417.356 1784.71,-417.356 1784.71,-417.356 1789.7,-417.077 1784.96,-421.849 1794.69,-416.798 1794.69,-416.798"/>
<text text-anchor="middle" x="2017" y="-417.8" font-family="Times,serif" font-size="14.00">self_and_descendants</text>
</g>
<!-- NodeHierarchy -->
<g id="node31" class="node"><title>NodeHierarchy</title>
<ellipse fill="none" stroke="black" cx="1818" cy="-336" rx="74.8603" ry="18"/>
<text text-anchor="middle" x="1818" y="-331.8" font-family="Times,serif" font-size="14.00">NodeHierarchy</text>
</g>
<!-- Node&#45;&gt;NodeHierarchy -->
<g id="edge11" class="edge"><title>Node&#45;&gt;NodeHierarchy</title>
<path fill="none" stroke="#d76a8a" d="M1791.43,-414.374C1823.69,-408.633 1862.97,-399.166 1873,-386 1881,-375.502 1873.61,-365.506 1861.94,-357.313"/>
<ellipse fill="none" stroke="#d76a8a" cx="1787.35" cy="-415.076" rx="4.00001" ry="4.00001"/>
<polygon fill="#d76a8a" stroke="#d76a8a" points="1861.81,-357.229 1855.7,-348.125 1857.56,-354.587 1853.32,-351.945 1853.32,-351.945 1853.32,-351.945 1857.56,-354.587 1850.94,-355.765 1861.81,-357.229 1861.81,-357.229"/>
<text text-anchor="middle" x="1933.52" y="-374.8" font-family="Times,serif" font-size="14.00">ancestor_hierarchies</text>
</g>
<!-- Node&#45;&gt;NodeHierarchy -->
<g id="edge13" class="edge"><title>Node&#45;&gt;NodeHierarchy</title>
<path fill="none" stroke="#4f4a79" d="M1735.73,-396.628C1733.82,-388.268 1733.69,-379.211 1738.4,-372 1743.2,-364.64 1749.94,-358.818 1757.48,-354.214"/>
<ellipse fill="none" stroke="#4f4a79" cx="1736.88" cy="-400.509" rx="4.00001" ry="4.00001"/>
<polygon fill="#4f4a79" stroke="#4f4a79" points="1757.8,-354.042 1768.74,-353.324 1762.22,-351.696 1766.63,-349.35 1766.63,-349.35 1766.63,-349.35 1762.22,-351.696 1764.52,-345.376 1757.8,-354.042 1757.8,-354.042"/>
<text text-anchor="middle" x="1803.3" y="-374.8" font-family="Times,serif" font-size="14.00">descendant_hierarchies</text>
</g>
<!-- Image -->
<g id="node7" class="node"><title>Image</title>
<ellipse fill="none" stroke="black" cx="1175" cy="-495" rx="32.4063" ry="18"/>
<text text-anchor="middle" x="1175" y="-490.8" font-family="Times,serif" font-size="14.00">Image</text>
</g>
<!-- Image&#45;&gt;Association -->
<g id="edge17" class="edge"><title>Image&#45;&gt;Association</title>
<path fill="none" stroke="#a0c471" d="M1212.69,-485.982C1226.05,-483.142 1241.2,-479.926 1255,-477 1332.77,-460.516 1379.94,-501.754 1430,-440 1449.03,-416.523 1444.96,-398.262 1430,-372 1426.19,-365.312 1420.55,-359.77 1414.23,-355.222"/>
<ellipse fill="none" stroke="#a0c471" cx="1208.54" cy="-486.864" rx="4.00001" ry="4.00001"/>
<polygon fill="#a0c471" stroke="#a0c471" points="1413.79,-354.943 1407.72,-345.812 1409.56,-352.282 1405.32,-349.622 1405.32,-349.622 1405.32,-349.622 1409.56,-352.282 1402.93,-353.432 1413.79,-354.943 1413.79,-354.943"/>
</g>
<!-- Image&#45;&gt;CollectionAttribution -->
<g id="edge20" class="edge"><title>Image&#45;&gt;CollectionAttribution</title>
<path fill="none" stroke="#89bc25" d="M1135.96,-488.905C1076.85,-480.808 961.312,-463.485 865,-440 813.379,-427.413 802.05,-418.731 751,-404 714.967,-393.602 620.771,-369.216 557.255,-352.913"/>
<ellipse fill="none" stroke="#89bc25" cx="1139.95" cy="-489.448" rx="4.00001" ry="4.00001"/>
<polygon fill="#89bc25" stroke="#89bc25" points="557.025,-352.854 548.456,-346.01 552.182,-351.611 547.338,-350.369 547.338,-350.369 547.338,-350.369 552.182,-351.611 546.22,-354.728 557.025,-352.854 557.025,-352.854"/>
</g>
<!-- Image&#45;&gt;LiteratureReference -->
<g id="edge18" class="edge"><title>Image&#45;&gt;LiteratureReference</title>
<path fill="none" stroke="#bd02c3" d="M1157.69,-471.616C1140.48,-450.924 1112.19,-420.9 1081,-404 1029.17,-375.915 871.81,-355.431 773.238,-344.941"/>
<ellipse fill="none" stroke="#bd02c3" cx="1160.36" cy="-474.879" rx="4.00002" ry="4.00002"/>
<polygon fill="#bd02c3" stroke="#bd02c3" points="772.946,-344.91 763.471,-339.389 767.973,-344.387 763.001,-343.865 763.001,-343.865 763.001,-343.865 767.973,-344.387 762.53,-348.34 772.946,-344.91 772.946,-344.91"/>
</g>
<!-- OldImage -->
<g id="node15" class="node"><title>OldImage</title>
<ellipse fill="none" stroke="black" cx="1249" cy="-422" rx="45.4355" ry="18"/>
<text text-anchor="middle" x="1249" y="-417.8" font-family="Times,serif" font-size="14.00">OldImage</text>
</g>
<!-- Image&#45;&gt;OldImage -->
<g id="edge21" class="edge"><title>Image&#45;&gt;OldImage</title>
<path fill="none" stroke="#33c55d" d="M1196.73,-473.15C1205.61,-464.635 1215.9,-454.755 1225,-446.027"/>
<ellipse fill="none" stroke="#33c55d" cx="1193.58" cy="-476.173" rx="4.00002" ry="4.00002"/>
<polygon fill="#33c55d" stroke="#33c55d" points="1225.08,-445.946 1235.42,-442.269 1228.69,-442.484 1232.3,-439.022 1232.3,-439.022 1232.3,-439.022 1228.69,-442.484 1229.19,-435.775 1225.08,-445.946 1225.08,-445.946"/>
</g>
<!-- Image&#45;&gt;Translation -->
<g id="edge19" class="edge"><title>Image&#45;&gt;Translation</title>
<path fill="none" stroke="#e00937" d="M1172.43,-468.708C1168.18,-440.693 1157.03,-396.282 1128,-372 1109.53,-356.551 1050.44,-347.202 1004.54,-342.102"/>
<ellipse fill="none" stroke="#e00937" cx="1173" cy="-472.872" rx="4.00001" ry="4.00001"/>
<polygon fill="#e00937" stroke="#e00937" points="1004.32,-342.079 994.858,-336.543 999.352,-341.548 994.38,-341.017 994.38,-341.017 994.38,-341.017 999.352,-341.548 993.902,-345.492 1004.32,-342.079 1004.32,-342.079"/>
</g>
<!-- Javascript -->
<g id="node8" class="node"><title>Javascript</title>
<ellipse fill="none" stroke="black" cx="798" cy="-603" rx="45.4355" ry="18"/>
<text text-anchor="middle" x="798" y="-598.8" font-family="Times,serif" font-size="14.00">Javascript</text>
</g>
<!-- Javascript&#45;&gt;Article -->
<g id="edge23" class="edge"><title>Javascript&#45;&gt;Article</title>
<path fill="none" stroke="#7ef2a7" d="M754.807,-588.684C736.702,-582.68 715.582,-575.116 697,-567 607.356,-527.849 506.984,-470.52 457.694,-441.418"/>
<ellipse fill="none" stroke="#7ef2a7" cx="759.092" cy="-590.086" rx="4.00001" ry="4.00001"/>
<polygon fill="#7ef2a7" stroke="#7ef2a7" points="457.419,-441.255 451.112,-432.284 453.118,-438.705 448.817,-436.155 448.817,-436.155 448.817,-436.155 453.118,-438.705 446.522,-440.026 457.419,-441.255 457.419,-441.255"/>
</g>
<!-- Map -->
<g id="node12" class="node"><title>Map</title>
<ellipse fill="none" stroke="black" cx="901" cy="-422" rx="27" ry="18"/>
<text text-anchor="middle" x="901" y="-417.8" font-family="Times,serif" font-size="14.00">Map</text>
</g>
<!-- Javascript&#45;&gt;Map -->
<g id="edge24" class="edge"><title>Javascript&#45;&gt;Map</title>
<path fill="none" stroke="#e1c5a8" d="M832.85,-584.355C857.997,-569.334 889.614,-545.083 902,-513 909.763,-492.894 908.87,-468.327 906.396,-449.943"/>
<ellipse fill="none" stroke="#e1c5a8" cx="829.081" cy="-586.532" rx="4.00002" ry="4.00002"/>
<polygon fill="#e1c5a8" stroke="#e1c5a8" points="906.372,-449.791 909.254,-439.211 905.591,-444.853 904.809,-439.914 904.809,-439.914 904.809,-439.914 905.591,-444.853 900.365,-440.617 906.372,-449.791 906.372,-449.791"/>
</g>
<!-- OldArticle -->
<g id="node14" class="node"><title>OldArticle</title>
<ellipse fill="none" stroke="black" cx="566" cy="-422" rx="47.8496" ry="18"/>
<text text-anchor="middle" x="566" y="-417.8" font-family="Times,serif" font-size="14.00">OldArticle</text>
</g>
<!-- Javascript&#45;&gt;OldArticle -->
<g id="edge27" class="edge"><title>Javascript&#45;&gt;OldArticle</title>
<path fill="none" stroke="#8b711e" d="M768.69,-582.407C761.525,-577.475 753.929,-572.124 747,-567 690.807,-525.445 627.359,-473.834 592.495,-445.048"/>
<ellipse fill="none" stroke="#8b711e" cx="772.367" cy="-584.919" rx="4.00002" ry="4.00002"/>
<polygon fill="#8b711e" stroke="#8b711e" points="592.385,-444.956 587.548,-435.115 588.532,-441.769 584.68,-438.582 584.68,-438.582 584.68,-438.582 588.532,-441.769 581.811,-442.049 592.385,-444.956 592.385,-444.956"/>
</g>
<!-- OldMap -->
<g id="node16" class="node"><title>OldMap</title>
<ellipse fill="none" stroke="black" cx="335" cy="-422" rx="39.6645" ry="18"/>
<text text-anchor="middle" x="335" y="-417.8" font-family="Times,serif" font-size="14.00">OldMap</text>
</g>
<!-- Javascript&#45;&gt;OldMap -->
<g id="edge28" class="edge"><title>Javascript&#45;&gt;OldMap</title>
<path fill="none" stroke="#5ed628" d="M756.781,-588.498C752.16,-587.212 747.497,-586.012 743,-585 688.241,-572.675 671.507,-583.954 618,-567 520.539,-536.118 415.765,-474.407 365.422,-442.742"/>
<ellipse fill="none" stroke="#5ed628" cx="760.642" cy="-589.615" rx="4.00001" ry="4.00001"/>
<polygon fill="#5ed628" stroke="#5ed628" points="365.116,-442.548 359.079,-433.393 360.893,-439.87 356.67,-437.193 356.67,-437.193 356.67,-437.193 360.893,-439.87 354.26,-440.994 365.116,-442.548 365.116,-442.548"/>
</g>
<!-- OldSound -->
<g id="node17" class="node"><title>OldSound</title>
<ellipse fill="none" stroke="black" cx="678" cy="-422" rx="45.9545" ry="18"/>
<text text-anchor="middle" x="678" y="-417.8" font-family="Times,serif" font-size="14.00">OldSound</text>
</g>
<!-- Javascript&#45;&gt;OldSound -->
<g id="edge29" class="edge"><title>Javascript&#45;&gt;OldSound</title>
<path fill="none" stroke="#28013f" d="M782.31,-578.596C759.68,-544.839 718.05,-482.741 694.81,-448.075"/>
<ellipse fill="none" stroke="#28013f" cx="784.698" cy="-582.158" rx="4.00002" ry="4.00002"/>
<polygon fill="#28013f" stroke="#28013f" points="694.616,-447.785 692.785,-436.973 691.832,-443.632 689.047,-439.479 689.047,-439.479 689.047,-439.479 691.832,-443.632 685.31,-441.985 694.616,-447.785 694.616,-447.785"/>
</g>
<!-- OldVideo -->
<g id="node18" class="node"><title>OldVideo</title>
<ellipse fill="none" stroke="black" cx="1028" cy="-422" rx="44.4146" ry="18"/>
<text text-anchor="middle" x="1028" y="-417.8" font-family="Times,serif" font-size="14.00">OldVideo</text>
</g>
<!-- Javascript&#45;&gt;OldVideo -->
<g id="edge30" class="edge"><title>Javascript&#45;&gt;OldVideo</title>
<path fill="none" stroke="#e95345" d="M850.908,-597.972C884.297,-593.716 927.481,-584.97 962,-567 993.241,-550.736 1004.53,-544.639 1020,-513 1029.51,-493.564 1031.09,-468.945 1030.53,-450.371"/>
<ellipse fill="none" stroke="#e95345" cx="846.613" cy="-598.485" rx="4.00001" ry="4.00001"/>
<polygon fill="#e95345" stroke="#e95345" points="1030.52,-450.204 1034.49,-439.981 1030.26,-445.211 1030,-440.218 1030,-440.218 1030,-440.218 1030.26,-445.211 1025.5,-440.454 1030.52,-450.204 1030.52,-450.204"/>
</g>
<!-- Sound -->
<g id="node22" class="node"><title>Sound</title>
<ellipse fill="none" stroke="black" cx="860" cy="-495" rx="32.9255" ry="18"/>
<text text-anchor="middle" x="860" y="-490.8" font-family="Times,serif" font-size="14.00">Sound</text>
</g>
<!-- Javascript&#45;&gt;Sound -->
<g id="edge25" class="edge"><title>Javascript&#45;&gt;Sound</title>
<path fill="none" stroke="#d1b33c" d="M819.388,-579.918C822.836,-575.798 826.191,-571.4 829,-567 837.912,-553.043 845.422,-536.089 850.817,-522.249"/>
<ellipse fill="none" stroke="#d1b33c" cx="816.592" cy="-583.112" rx="4.00002" ry="4.00002"/>
<polygon fill="#d1b33c" stroke="#d1b33c" points="850.846,-522.171 858.575,-514.391 852.604,-517.49 854.362,-512.809 854.362,-512.809 854.362,-512.809 852.604,-517.49 850.149,-511.227 850.846,-522.171 850.846,-522.171"/>
</g>
<!-- Video -->
<g id="node29" class="node"><title>Video</title>
<ellipse fill="none" stroke="black" cx="980" cy="-495" rx="31.3854" ry="18"/>
<text text-anchor="middle" x="980" y="-490.8" font-family="Times,serif" font-size="14.00">Video</text>
</g>
<!-- Javascript&#45;&gt;Video -->
<g id="edge26" class="edge"><title>Javascript&#45;&gt;Video</title>
<path fill="none" stroke="#0133c0" d="M850.862,-597.819C878.093,-593.484 910.607,-584.711 935,-567 943.498,-560.83 956.662,-539.159 966.561,-521.365"/>
<ellipse fill="none" stroke="#0133c0" cx="846.553" cy="-598.448" rx="4.00001" ry="4.00001"/>
<polygon fill="#0133c0" stroke="#0133c0" points="966.602,-521.291 975.347,-514.675 969,-516.904 971.398,-512.516 971.398,-512.516 971.398,-512.516 969,-516.904 967.45,-510.358 966.602,-521.291 966.602,-521.291"/>
</g>
<!-- License -->
<g id="node9" class="node"><title>License</title>
<ellipse fill="none" stroke="black" cx="448" cy="-603" rx="37.7092" ry="18"/>
<text text-anchor="middle" x="448" y="-598.8" font-family="Times,serif" font-size="14.00">License</text>
</g>
<!-- Link -->
<g id="node10" class="node"><title>Link</title>
<ellipse fill="none" stroke="black" cx="1623" cy="-422" rx="27" ry="18"/>
<text text-anchor="middle" x="1623" y="-417.8" font-family="Times,serif" font-size="14.00">Link</text>
</g>
<!-- Map&#45;&gt;Association -->
<g id="edge35" class="edge"><title>Map&#45;&gt;Association</title>
<path fill="none" stroke="#2f192c" d="M933.908,-412.483C946.668,-409.433 961.446,-406.207 975,-404 1056.54,-390.724 1078.8,-401.196 1160,-386 1182.68,-381.755 1187.6,-377.565 1210,-372 1245.57,-363.162 1285.87,-354.403 1317.25,-347.858"/>
<ellipse fill="none" stroke="#2f192c" cx="929.733" cy="-413.502" rx="4.00001" ry="4.00001"/>
<polygon fill="#2f192c" stroke="#2f192c" points="1317.31,-347.844 1328.02,-350.22 1322.21,-346.829 1327.11,-345.814 1327.11,-345.814 1327.11,-345.814 1322.21,-346.829 1326.19,-341.407 1317.31,-347.844 1317.31,-347.844"/>
</g>
<!-- Map&#45;&gt;CollectionAttribution -->
<g id="edge38" class="edge"><title>Map&#45;&gt;CollectionAttribution</title>
<path fill="none" stroke="#3f1a38" d="M867.789,-413.022C825.459,-402.956 749.974,-385.348 685,-372 646.874,-364.167 604.271,-356.244 569.085,-349.921"/>
<ellipse fill="none" stroke="#3f1a38" cx="871.909" cy="-414.004" rx="4.00001" ry="4.00001"/>
<polygon fill="#3f1a38" stroke="#3f1a38" points="568.737,-349.859 559.686,-343.668 563.815,-348.978 558.893,-348.098 558.893,-348.098 558.893,-348.098 563.815,-348.978 558.1,-352.527 568.737,-349.859 568.737,-349.859"/>
</g>
<!-- Map&#45;&gt;LiteratureReference -->
<g id="edge36" class="edge"><title>Map&#45;&gt;LiteratureReference</title>
<path fill="none" stroke="#63dfd5" d="M885.779,-398.441C878.209,-388.892 868.268,-378.494 857,-372 832.427,-357.838 802.876,-349.373 775.508,-344.325"/>
<ellipse fill="none" stroke="#63dfd5" cx="888.216" cy="-401.667" rx="4.00002" ry="4.00002"/>
<polygon fill="#63dfd5" stroke="#63dfd5" points="775.393,-344.306 766.297,-338.181 770.465,-343.461 765.537,-342.616 765.537,-342.616 765.537,-342.616 770.465,-343.461 764.776,-347.051 775.393,-344.306 775.393,-344.306"/>
</g>
<!-- Map&#45;&gt;Translation -->
<g id="edge37" class="edge"><title>Map&#45;&gt;Translation</title>
<path fill="none" stroke="#74375d" d="M913.606,-397.47C919.432,-386.594 926.364,-373.654 932.317,-362.541"/>
<ellipse fill="none" stroke="#74375d" cx="911.565" cy="-401.278" rx="4.00002" ry="4.00002"/>
<polygon fill="#74375d" stroke="#74375d" points="932.32,-362.536 941.009,-355.846 934.681,-358.129 937.042,-353.721 937.042,-353.721 937.042,-353.721 934.681,-358.129 933.076,-351.596 932.32,-362.536 932.32,-362.536"/>
</g>
<!-- Name -->
<g id="node13" class="node"><title>Name</title>
<ellipse fill="none" stroke="black" cx="323" cy="-603" rx="31.4462" ry="18"/>
<text text-anchor="middle" x="323" y="-598.8" font-family="Times,serif" font-size="14.00">Name</text>
</g>
<!-- Name&#45;&gt;Appearance -->
<g id="edge40" class="edge"><title>Name&#45;&gt;Appearance</title>
<path fill="none" stroke="#a6b57d" d="M290.356,-588.651C278.075,-582.883 264.348,-575.498 253,-567 250.413,-565.063 227.168,-539.887 208.987,-520.059"/>
<ellipse fill="none" stroke="#a6b57d" cx="294.14" cy="-590.372" rx="4.00002" ry="4.00002"/>
<polygon fill="#a6b57d" stroke="#a6b57d" points="208.829,-519.886 205.393,-509.472 205.452,-516.199 202.075,-512.512 202.075,-512.512 202.075,-512.512 205.452,-516.199 198.756,-515.551 208.829,-519.886 208.829,-519.886"/>
</g>
<!-- Name&#45;&gt;Association -->
<g id="edge41" class="edge"><title>Name&#45;&gt;Association</title>
<path fill="none" stroke="#25abdb" d="M358.926,-593.174C372.092,-590.204 387.158,-587.111 401,-585 854.737,-515.796 1012.86,-658.965 1426,-459 1438.56,-452.92 1444.8,-452.502 1451,-440 1464.44,-412.899 1465.55,-396.642 1448,-372 1441.48,-362.842 1431.97,-356.032 1421.85,-350.983"/>
<ellipse fill="none" stroke="#25abdb" cx="354.899" cy="-594.101" rx="4.00001" ry="4.00001"/>
<polygon fill="#25abdb" stroke="#25abdb" points="1421.59,-350.869 1414.26,-342.71 1417.02,-348.847 1412.44,-346.826 1412.44,-346.826 1412.44,-346.826 1417.02,-348.847 1410.62,-350.941 1421.59,-350.869 1421.59,-350.869"/>
</g>
<!-- Name&#45;&gt;LiteratureReference -->
<g id="edge42" class="edge"><title>Name&#45;&gt;LiteratureReference</title>
<path fill="none" stroke="#ce4652" d="M308.144,-579.013C284.192,-538.76 243.786,-454.957 286,-404 307.838,-377.639 556.155,-359.131 590,-354 599.304,-352.589 609.081,-351.027 618.728,-349.437"/>
<ellipse fill="none" stroke="#ce4652" cx="310.321" cy="-582.588" rx="4.00002" ry="4.00002"/>
<polygon fill="#ce4652" stroke="#ce4652" points="618.845,-349.418 629.448,-352.216 623.777,-348.597 628.709,-347.777 628.709,-347.777 628.709,-347.777 623.777,-348.597 627.971,-343.338 618.845,-349.418 618.845,-349.418"/>
</g>
<!-- OldArticle&#45;&gt;Association -->
<g id="edge44" class="edge"><title>OldArticle&#45;&gt;Association</title>
<path fill="none" stroke="#d12a0b" d="M608.085,-407.168C613.07,-405.912 618.12,-404.81 623,-404 825.719,-370.371 882.005,-417.921 1085,-386 1107.8,-382.415 1112.43,-376.813 1135,-372 1194.82,-359.243 1264.15,-349.558 1312.12,-343.645"/>
<ellipse fill="none" stroke="#d12a0b" cx="604.201" cy="-408.212" rx="4.00001" ry="4.00001"/>
<polygon fill="#d12a0b" stroke="#d12a0b" points="1312.39,-343.612 1322.86,-346.872 1317.35,-343.008 1322.32,-342.405 1322.32,-342.405 1322.32,-342.405 1317.35,-343.008 1321.77,-337.938 1312.39,-343.612 1312.39,-343.612"/>
</g>
<!-- OldArticle&#45;&gt;CollectionAttribution -->
<g id="edge47" class="edge"><title>OldArticle&#45;&gt;CollectionAttribution</title>
<path fill="none" stroke="#979099" d="M546.777,-398.257C537.251,-386.988 525.731,-373.357 515.977,-361.818"/>
<ellipse fill="none" stroke="#979099" cx="549.391" cy="-401.349" rx="4.00002" ry="4.00002"/>
<polygon fill="#979099" stroke="#979099" points="515.697,-361.486 512.678,-350.944 512.469,-357.667 509.241,-353.849 509.241,-353.849 509.241,-353.849 512.469,-357.667 505.804,-356.754 515.697,-361.486 515.697,-361.486"/>
</g>
<!-- OldArticle&#45;&gt;LiteratureReference -->
<g id="edge46" class="edge"><title>OldArticle&#45;&gt;LiteratureReference</title>
<path fill="none" stroke="#178de6" d="M594.884,-401.433C613.587,-388.763 637.981,-372.239 657.381,-359.097"/>
<ellipse fill="none" stroke="#178de6" cx="591.48" cy="-403.739" rx="4.00002" ry="4.00002"/>
<polygon fill="#178de6" stroke="#178de6" points="657.626,-358.931 668.429,-357.048 661.766,-356.126 665.905,-353.322 665.905,-353.322 665.905,-353.322 661.766,-356.126 663.382,-349.596 657.626,-358.931 657.626,-358.931"/>
</g>
<!-- OldArticle&#45;&gt;Translation -->
<g id="edge45" class="edge"><title>OldArticle&#45;&gt;Translation</title>
<path fill="none" stroke="#2b47e3" d="M608.705,-407.377C613.497,-406.113 618.333,-404.952 623,-404 692.682,-389.781 713.815,-406.213 782,-386 795.34,-382.046 796.968,-376.872 810,-372 836.914,-361.938 867.872,-353.722 893.445,-347.786"/>
<ellipse fill="none" stroke="#2b47e3" cx="604.575" cy="-408.517" rx="4.00001" ry="4.00001"/>
<polygon fill="#2b47e3" stroke="#2b47e3" points="893.571,-347.757 904.319,-349.932 898.447,-346.65 903.323,-345.543 903.323,-345.543 903.323,-345.543 898.447,-346.65 902.326,-341.155 893.571,-347.757 893.571,-347.757"/>
</g>
<!-- OldImage&#45;&gt;Association -->
<g id="edge49" class="edge"><title>OldImage&#45;&gt;Association</title>
<path fill="none" stroke="#63c091" d="M1282.25,-403.171C1291.42,-397.92 1301.25,-391.974 1310,-386 1321.78,-377.965 1334.15,-368.283 1344.65,-359.655"/>
<ellipse fill="none" stroke="#63c091" cx="1278.55" cy="-405.255" rx="4.00002" ry="4.00002"/>
<polygon fill="#63c091" stroke="#63c091" points="1344.94,-359.413 1355.5,-356.47 1348.78,-356.213 1352.62,-353.013 1352.62,-353.013 1352.62,-353.013 1348.78,-356.213 1349.74,-349.555 1344.94,-359.413 1344.94,-359.413"/>
</g>
<!-- OldImage&#45;&gt;CollectionAttribution -->
<g id="edge52" class="edge"><title>OldImage&#45;&gt;CollectionAttribution</title>
<path fill="none" stroke="#0c4e09" d="M1197.49,-415.299C1112.6,-405.949 937.968,-386.907 790,-372 705.605,-363.498 684.134,-364.784 600,-354 590.109,-352.732 579.719,-351.243 569.48,-349.682"/>
<ellipse fill="none" stroke="#0c4e09" cx="1201.69" cy="-415.762" rx="4.00001" ry="4.00001"/>
<polygon fill="#0c4e09" stroke="#0c4e09" points="569.198,-349.638 560.007,-343.656 564.257,-348.87 559.316,-348.102 559.316,-348.102 559.316,-348.102 564.257,-348.87 558.625,-352.549 569.198,-349.638 569.198,-349.638"/>
</g>
<!-- OldImage&#45;&gt;LiteratureReference -->
<g id="edge51" class="edge"><title>OldImage&#45;&gt;LiteratureReference</title>
<path fill="none" stroke="#816bc5" d="M1212.08,-405.036C1184.49,-393.841 1145.57,-379.572 1110,-372 1012.75,-351.298 986.089,-362.274 887,-354 849.948,-350.906 808.986,-347.387 774.054,-344.357"/>
<ellipse fill="none" stroke="#816bc5" cx="1215.85" cy="-406.584" rx="4.00002" ry="4.00002"/>
<polygon fill="#816bc5" stroke="#816bc5" points="773.858,-344.34 764.285,-338.991 768.876,-343.907 763.895,-343.474 763.895,-343.474 763.895,-343.474 768.876,-343.907 763.506,-347.957 773.858,-344.34 773.858,-344.34"/>
</g>
<!-- OldImage&#45;&gt;OldImage -->
<g id="edge53" class="edge"><title>OldImage&#45;&gt;OldImage</title>
<path fill="none" stroke="#5bc5a8" d="M1299.73,-428.131C1307.32,-427.181 1312.47,-425.138 1312.47,-422 1312.47,-419.124 1308.15,-417.167 1301.58,-416.129"/>
<ellipse fill="none" stroke="#5bc5a8" cx="1295.4" cy="-428.436" rx="4" ry="4"/>
<polygon fill="#5bc5a8" stroke="#5bc5a8" points="1301.38,-416.113 1291.79,-410.799 1296.4,-415.698 1291.41,-415.283 1291.41,-415.283 1291.41,-415.283 1296.4,-415.698 1291.04,-419.768 1301.38,-416.113 1301.38,-416.113"/>
</g>
<!-- OldImage&#45;&gt;Translation -->
<g id="edge50" class="edge"><title>OldImage&#45;&gt;Translation</title>
<path fill="none" stroke="#174ec9" d="M1275.79,-400.123C1284.3,-391.05 1289.72,-380.562 1282,-372 1263.9,-351.917 1097.55,-342.606 1005.91,-338.969"/>
<ellipse fill="none" stroke="#174ec9" cx="1272.74" cy="-403.068" rx="4.00002" ry="4.00002"/>
<polygon fill="#174ec9" stroke="#174ec9" points="1005.65,-338.959 995.834,-334.077 1000.66,-338.767 995.66,-338.574 995.66,-338.574 995.66,-338.574 1000.66,-338.767 995.487,-343.07 1005.65,-338.959 1005.65,-338.959"/>
</g>
<!-- OldMap&#45;&gt;Association -->
<g id="edge55" class="edge"><title>OldMap&#45;&gt;Association</title>
<path fill="none" stroke="#b5b397" d="M371.413,-406.951C375.284,-405.805 379.196,-404.787 383,-404 428.503,-394.584 1101.98,-353.277 1310.15,-340.668"/>
<ellipse fill="none" stroke="#b5b397" cx="367.384" cy="-408.235" rx="4.00001" ry="4.00001"/>
<polygon fill="#b5b397" stroke="#b5b397" points="1310.31,-340.658 1320.57,-344.546 1315.3,-340.356 1320.29,-340.054 1320.29,-340.054 1320.29,-340.054 1315.3,-340.356 1320.02,-335.562 1310.31,-340.658 1310.31,-340.658"/>
</g>
<!-- OldMap&#45;&gt;CollectionAttribution -->
<g id="edge58" class="edge"><title>OldMap&#45;&gt;CollectionAttribution</title>
<path fill="none" stroke="#b81deb" d="M366.074,-403.144C382.817,-393.664 403.903,-381.949 423,-372 432.528,-367.036 442.866,-361.879 452.657,-357.098"/>
<ellipse fill="none" stroke="#b81deb" cx="362.187" cy="-405.352" rx="4.00002" ry="4.00002"/>
<polygon fill="#b81deb" stroke="#b81deb" points="452.834,-357.012 463.796,-356.697 457.333,-354.83 461.832,-352.648 461.832,-352.648 461.832,-352.648 457.333,-354.83 459.868,-348.599 452.834,-357.012 452.834,-357.012"/>
</g>
<!-- OldMap&#45;&gt;LiteratureReference -->
<g id="edge57" class="edge"><title>OldMap&#45;&gt;LiteratureReference</title>
<path fill="none" stroke="#9d1f16" d="M372.312,-407.275C375.905,-406.107 379.51,-404.995 383,-404 462.889,-381.233 556.358,-361.845 618.986,-349.872"/>
<ellipse fill="none" stroke="#9d1f16" cx="368.306" cy="-408.62" rx="4.00001" ry="4.00001"/>
<polygon fill="#9d1f16" stroke="#9d1f16" points="619.327,-349.807 629.991,-352.363 624.239,-348.875 629.152,-347.942 629.152,-347.942 629.152,-347.942 624.239,-348.875 628.312,-343.521 619.327,-349.807 619.327,-349.807"/>
</g>
<!-- OldMap&#45;&gt;Translation -->
<g id="edge56" class="edge"><title>OldMap&#45;&gt;Translation</title>
<path fill="none" stroke="#d39c83" d="M371.613,-407.101C375.425,-405.935 379.269,-404.871 383,-404 431.462,-392.683 754.696,-357.435 888.338,-343.128"/>
<ellipse fill="none" stroke="#d39c83" cx="367.687" cy="-408.374" rx="4.00001" ry="4.00001"/>
<polygon fill="#d39c83" stroke="#d39c83" points="888.445,-343.116 898.867,-346.527 893.417,-342.585 898.388,-342.053 898.388,-342.053 898.388,-342.053 893.417,-342.585 897.91,-337.578 888.445,-343.116 888.445,-343.116"/>
</g>
<!-- OldSound&#45;&gt;Association -->
<g id="edge60" class="edge"><title>OldSound&#45;&gt;Association</title>
<path fill="none" stroke="#9f4706" d="M730.432,-415.904C767.903,-412.342 819.53,-407.599 865,-404 983.565,-394.615 1017.23,-417.206 1132,-386 1145.43,-382.35 1146.77,-376.298 1160,-372 1209.53,-355.913 1268.13,-346.948 1310.98,-342.129"/>
<ellipse fill="none" stroke="#9f4706" cx="726.163" cy="-416.311" rx="4" ry="4"/>
<polygon fill="#9f4706" stroke="#9f4706" points="1311.03,-342.124 1321.46,-345.523 1316,-341.586 1320.97,-341.049 1320.97,-341.049 1320.97,-341.049 1316,-341.586 1320.49,-336.575 1311.03,-342.124 1311.03,-342.124"/>
</g>
<!-- OldSound&#45;&gt;CollectionAttribution -->
<g id="edge63" class="edge"><title>OldSound&#45;&gt;CollectionAttribution</title>
<path fill="none" stroke="#1e8ea0" d="M641.83,-404.397C612.118,-390.759 569.942,-371.4 538.41,-356.926"/>
<ellipse fill="none" stroke="#1e8ea0" cx="645.771" cy="-406.206" rx="4.00002" ry="4.00002"/>
<polygon fill="#1e8ea0" stroke="#1e8ea0" points="538.08,-356.775 530.869,-348.513 533.536,-354.689 528.992,-352.603 528.992,-352.603 528.992,-352.603 533.536,-354.689 527.115,-356.693 538.08,-356.775 538.08,-356.775"/>
</g>
<!-- OldSound&#45;&gt;LiteratureReference -->
<g id="edge62" class="edge"><title>OldSound&#45;&gt;LiteratureReference</title>
<path fill="none" stroke="#93fde6" d="M679.404,-395.265C680.003,-387.74 680.84,-379.518 682,-372 682.413,-369.32 682.917,-366.541 683.469,-363.773"/>
<ellipse fill="none" stroke="#93fde6" cx="679.09" cy="-399.705" rx="4" ry="4"/>
<polygon fill="#93fde6" stroke="#93fde6" points="683.47,-363.766 689.997,-354.954 684.535,-358.881 685.601,-353.996 685.601,-353.996 685.601,-353.996 684.535,-358.881 681.204,-353.037 683.47,-363.766 683.47,-363.766"/>
</g>
<!-- OldSound&#45;&gt;OldSound -->
<g id="edge64" class="edge"><title>OldSound&#45;&gt;OldSound</title>
<path fill="none" stroke="#847e23" d="M729.136,-428.131C736.793,-427.181 741.977,-425.138 741.977,-422 741.977,-419.124 737.621,-417.167 730.997,-416.129"/>
<ellipse fill="none" stroke="#847e23" cx="724.745" cy="-428.438" rx="4" ry="4"/>
<polygon fill="#847e23" stroke="#847e23" points="730.721,-416.106 721.125,-410.799 725.738,-415.695 720.755,-415.283 720.755,-415.283 720.755,-415.283 725.738,-415.695 720.385,-419.768 730.721,-416.106 730.721,-416.106"/>
</g>
<!-- OldSound&#45;&gt;Translation -->
<g id="edge61" class="edge"><title>OldSound&#45;&gt;Translation</title>
<path fill="none" stroke="#915f91" d="M723.566,-409.516C748.366,-403.045 779.511,-394.562 807,-386 839.528,-375.869 875.822,-363.021 903.164,-353.023"/>
<ellipse fill="none" stroke="#915f91" cx="719.622" cy="-410.539" rx="4.00001" ry="4.00001"/>
<polygon fill="#915f91" stroke="#915f91" points="903.423,-352.928 914.361,-353.703 908.116,-351.204 912.809,-349.479 912.809,-349.479 912.809,-349.479 908.116,-351.204 911.257,-345.255 903.423,-352.928 903.423,-352.928"/>
</g>
<!-- OldVideo&#45;&gt;Association -->
<g id="edge66" class="edge"><title>OldVideo&#45;&gt;Association</title>
<path fill="none" stroke="#df0773" d="M1076.36,-412.858C1112.54,-406.45 1163.13,-396.817 1207,-386 1247.27,-376.073 1292.37,-362.406 1325.07,-352.028"/>
<ellipse fill="none" stroke="#df0773" cx="1072.35" cy="-413.563" rx="4.00001" ry="4.00001"/>
<polygon fill="#df0773" stroke="#df0773" points="1325.28,-351.963 1336.17,-353.208 1330.04,-350.442 1334.8,-348.921 1334.8,-348.921 1334.8,-348.921 1330.04,-350.442 1333.43,-344.634 1325.28,-351.963 1325.28,-351.963"/>
</g>
<!-- OldVideo&#45;&gt;CollectionAttribution -->
<g id="edge69" class="edge"><title>OldVideo&#45;&gt;CollectionAttribution</title>
<path fill="none" stroke="#77511a" d="M980.56,-411.84C966.549,-409.215 951.172,-406.413 937,-404 844.795,-388.299 821.542,-385.574 729,-372 671.724,-363.599 657.242,-362.627 600,-354 590.345,-352.545 580.199,-350.966 570.177,-349.376"/>
<ellipse fill="none" stroke="#77511a" cx="984.701" cy="-412.62" rx="4.00001" ry="4.00001"/>
<polygon fill="#77511a" stroke="#77511a" points="570.093,-349.363 560.928,-343.343 565.156,-348.574 560.218,-347.786 560.218,-347.786 560.218,-347.786 565.156,-348.574 559.509,-352.23 570.093,-349.363 570.093,-349.363"/>
</g>
<!-- OldVideo&#45;&gt;LiteratureReference -->
<g id="edge68" class="edge"><title>OldVideo&#45;&gt;LiteratureReference</title>
<path fill="none" stroke="#387694" d="M993.487,-404.128C970.362,-393.462 938.957,-380.191 910,-372 865.306,-359.357 814.129,-350.874 772.387,-345.429"/>
<ellipse fill="none" stroke="#387694" cx="997.373" cy="-405.942" rx="4.00002" ry="4.00002"/>
<polygon fill="#387694" stroke="#387694" points="772.183,-345.404 762.83,-339.68 767.223,-344.774 762.263,-344.144 762.263,-344.144 762.263,-344.144 767.223,-344.774 761.696,-348.608 772.183,-345.404 772.183,-345.404"/>
</g>
<!-- OldVideo&#45;&gt;Translation -->
<g id="edge67" class="edge"><title>OldVideo&#45;&gt;Translation</title>
<path fill="none" stroke="#f779f9" d="M1007.51,-398.745C999.62,-390.289 990.472,-380.622 982,-372 978.277,-368.211 974.286,-364.243 970.367,-360.396"/>
<ellipse fill="none" stroke="#f779f9" cx="1010.54" cy="-402.007" rx="4.00002" ry="4.00002"/>
<polygon fill="#f779f9" stroke="#f779f9" points="970.169,-360.202 966.146,-350.001 966.587,-356.713 963.006,-353.224 963.006,-353.224 963.006,-353.224 966.587,-356.713 959.866,-356.448 970.169,-360.202 970.169,-360.202"/>
</g>
<!-- Publication -->
<g id="node19" class="node"><title>Publication</title>
<ellipse fill="none" stroke="black" cx="223" cy="-603" rx="50.281" ry="18"/>
<text text-anchor="middle" x="223" y="-598.8" font-family="Times,serif" font-size="14.00">Publication</text>
</g>
<!-- Publication&#45;&gt;Appearance -->
<g id="edge71" class="edge"><title>Publication&#45;&gt;Appearance</title>
<path fill="none" stroke="#2f200a" d="M214.602,-577.271C209.046,-560.914 201.765,-539.476 196.076,-522.725"/>
<ellipse fill="none" stroke="#2f200a" cx="215.93" cy="-581.182" rx="4.00001" ry="4.00001"/>
<polygon fill="#2f200a" stroke="#2f200a" points="195.986,-522.457 197.031,-511.541 194.378,-517.723 192.77,-512.988 192.77,-512.988 192.77,-512.988 194.378,-517.723 188.509,-514.436 195.986,-522.457 195.986,-522.457"/>
</g>
<!-- Role -->
<g id="node20" class="node"><title>Role</title>
<ellipse fill="none" stroke="black" cx="27" cy="-549" rx="27" ry="18"/>
<text text-anchor="middle" x="27" y="-544.8" font-family="Times,serif" font-size="14.00">Role</text>
</g>
<!-- Role&#45;&gt;CollectionAttribution -->
<g id="edge73" class="edge"><title>Role&#45;&gt;CollectionAttribution</title>
<path fill="none" stroke="#6e5f2f" d="M22.4446,-522.993C17.0059,-484.35 13.2863,-410.566 55,-372 79.6964,-349.167 277.46,-341.191 399.297,-338.432"/>
<ellipse fill="none" stroke="#6e5f2f" cx="23.0842" cy="-527.173" rx="4.00001" ry="4.00001"/>
<polygon fill="#6e5f2f" stroke="#6e5f2f" points="399.389,-338.43 409.485,-342.711 404.388,-338.321 409.387,-338.212 409.387,-338.212 409.387,-338.212 404.388,-338.321 409.289,-333.713 399.389,-338.43 399.389,-338.43"/>
</g>
<!-- Section -->
<g id="node21" class="node"><title>Section</title>
<ellipse fill="none" stroke="black" cx="1705" cy="-190" rx="36.7663" ry="18"/>
<text text-anchor="middle" x="1705" y="-185.8" font-family="Times,serif" font-size="14.00">Section</text>
</g>
<!-- Section&#45;&gt;Section -->
<g id="edge75" class="edge"><title>Section&#45;&gt;Section</title>
<path fill="none" stroke="#b1c737" d="M1749.87,-191.98C1755.74,-191.641 1759.63,-190.981 1759.63,-190 1759.63,-189.128 1756.56,-188.51 1751.75,-188.145"/>
<ellipse fill="none" stroke="#b1c737" cx="1745.51" cy="-192.115" rx="4" ry="4"/>
<polygon fill="#b1c737" stroke="#b1c737" points="1751.5,-188.136 1741.68,-183.264 1746.51,-187.948 1741.51,-187.761 1741.51,-187.761 1741.51,-187.761 1746.51,-187.948 1741.34,-192.258 1751.5,-188.136 1751.5,-188.136"/>
<text text-anchor="middle" x="1782.57" y="-185.8" font-family="Times,serif" font-size="14.00">children</text>
</g>
<!-- Section&#45;&gt;Section -->
<g id="edge77" class="edge"><title>Section&#45;&gt;Section</title>
<path fill="none" stroke="#4b6e3f" d="M1751.18,-194.329C1778.27,-195.028 1805.5,-193.585 1805.5,-190 1805.5,-186.415 1778.27,-184.972 1751.18,-185.671"/>
<polygon fill="#4b6e3f" stroke="#4b6e3f" points="1750.85,-194.317 1741.02,-189.459 1745.86,-194.137 1740.86,-193.956 1740.86,-193.956 1740.86,-193.956 1745.86,-194.137 1740.7,-198.453 1750.85,-194.317 1750.85,-194.317"/>
<polygon fill="#4b6e3f" stroke="#4b6e3f" points="1750.85,-185.683 1740.7,-181.547 1745.86,-185.863 1740.86,-186.044 1740.86,-186.044 1740.86,-186.044 1745.86,-185.863 1741.02,-190.541 1750.85,-185.683 1750.85,-185.683"/>
<text text-anchor="middle" x="1858.76" y="-185.8" font-family="Times,serif" font-size="14.00">self_and_ancestors</text>
</g>
<!-- Section&#45;&gt;Section -->
<g id="edge79" class="edge"><title>Section&#45;&gt;Section</title>
<path fill="none" stroke="#0e83cb" d="M1750.73,-195.097C1813.24,-198.426 1912.02,-196.727 1912.02,-190 1912.02,-183.273 1813.24,-181.574 1750.73,-184.903"/>
<polygon fill="#0e83cb" stroke="#0e83cb" points="1750.63,-195.091 1740.92,-190.002 1745.64,-194.792 1740.65,-194.494 1740.65,-194.494 1740.65,-194.494 1745.64,-194.792 1740.38,-198.986 1750.63,-195.091 1750.63,-195.091"/>
<polygon fill="#0e83cb" stroke="#0e83cb" points="1750.63,-184.909 1740.38,-181.014 1745.64,-185.208 1740.65,-185.506 1740.65,-185.506 1740.65,-185.506 1745.64,-185.208 1740.92,-189.998 1750.63,-184.909 1750.63,-184.909"/>
<text text-anchor="middle" x="1973.05" y="-185.8" font-family="Times,serif" font-size="14.00">self_and_descendants</text>
</g>
<!-- Uri -->
<g id="node28" class="node"><title>Uri</title>
<ellipse fill="none" stroke="black" cx="2001" cy="-104" rx="27" ry="18"/>
<text text-anchor="middle" x="2001" y="-99.8" font-family="Times,serif" font-size="14.00">Uri</text>
</g>
<!-- Section&#45;&gt;Uri -->
<g id="edge80" class="edge"><title>Section&#45;&gt;Uri</title>
<path fill="none" stroke="#2a9990" d="M1750.4,-183.159C1787.85,-177.667 1842.09,-168.156 1888,-154 1917.14,-145.015 1948.89,-130.832 1971.29,-120.032"/>
<polygon fill="#2a9990" stroke="#2a9990" points="1750.2,-183.187 1739.66,-180.147 1745.25,-183.894 1740.3,-184.601 1740.3,-184.601 1740.3,-184.601 1745.25,-183.894 1740.94,-189.056 1750.2,-183.187 1750.2,-183.187"/>
<polygon fill="#2a9990" stroke="#2a9990" points="1971.3,-120.028 1982.26,-119.679 1975.79,-117.832 1980.28,-115.636 1980.28,-115.636 1980.28,-115.636 1975.79,-117.832 1978.31,-111.593 1971.3,-120.028 1971.3,-120.028"/>
</g>
<!-- SectionHierarchy -->
<g id="node32" class="node"><title>SectionHierarchy</title>
<ellipse fill="none" stroke="black" cx="1705" cy="-104" rx="71.9704" ry="18"/>
<text text-anchor="middle" x="1705" y="-99.8" font-family="Times,serif" font-size="14.00">SectionHierarchy</text>
</g>
<!-- Section&#45;&gt;SectionHierarchy -->
<g id="edge76" class="edge"><title>Section&#45;&gt;SectionHierarchy</title>
<path fill="none" stroke="#027f72" d="M1665.97,-177.692C1654.63,-172.396 1643.54,-164.791 1636.95,-154 1629.23,-141.342 1638.42,-130.999 1652.3,-123.133"/>
<ellipse fill="none" stroke="#027f72" cx="1669.72" cy="-179.287" rx="4.00002" ry="4.00002"/>
<polygon fill="#027f72" stroke="#027f72" points="1652.49,-123.037 1663.45,-122.581 1656.96,-120.797 1661.43,-118.557 1661.43,-118.557 1661.43,-118.557 1656.96,-120.797 1659.41,-114.534 1652.49,-123.037 1652.49,-123.037"/>
<text text-anchor="middle" x="1694.52" y="-142.8" font-family="Times,serif" font-size="14.00">ancestor_hierarchies</text>
</g>
<!-- Section&#45;&gt;SectionHierarchy -->
<g id="edge78" class="edge"><title>Section&#45;&gt;SectionHierarchy</title>
<path fill="none" stroke="#a2892f" d="M1736.8,-171.743C1742.92,-166.86 1748.51,-160.944 1752,-154 1757.08,-143.877 1751.73,-134.45 1743.05,-126.622"/>
<ellipse fill="none" stroke="#a2892f" cx="1733.25" cy="-174.297" rx="4.00002" ry="4.00002"/>
<polygon fill="#a2892f" stroke="#a2892f" points="1743.02,-126.599 1737.91,-116.897 1739.08,-123.521 1735.14,-120.443 1735.14,-120.443 1735.14,-120.443 1739.08,-123.521 1732.37,-123.989 1743.02,-126.599 1743.02,-126.599"/>
<text text-anchor="middle" x="1818.3" y="-142.8" font-family="Times,serif" font-size="14.00">descendant_hierarchies</text>
</g>
<!-- Sound&#45;&gt;Association -->
<g id="edge82" class="edge"><title>Sound&#45;&gt;Association</title>
<path fill="none" stroke="#9f49ea" d="M897.534,-485.113C910.881,-482.195 926.055,-479.152 940,-477 982.035,-470.514 1286.09,-464.29 1321,-440 1346.3,-422.398 1359.3,-388.333 1365.61,-364.205"/>
<ellipse fill="none" stroke="#9f49ea" cx="893.392" cy="-486.035" rx="4.00001" ry="4.00001"/>
<polygon fill="#9f49ea" stroke="#9f49ea" points="1365.67,-363.958 1372.37,-355.277 1366.83,-359.095 1367.99,-354.231 1367.99,-354.231 1367.99,-354.231 1366.83,-359.095 1363.62,-353.186 1365.67,-363.958 1365.67,-363.958"/>
</g>
<!-- Sound&#45;&gt;CollectionAttribution -->
<g id="edge85" class="edge"><title>Sound&#45;&gt;CollectionAttribution</title>
<path fill="none" stroke="#ceea8b" d="M818.783,-493.253C693.214,-490.557 321.774,-479.297 286,-440 241.501,-391.118 338.973,-362.673 415.299,-348.491"/>
<ellipse fill="none" stroke="#ceea8b" cx="823.043" cy="-493.342" rx="4" ry="4"/>
<polygon fill="#ceea8b" stroke="#ceea8b" points="415.595,-348.438 426.234,-351.095 420.516,-347.552 425.437,-346.667 425.437,-346.667 425.437,-346.667 420.516,-347.552 424.64,-342.238 415.595,-348.438 415.595,-348.438"/>
</g>
<!-- Sound&#45;&gt;LiteratureReference -->
<g id="edge84" class="edge"><title>Sound&#45;&gt;LiteratureReference</title>
<path fill="none" stroke="#0d78a2" d="M838.041,-473.72C806.622,-444.704 748.965,-391.456 715.634,-360.673"/>
<ellipse fill="none" stroke="#0d78a2" cx="841.068" cy="-476.516" rx="4.00002" ry="4.00002"/>
<polygon fill="#0d78a2" stroke="#0d78a2" points="715.459,-360.512 711.166,-350.421 711.786,-357.12 708.112,-353.727 708.112,-353.727 708.112,-353.727 711.786,-357.12 705.059,-357.033 715.459,-360.512 715.459,-360.512"/>
</g>
<!-- Sound&#45;&gt;OldSound -->
<g id="edge86" class="edge"><title>Sound&#45;&gt;OldSound</title>
<path fill="none" stroke="#07e034" d="M826.244,-480.831C795.978,-469.024 751.487,-451.668 719.147,-439.052"/>
<ellipse fill="none" stroke="#07e034" cx="830.197" cy="-482.374" rx="4.00001" ry="4.00001"/>
<polygon fill="#07e034" stroke="#07e034" points="718.846,-438.935 711.165,-431.108 714.188,-437.117 709.53,-435.3 709.53,-435.3 709.53,-435.3 714.188,-437.117 707.894,-439.492 718.846,-438.935 718.846,-438.935"/>
</g>
<!-- Sound&#45;&gt;Translation -->
<g id="edge83" class="edge"><title>Sound&#45;&gt;Translation</title>
<path fill="none" stroke="#8d7804" d="M892.574,-479.536C908.757,-470.572 926.954,-457.417 937,-440 950.334,-416.883 951.216,-385.878 949.612,-363.943"/>
<ellipse fill="none" stroke="#8d7804" cx="888.856" cy="-481.495" rx="4.00002" ry="4.00002"/>
<polygon fill="#8d7804" stroke="#8d7804" points="949.611,-363.933 953.148,-353.554 949.139,-358.955 948.668,-353.978 948.668,-353.978 948.668,-353.978 949.139,-358.955 944.188,-354.402 949.611,-363.933 949.611,-363.933"/>
</g>
<!-- Partner -->
<g id="node23" class="node"><title>Partner</title>
<ellipse fill="none" stroke="black" cx="1623" cy="-495" rx="34.8285" ry="18"/>
<text text-anchor="middle" x="1623" y="-490.8" font-family="Times,serif" font-size="14.00">Partner</text>
</g>
<!-- Partner&#45;&gt;Node -->
<g id="edge88" class="edge"><title>Partner&#45;&gt;Node</title>
<path fill="none" stroke="#37817b" d="M1652.22,-477.132C1670.59,-466.529 1694.32,-452.831 1713.31,-441.868"/>
<ellipse fill="none" stroke="#37817b" cx="1648.74" cy="-479.143" rx="4.00002" ry="4.00002"/>
<polygon fill="#37817b" stroke="#37817b" points="1713.55,-441.73 1724.46,-440.628 1717.88,-439.231 1722.21,-436.731 1722.21,-436.731 1722.21,-436.731 1717.88,-439.231 1719.96,-432.834 1713.55,-441.73 1713.55,-441.73"/>
</g>
<!-- Partner&#45;&gt;Link -->
<g id="edge89" class="edge"><title>Partner&#45;&gt;Link</title>
<path fill="none" stroke="#77c0ce" d="M1623,-468.791C1623,-462.832 1623,-456.45 1623,-450.399"/>
<ellipse fill="none" stroke="#77c0ce" cx="1623" cy="-472.813" rx="4" ry="4"/>
<polygon fill="#77c0ce" stroke="#77c0ce" points="1623,-450.029 1627.5,-440.029 1623,-445.029 1623,-440.029 1623,-440.029 1623,-440.029 1623,-445.029 1618.5,-440.029 1623,-450.029 1623,-450.029"/>
</g>
<!-- Stylesheet -->
<g id="node24" class="node"><title>Stylesheet</title>
<ellipse fill="none" stroke="black" cx="688" cy="-603" rx="46.4132" ry="18"/>
<text text-anchor="middle" x="688" y="-598.8" font-family="Times,serif" font-size="14.00">Stylesheet</text>
</g>
<!-- Stylesheet&#45;&gt;Article -->
<g id="edge91" class="edge"><title>Stylesheet&#45;&gt;Article</title>
<path fill="none" stroke="#55b09f" d="M650.052,-585.869C614.551,-569.908 560.863,-543.495 519,-513 491.857,-493.227 464.875,-465.651 447.22,-446.249"/>
<ellipse fill="none" stroke="#55b09f" cx="654.128" cy="-587.682" rx="4.00002" ry="4.00002"/>
<polygon fill="#55b09f" stroke="#55b09f" points="447.158,-446.179 443.827,-435.731 443.818,-442.458 440.478,-438.737 440.478,-438.737 440.478,-438.737 443.818,-442.458 437.129,-441.742 447.158,-446.179 447.158,-446.179"/>
</g>
<!-- Stylesheet&#45;&gt;Map -->
<g id="edge92" class="edge"><title>Stylesheet&#45;&gt;Map</title>
<path fill="none" stroke="#14c093" d="M701.72,-578.038C718.426,-550.61 748.925,-505.773 785,-477 809.727,-457.278 842.832,-442.79 867.346,-433.814"/>
<ellipse fill="none" stroke="#14c093" cx="699.634" cy="-581.519" rx="4.00002" ry="4.00002"/>
<polygon fill="#14c093" stroke="#14c093" points="867.518,-433.754 878.446,-434.661 872.232,-432.086 876.945,-430.419 876.945,-430.419 876.945,-430.419 872.232,-432.086 875.445,-426.176 867.518,-433.754 867.518,-433.754"/>
</g>
<!-- Stylesheet&#45;&gt;OldArticle -->
<g id="edge95" class="edge"><title>Stylesheet&#45;&gt;OldArticle</title>
<path fill="none" stroke="#75e7bb" d="M668.879,-579.512C646.268,-552.22 608.38,-504.224 582,-459 580.188,-455.893 578.445,-452.543 576.819,-449.181"/>
<ellipse fill="none" stroke="#75e7bb" cx="671.447" cy="-582.592" rx="4.00002" ry="4.00002"/>
<polygon fill="#75e7bb" stroke="#75e7bb" points="576.724,-448.972 576.685,-438.006 574.656,-444.419 572.588,-439.867 572.588,-439.867 572.588,-439.867 574.656,-444.419 568.491,-441.728 576.724,-448.972 576.724,-448.972"/>
</g>
<!-- Stylesheet&#45;&gt;OldMap -->
<g id="edge96" class="edge"><title>Stylesheet&#45;&gt;OldMap</title>
<path fill="none" stroke="#489827" d="M638.022,-593.256C609.617,-587.471 573.702,-578.767 543,-567 449.035,-530.987 405.556,-538.607 344,-459 341.911,-456.299 340.302,-453.173 339.062,-449.914"/>
<ellipse fill="none" stroke="#489827" cx="642.279" cy="-594.104" rx="4.00001" ry="4.00001"/>
<polygon fill="#489827" stroke="#489827" points="338.996,-449.673 340.685,-438.838 337.671,-444.852 336.346,-440.031 336.346,-440.031 336.346,-440.031 337.671,-444.852 332.007,-441.223 338.996,-449.673 338.996,-449.673"/>
</g>
<!-- Stylesheet&#45;&gt;OldSound -->
<g id="edge97" class="edge"><title>Stylesheet&#45;&gt;OldSound</title>
<path fill="none" stroke="#226462" d="M686.579,-576.557C684.712,-543.14 681.446,-484.691 679.528,-450.351"/>
<ellipse fill="none" stroke="#226462" cx="686.818" cy="-580.843" rx="4" ry="4"/>
<polygon fill="#226462" stroke="#226462" points="679.514,-450.096 683.449,-439.86 679.235,-445.104 678.956,-440.111 678.956,-440.111 678.956,-440.111 679.235,-445.104 674.463,-440.362 679.514,-450.096 679.514,-450.096"/>
</g>
<!-- Stylesheet&#45;&gt;OldVideo -->
<g id="edge98" class="edge"><title>Stylesheet&#45;&gt;OldVideo</title>
<path fill="none" stroke="#0658bf" d="M716.78,-581.891C722.963,-577.21 729.336,-572.099 735,-567 745.11,-557.898 806.324,-483.98 818,-477 844.865,-460.942 925.43,-442.962 978.6,-432.331"/>
<ellipse fill="none" stroke="#0658bf" cx="713.402" cy="-584.396" rx="4.00002" ry="4.00002"/>
<polygon fill="#0658bf" stroke="#0658bf" points="978.707,-432.31 989.39,-434.785 983.612,-431.34 988.517,-430.37 988.517,-430.37 988.517,-430.37 983.612,-431.34 987.644,-425.956 978.707,-432.31 978.707,-432.31"/>
</g>
<!-- Stylesheet&#45;&gt;Sound -->
<g id="edge93" class="edge"><title>Stylesheet&#45;&gt;Sound</title>
<path fill="none" stroke="#32d4af" d="M729.87,-587.59C744.001,-581.996 759.583,-574.998 773,-567 796.314,-553.103 820,-533.323 836.759,-518.169"/>
<ellipse fill="none" stroke="#32d4af" cx="725.924" cy="-589.112" rx="4.00001" ry="4.00001"/>
<polygon fill="#32d4af" stroke="#32d4af" points="837.035,-517.915 847.443,-514.46 840.716,-514.531 844.397,-511.147 844.397,-511.147 844.397,-511.147 840.716,-514.531 841.352,-507.834 837.035,-517.915 837.035,-517.915"/>
</g>
<!-- Stylesheet&#45;&gt;Video -->
<g id="edge94" class="edge"><title>Stylesheet&#45;&gt;Video</title>
<path fill="none" stroke="#0c5c6a" d="M731.029,-588.784C735.405,-587.486 739.787,-586.205 744,-585 773.645,-576.521 781.831,-576.994 811,-567 859.363,-550.429 913.577,-526.698 947.254,-511.317"/>
<ellipse fill="none" stroke="#0c5c6a" cx="727.031" cy="-589.98" rx="4.00001" ry="4.00001"/>
<polygon fill="#0c5c6a" stroke="#0c5c6a" points="947.515,-511.197 958.481,-511.11 952.058,-509.109 956.602,-507.021 956.602,-507.021 956.602,-507.021 952.058,-509.109 954.723,-502.932 947.515,-511.197 947.515,-511.197"/>
</g>
<!-- Synth -->
<g id="node25" class="node"><title>Synth</title>
<ellipse fill="none" stroke="black" cx="1678" cy="-603" rx="30.9967" ry="18"/>
<text text-anchor="middle" x="1678" y="-598.8" font-family="Times,serif" font-size="14.00">Synth</text>
</g>
<!-- Synth&#45;&gt;Association -->
<g id="edge100" class="edge"><title>Synth&#45;&gt;Association</title>
<path fill="none" stroke="#5cf33c" d="M1683.76,-577.09C1691.71,-535.86 1700.73,-453.118 1659,-404 1629.95,-369.812 1506.33,-351.076 1430.8,-342.629"/>
<ellipse fill="none" stroke="#5cf33c" cx="1682.95" cy="-581.076" rx="4.00001" ry="4.00001"/>
<polygon fill="#5cf33c" stroke="#5cf33c" points="1430.42,-342.588 1420.97,-337.031 1425.45,-342.046 1420.48,-341.505 1420.48,-341.505 1420.48,-341.505 1425.45,-342.046 1419.99,-345.978 1430.42,-342.588 1430.42,-342.588"/>
</g>
<!-- Synth&#45;&gt;Node -->
<g id="edge101" class="edge"><title>Synth&#45;&gt;Node</title>
<path fill="none" stroke="#86f024" d="M1693.47,-579.212C1695.83,-575.235 1698.11,-571.068 1700,-567 1718.23,-527.788 1732.05,-479.4 1739.58,-449.891"/>
<ellipse fill="none" stroke="#86f024" cx="1691.29" cy="-582.703" rx="4.00002" ry="4.00002"/>
<polygon fill="#86f024" stroke="#86f024" points="1739.65,-449.628 1746.44,-441.016 1740.86,-444.777 1742.07,-439.926 1742.07,-439.926 1742.07,-439.926 1740.86,-444.777 1737.71,-438.836 1739.65,-449.628 1739.65,-449.628"/>
</g>
<!-- Synth&#45;&gt;Partner -->
<g id="edge102" class="edge"><title>Synth&#45;&gt;Partner</title>
<path fill="none" stroke="#aaad02" d="M1664.68,-576.321C1656.06,-559.707 1644.88,-538.162 1636.27,-521.569"/>
<polygon fill="#aaad02" stroke="#aaad02" points="1664.8,-576.561 1665.41,-587.51 1667.1,-580.999 1669.41,-585.438 1669.41,-585.438 1669.41,-585.438 1667.1,-580.999 1673.4,-583.365 1664.8,-576.561 1664.8,-576.561"/>
<polygon fill="#aaad02" stroke="#aaad02" points="1636.14,-521.322 1635.53,-510.374 1633.84,-516.884 1631.53,-512.446 1631.53,-512.446 1631.53,-512.446 1633.84,-516.884 1627.54,-514.519 1636.14,-521.322 1636.14,-521.322"/>
</g>
<!-- Trait&#45;&gt;Section -->
<g id="edge105" class="edge"><title>Trait&#45;&gt;Section</title>
<path fill="none" stroke="#9f5b34" d="M1705,-234.753C1705,-229.276 1705,-223.521 1705,-218.051"/>
<polygon fill="#9f5b34" stroke="#9f5b34" points="1705,-234.813 1700.5,-244.813 1705,-239.813 1705,-244.813 1705,-244.813 1705,-244.813 1705,-239.813 1709.5,-244.813 1705,-234.813 1705,-234.813"/>
<polygon fill="#9f5b34" stroke="#9f5b34" points="1705,-218.029 1709.5,-208.029 1705,-213.029 1705,-208.029 1705,-208.029 1705,-208.029 1705,-213.029 1700.5,-208.029 1705,-218.029 1705,-218.029"/>
</g>
<!-- Trait&#45;&gt;Trait -->
<g id="edge104" class="edge"><title>Trait&#45;&gt;Trait</title>
<path fill="none" stroke="#ea1771" d="M1738.83,-269.441C1745.36,-268.685 1750,-266.538 1750,-263 1750,-259.77 1746.14,-257.699 1740.49,-256.788"/>
<ellipse fill="none" stroke="#ea1771" cx="1734.44" cy="-269.572" rx="4" ry="4"/>
<polygon fill="#ea1771" stroke="#ea1771" points="1740.43,-256.785 1730.66,-251.814 1735.44,-256.547 1730.44,-256.309 1730.44,-256.309 1730.44,-256.309 1735.44,-256.547 1730.23,-260.804 1740.43,-256.785 1740.43,-256.785"/>
</g>
<!-- Uri&#45;&gt;Uri -->
<g id="edge109" class="edge"><title>Uri&#45;&gt;Uri</title>
<path fill="none" stroke="#db9e75" d="M2036.05,-106.442C2041.94,-106.102 2046,-105.288 2046,-104 2046,-102.855 2042.79,-102.085 2037.94,-101.689"/>
<ellipse fill="none" stroke="#db9e75" cx="2031.79" cy="-106.533" rx="4" ry="4"/>
<polygon fill="#db9e75" stroke="#db9e75" points="2037.79,-101.684 2027.93,-96.8828 2032.79,-101.532 2027.79,-101.381 2027.79,-101.381 2027.79,-101.381 2032.79,-101.532 2027.66,-105.879 2037.79,-101.684 2037.79,-101.684"/>
<text text-anchor="middle" x="2074.37" y="-99.8" font-family="Times,serif" font-size="14.00">predicates</text>
</g>
<!-- Uri&#45;&gt;Uri -->
<g id="edge110" class="edge"><title>Uri&#45;&gt;Uri</title>
<path fill="none" stroke="#eda19b" d="M2036.09,-108.634C2066.36,-110.244 2102.75,-108.699 2102.75,-104 2102.75,-99.4016 2067.9,-97.8239 2038.04,-99.2671"/>
<ellipse fill="none" stroke="#eda19b" cx="2031.74" cy="-108.354" rx="4" ry="4"/>
<polygon fill="#eda19b" stroke="#eda19b" points="2037.73,-99.2861 2027.47,-95.4121 2032.74,-99.5948 2027.75,-99.9036 2027.75,-99.9036 2027.75,-99.9036 2032.74,-99.5948 2028.03,-104.395 2037.73,-99.2861 2037.73,-99.2861"/>
<text text-anchor="middle" x="2122.57" y="-99.8" font-family="Times,serif" font-size="14.00">objects</text>
</g>
<!-- Uri&#45;&gt;Uri -->
<g id="edge111" class="edge"><title>Uri&#45;&gt;Uri</title>
<path fill="none" stroke="#92faaf" d="M2035.04,-109.956C2078.6,-113.827 2142.4,-111.841 2142.4,-104 2142.4,-96.2728 2080.44,-94.2322 2036.96,-97.8783"/>
<ellipse fill="none" stroke="#92faaf" cx="2030.88" cy="-109.536" rx="4" ry="4"/>
<polygon fill="#92faaf" stroke="#92faaf" points="2036.85,-97.8888 2026.46,-94.3863 2031.87,-98.3768 2026.9,-98.8648 2026.9,-98.8648 2026.9,-98.8648 2031.87,-98.3768 2027.34,-103.343 2036.85,-97.8888 2036.85,-97.8888"/>
<text text-anchor="middle" x="2181.29" y="-99.8" font-family="Times,serif" font-size="14.00">original_units</text>
</g>
<!-- Uri::Translation -->
<g id="node33" class="node"><title>Uri::Translation</title>
<ellipse fill="none" stroke="black" cx="2001" cy="-18" rx="66.5558" ry="18"/>
<text text-anchor="middle" x="2001" y="-13.8" font-family="Times,serif" font-size="14.00">Uri::Translation</text>
</g>
<!-- Uri&#45;&gt;Uri::Translation -->
<g id="edge108" class="edge"><title>Uri&#45;&gt;Uri::Translation</title>
<path fill="none" stroke="#a4bdb5" d="M2001,-77.2567C2001,-67.4415 2001,-56.2256 2001,-46.2729"/>
<ellipse fill="none" stroke="#a4bdb5" cx="2001" cy="-81.5951" rx="4" ry="4"/>
<polygon fill="#a4bdb5" stroke="#a4bdb5" points="2001,-46.0952 2005.5,-36.0951 2001,-41.0952 2001,-36.0952 2001,-36.0952 2001,-36.0952 2001,-41.0952 1996.5,-36.0952 2001,-46.0952 2001,-46.0952"/>
<text text-anchor="middle" x="2033.27" y="-56.8" font-family="Times,serif" font-size="14.00">translations</text>
</g>
<!-- Video&#45;&gt;Association -->
<g id="edge113" class="edge"><title>Video&#45;&gt;Association</title>
<path fill="none" stroke="#3d3ecc" d="M1018.19,-489.399C1110.68,-478.134 1340.15,-449.402 1354,-440 1376.89,-424.454 1377.87,-412.739 1385,-386 1386.97,-378.595 1386.01,-370.59 1383.87,-363.241"/>
<ellipse fill="none" stroke="#3d3ecc" cx="1014.17" cy="-489.888" rx="4.00001" ry="4.00001"/>
<polygon fill="#3d3ecc" stroke="#3d3ecc" points="1383.83,-363.13 1384.61,-352.192 1382.11,-358.436 1380.39,-353.741 1380.39,-353.741 1380.39,-353.741 1382.11,-358.436 1376.16,-355.29 1383.83,-363.13 1383.83,-363.13"/>
</g>
<!-- Video&#45;&gt;CollectionAttribution -->
<g id="edge116" class="edge"><title>Video&#45;&gt;CollectionAttribution</title>
<path fill="none" stroke="#6a7c75" d="M944.068,-485.218C930.9,-482.252 915.836,-479.151 902,-477 815.322,-463.524 572.292,-500.736 509,-440 489.014,-420.821 487.961,-387.613 490.323,-364.093"/>
<ellipse fill="none" stroke="#6a7c75" cx="948.095" cy="-486.143" rx="4.00001" ry="4.00001"/>
<polygon fill="#6a7c75" stroke="#6a7c75" points="490.338,-363.975 496.057,-354.619 490.965,-359.014 491.592,-354.054 491.592,-354.054 491.592,-354.054 490.965,-359.014 487.128,-353.489 490.338,-363.975 490.338,-363.975"/>
</g>
<!-- Video&#45;&gt;LiteratureReference -->
<g id="edge115" class="edge"><title>Video&#45;&gt;LiteratureReference</title>
<path fill="none" stroke="#396245" d="M948.353,-480.097C925.033,-469.622 892.692,-454.611 865,-440 858.01,-436.312 774.932,-387.244 725.801,-358.186"/>
<ellipse fill="none" stroke="#396245" cx="952.244" cy="-481.836" rx="4.00002" ry="4.00002"/>
<polygon fill="#396245" stroke="#396245" points="725.655,-358.1 719.339,-349.135 721.352,-355.554 717.048,-353.009 717.048,-353.009 717.048,-353.009 721.352,-355.554 714.757,-356.882 725.655,-358.1 725.655,-358.1"/>
</g>
<!-- Video&#45;&gt;OldVideo -->
<g id="edge117" class="edge"><title>Video&#45;&gt;OldVideo</title>
<path fill="none" stroke="#a78e80" d="M995.491,-471.086C1000.48,-463.702 1006.04,-455.485 1011.12,-447.961"/>
<ellipse fill="none" stroke="#a78e80" cx="993.132" cy="-474.575" rx="4.00002" ry="4.00002"/>
<polygon fill="#a78e80" stroke="#a78e80" points="1011.22,-447.824 1020.55,-442.06 1014.02,-443.682 1016.82,-439.54 1016.82,-439.54 1016.82,-439.54 1014.02,-443.682 1013.09,-437.02 1011.22,-447.824 1011.22,-447.824"/>
</g>
<!-- Video&#45;&gt;Translation -->
<g id="edge114" class="edge"><title>Video&#45;&gt;Translation</title>
<path fill="none" stroke="#c8995a" d="M1013.07,-481.197C1062.43,-460.225 1145.94,-416.424 1110,-372 1096.76,-355.639 1046.17,-346.594 1004.63,-341.821"/>
<ellipse fill="none" stroke="#c8995a" cx="1009.15" cy="-482.826" rx="4.00001" ry="4.00001"/>
<polygon fill="#c8995a" stroke="#c8995a" points="1004.51,-341.808 995.059,-336.252 999.542,-341.267 994.572,-340.726 994.572,-340.726 994.572,-340.726 999.542,-341.267 994.085,-345.199 1004.51,-341.808 1004.51,-341.808"/>
</g>
<!-- ActiveRecord::Base -->
<g id="node30" class="node"><title>ActiveRecord::Base</title>
<ellipse fill="none" stroke="black" cx="925" cy="-694.5" rx="81.1422" ry="18"/>
<text text-anchor="middle" x="925" y="-690.3" font-family="Times,serif" font-size="14.00">ActiveRecord::Base</text>
</g>
<!-- ActiveRecord::Base&#45;&gt;Appearance -->
<g id="edge1" class="edge"><title>ActiveRecord::Base&#45;&gt;Appearance</title>
<path fill="none" stroke="black" d="M892.907,-677.774C876.086,-670.329 854.892,-662.17 835,-658 761.92,-642.68 214.132,-676.338 164,-621 136.741,-590.91 160.549,-539.499 176.097,-512.961"/>
</g>
<!-- ActiveRecord::Base&#45;&gt;Article -->
<g id="edge6" class="edge"><title>ActiveRecord::Base&#45;&gt;Article</title>
<path fill="none" stroke="black" d="M891.965,-677.869C875.256,-670.639 854.442,-662.641 835,-658 711.191,-628.442 655.437,-693.77 551,-621 484.111,-574.393 445.816,-478.913 432.449,-440.037"/>
</g>
<!-- ActiveRecord::Base&#45;&gt;Association -->
<g id="edge8" class="edge"><title>ActiveRecord::Base&#45;&gt;Association</title>
<path fill="none" stroke="black" d="M1003.9,-689.755C1113.78,-683.568 1306.54,-668.917 1370,-640 1473.82,-592.694 1478.09,-517.87 1471,-404 1470.11,-389.695 1475.93,-383.21 1467,-372 1455.06,-357.016 1436.11,-348.445 1418.19,-343.544"/>
</g>
<!-- ActiveRecord::Base&#45;&gt;CollectionAttribution -->
<g id="edge9" class="edge"><title>ActiveRecord::Base&#45;&gt;CollectionAttribution</title>
<path fill="none" stroke="black" d="M893.34,-677.879C876.457,-670.363 855.076,-662.108 835,-658 694.739,-629.301 332.74,-660.16 191,-640 135.03,-632.039 69,-660.534 69,-604 69,-604 69,-604 69,-421 69,-352.402 284.314,-338.885 408.793,-336.803"/>
</g>
<!-- ActiveRecord::Base&#45;&gt;Node -->
<g id="edge16" class="edge"><title>ActiveRecord::Base&#45;&gt;Node</title>
<path fill="none" stroke="black" d="M1005.57,-691.988C1197.48,-687.575 1669.25,-671.638 1718,-621 1766.16,-570.979 1756.16,-478.266 1749.48,-440.098"/>
</g>
<!-- ActiveRecord::Base&#45;&gt;Image -->
<g id="edge22" class="edge"><title>ActiveRecord::Base&#45;&gt;Image</title>
<path fill="none" stroke="black" d="M1004.5,-690.554C1046.38,-684.992 1095.8,-671.499 1129,-640 1164.99,-605.863 1172.91,-543.643 1174.59,-513.413"/>
</g>
<!-- ActiveRecord::Base&#45;&gt;Javascript -->
<g id="edge31" class="edge"><title>ActiveRecord::Base&#45;&gt;Javascript</title>
<path fill="none" stroke="black" d="M901.706,-677.084C878.218,-660.532 842.263,-635.193 819.454,-619.119"/>
</g>
<!-- ActiveRecord::Base&#45;&gt;License -->
<g id="edge32" class="edge"><title>ActiveRecord::Base&#45;&gt;License</title>
<path fill="none" stroke="black" d="M892.879,-677.908C876.05,-670.498 854.857,-662.33 835,-658 762.16,-642.117 570.539,-664.131 500,-640 487.118,-635.593 474.515,-627.009 464.943,-619.328"/>
</g>
<!-- ActiveRecord::Base&#45;&gt;Link -->
<g id="edge33" class="edge"><title>ActiveRecord::Base&#45;&gt;Link</title>
<path fill="none" stroke="black" d="M1005.48,-691.54C1162.14,-686.998 1496.27,-673.467 1536,-640 1593.3,-591.727 1545.01,-543.771 1579,-477 1586.57,-462.127 1598.76,-447.597 1608.4,-437.363"/>
</g>
<!-- ActiveRecord::Base&#45;&gt;LiteratureReference -->
<g id="edge34" class="edge"><title>ActiveRecord::Base&#45;&gt;LiteratureReference</title>
<path fill="none" stroke="black" d="M893.338,-677.886C876.455,-670.372 855.074,-662.116 835,-658 760.114,-642.644 199.387,-677.596 148,-621 104.479,-573.067 92.432,-532.361 126,-477 179.692,-388.451 233.794,-398.123 334,-372 444.37,-343.227 476.752,-367.574 590,-354 603.026,-352.439 616.94,-350.346 630.121,-348.164"/>
</g>
<!-- ActiveRecord::Base&#45;&gt;Map -->
<g id="edge39" class="edge"><title>ActiveRecord::Base&#45;&gt;Map</title>
<path fill="none" stroke="black" d="M943.032,-676.859C981.47,-639.332 1064.47,-546.007 1020,-477 999.601,-445.342 955.621,-432.035 927.219,-426.591"/>
</g>
<!-- ActiveRecord::Base&#45;&gt;Name -->
<g id="edge43" class="edge"><title>ActiveRecord::Base&#45;&gt;Name</title>
<path fill="none" stroke="black" d="M892.906,-677.782C876.084,-670.339 854.89,-662.179 835,-658 733.365,-636.643 465.32,-676.258 368,-640 356.375,-635.669 345.453,-627.087 337.282,-619.389"/>
</g>
<!-- ActiveRecord::Base&#45;&gt;OldArticle -->
<g id="edge48" class="edge"><title>ActiveRecord::Base&#45;&gt;OldArticle</title>
<path fill="none" stroke="black" d="M891.96,-677.894C875.248,-670.669 854.435,-662.67 835,-658 753.816,-638.491 727.848,-664.407 648,-640 631.073,-634.826 627.832,-630.659 613,-621 580.073,-599.559 560.333,-602.263 543,-567 522.227,-524.74 543.781,-467.872 557.122,-439.933"/>
</g>
<!-- ActiveRecord::Base&#45;&gt;OldImage -->
<g id="edge54" class="edge"><title>ActiveRecord::Base&#45;&gt;OldImage</title>
<path fill="none" stroke="black" d="M992.265,-684.301C1036.63,-676.499 1095.17,-662.827 1143,-640 1155.6,-633.989 1159.34,-631.943 1168,-621 1213.64,-563.34 1237.14,-476.428 1245.44,-440.006"/>
</g>
<!-- ActiveRecord::Base&#45;&gt;OldMap -->
<g id="edge59" class="edge"><title>ActiveRecord::Base&#45;&gt;OldMap</title>
<path fill="none" stroke="black" d="M892.88,-677.901C876.051,-670.489 854.859,-662.322 835,-658 740.42,-637.415 474.716,-683.73 401,-621 345.672,-573.917 336.525,-479.131 335.16,-440.245"/>
</g>
<!-- ActiveRecord::Base&#45;&gt;OldSound -->
<g id="edge65" class="edge"><title>ActiveRecord::Base&#45;&gt;OldSound</title>
<path fill="none" stroke="black" d="M890.499,-678.066C873.969,-671.146 853.734,-663.355 835,-658 747.244,-632.914 691.436,-691.112 633,-621 587.861,-566.842 640.717,-476.456 666.002,-439.504"/>
</g>
<!-- ActiveRecord::Base&#45;&gt;OldVideo -->
<g id="edge70" class="edge"><title>ActiveRecord::Base&#45;&gt;OldVideo</title>
<path fill="none" stroke="black" d="M951.582,-677.48C971.636,-664.326 998.724,-644.14 1017,-621 1033.39,-600.245 1035.95,-592.747 1042,-567 1053.08,-519.821 1055.86,-505.23 1045,-458 1043.58,-451.812 1040.91,-445.449 1038.1,-439.874"/>
</g>
<!-- ActiveRecord::Base&#45;&gt;Publication -->
<g id="edge72" class="edge"><title>ActiveRecord::Base&#45;&gt;Publication</title>
<path fill="none" stroke="black" d="M892.906,-677.779C876.084,-670.335 854.89,-662.175 835,-658 629.548,-614.872 571.002,-668.389 363,-640 327.069,-635.096 287.096,-624.258 259.091,-615.748"/>
</g>
<!-- ActiveRecord::Base&#45;&gt;Role -->
<g id="edge74" class="edge"><title>ActiveRecord::Base&#45;&gt;Role</title>
<path fill="none" stroke="black" d="M893.348,-677.839C876.467,-670.312 855.086,-662.059 835,-658 792.514,-649.415 89.6075,-666.098 55,-640 32.5279,-623.054 27.6131,-588.252 26.8071,-567.237"/>
</g>
<!-- ActiveRecord::Base&#45;&gt;Section -->
<g id="edge81" class="edge"><title>ActiveRecord::Base&#45;&gt;Section</title>
<path fill="none" stroke="black" d="M1005.52,-691.619C1132.59,-687.115 1371.99,-671.928 1438,-621 1496.87,-575.576 1568,-433.711 1568,-380 1568,-380 1568,-380 1568,-262 1568,-216.325 1628.77,-199.996 1669.36,-194.184"/>
</g>
<!-- ActiveRecord::Base&#45;&gt;Sound -->
<g id="edge87" class="edge"><title>ActiveRecord::Base&#45;&gt;Sound</title>
<path fill="none" stroke="black" d="M919.345,-676.319C907.022,-638.873 877.865,-550.282 865.595,-513.001"/>
</g>
<!-- ActiveRecord::Base&#45;&gt;Partner -->
<g id="edge90" class="edge"><title>ActiveRecord::Base&#45;&gt;Partner</title>
<path fill="none" stroke="black" d="M1005.53,-691.742C1169.44,-687.468 1530.1,-674.249 1574,-640 1613.77,-608.974 1621.47,-544.086 1622.82,-513.136"/>
</g>
<!-- ActiveRecord::Base&#45;&gt;Stylesheet -->
<g id="edge99" class="edge"><title>ActiveRecord::Base&#45;&gt;Stylesheet</title>
<path fill="none" stroke="black" d="M887.419,-678.447C871.311,-672.055 852.267,-664.576 835,-658 795.871,-643.099 750.623,-626.584 720.778,-615.79"/>
</g>
<!-- ActiveRecord::Base&#45;&gt;Synth -->
<g id="edge103" class="edge"><title>ActiveRecord::Base&#45;&gt;Synth</title>
<path fill="none" stroke="black" d="M1005.88,-692.523C1164.95,-689.753 1512.76,-679.259 1625,-640 1638.44,-635.299 1651.69,-626.299 1661.58,-618.474"/>
</g>
<!-- ActiveRecord::Base&#45;&gt;Trait -->
<g id="edge106" class="edge"><title>ActiveRecord::Base&#45;&gt;Trait</title>
<path fill="none" stroke="black" d="M1005.73,-691.792C1277.32,-685.52 2141,-661.088 2141,-604 2141,-604 2141,-604 2141,-335 2141,-293.347 1827,-271.258 1731.94,-265.525"/>
</g>
<!-- ActiveRecord::Base&#45;&gt;Translation -->
<g id="edge107" class="edge"><title>ActiveRecord::Base&#45;&gt;Translation</title>
<path fill="none" stroke="black" d="M1006.51,-693.828C1136.93,-692.126 1378,-678.855 1378,-604 1378,-604 1378,-604 1378,-458 1378,-405.797 1344.77,-395.19 1298,-372 1246.21,-346.321 1080.25,-339.482 996.03,-337.661"/>
</g>
<!-- ActiveRecord::Base&#45;&gt;Uri -->
<g id="edge112" class="edge"><title>ActiveRecord::Base&#45;&gt;Uri</title>
<path fill="none" stroke="black" d="M1005.83,-691.974C1283.16,-686.213 2179,-663.033 2179,-604 2179,-604 2179,-604 2179,-189 2179,-123.05 2077.83,-108.797 2028.03,-105.776"/>
</g>
<!-- ActiveRecord::Base&#45;&gt;Video -->
<g id="edge118" class="edge"><title>ActiveRecord::Base&#45;&gt;Video</title>
<path fill="none" stroke="black" d="M930.225,-676.369C937.577,-652.102 951.277,-606.293 962,-567 967.022,-548.598 972.339,-527.385 975.88,-512.973"/>
</g>
</g>
</svg>
