<?xml version="1.0" encoding="utf-8"?>
<!-- Generator: Adobe Illustrator 18.1.0, SVG Export Plug-In . SVG Version: 6.00 Build 0)  -->
<!DOCTYPE svg PUBLIC "-//W3C//DTD SVG 1.1//EN" "http://www.w3.org/Graphics/SVG/1.1/DTD/svg11.dtd">
<svg version="1.1" id="Layer_1" xmlns="http://www.w3.org/2000/svg" xmlns:xlink="http://www.w3.org/1999/xlink" x="0px" y="0px"
	 viewBox="1177 -534 2965 1861" enable-background="new 1177 -534 2965 1861" xml:space="preserve">
<rect x="1597" y="-79" fill="#FED9B9" stroke="#5B3B14" width="1389" height="413"/>
<rect x="1858.7" y="-25.3" fill="#DFF0DF" stroke="#276D45" width="890" height="329.7"/>
<title>models_diagram</title>
<g id="node1">
	<title>_diagram_info</title>
	<text transform="matrix(1 0 0 1 2203.7021 -515.4961)" font-family="'Times-Roman'" font-size="12.9985">Models diagram</text>
	<text transform="matrix(1 0 0 1 2203.7021 -502.4976)" font-family="'Times-Roman'" font-size="12.9985">Date: Oct 13 2014 - 15:09</text>
	<text transform="matrix(1 0 0 1 2203.7021 -489.499)" font-family="'Times-Roman'" font-size="12.9985">Migration version: 20141013190813</text>
	<text transform="matrix(1 0 0 1 2203.7021 -476.5004)" font-family="'Times-Roman'" font-size="12.9985">Generated by RailRoady 1.1.2</text>
	<text transform="matrix(1 0 0 1 2203.7021 -463.502)" font-family="'Times-Roman'" font-size="12.9985">http://railroady.prestonlee.com</text>
</g>
<g id="node2">
	<title>Appearance</title>
	<path fill="none" stroke="#000000" d="M3025.5,317.2h119.1c6,0,12-6,12-12v-104c0-6-6-12-12-12h-119.1c-6,0-12,6-12,12v104
		C3013.5,311.2,3019.5,317.2,3025.5,317.2"/>
	<text transform="matrix(1 0 0 1 3051.6763 204.3717)" font-family="'Times-Roman'" font-size="13.9984">Appearance</text>
	<line fill="none" stroke="#000000" x1="3013.5" y1="211.2" x2="3156.7" y2="211.2"/>
	<text transform="matrix(1 0 0 1 3021.5337 226.3698)" font-family="'Times-Roman'" font-size="13.9984">id :integer</text>
	<text transform="matrix(1 0 0 1 3021.5337 240.3678)" font-family="'Times-Roman'" font-size="13.9984">name_id :integer</text>
	<text transform="matrix(1 0 0 1 3021.5337 254.3659)" font-family="'Times-Roman'" font-size="13.9984">publication_id :integer</text>
	<text transform="matrix(1 0 0 1 3021.5337 268.3649)" font-family="'Times-Roman'" font-size="13.9984">page :string</text>
	<text transform="matrix(1 0 0 1 3021.5337 282.3629)" font-family="'Times-Roman'" font-size="13.9984">url_snippet :string</text>
	<text transform="matrix(1 0 0 1 3021.5337 296.361)" font-family="'Times-Roman'" font-size="13.9984">created_at :datetime</text>
	<text transform="matrix(1 0 0 1 3021.5337 310.36)" font-family="'Times-Roman'" font-size="13.9984">updated_at :datetime</text>
</g>
<g id="node3">
	<title>Article</title>
	<path fill="none" stroke="#000000" d="M1909.4,240.2h111.3c6,0,12-6,12-12v-202c0-6-6-12-12-12h-111.3c-6,0-12,6-12,12v202
		C1897.4,234.2,1903.4,240.2,1909.4,240.2"/>
	<text transform="matrix(1 0 0 1 1945.6843 29.4003)" font-family="'Times-Roman'" font-size="13.9984">Article</text>
	<line fill="none" stroke="#000000" x1="1897.4" y1="36.2" x2="2032.8" y2="36.2"/>
	<text transform="matrix(1 0 0 1 1905.446 51.3974)" font-family="'Times-Roman'" font-size="13.9984">id :integer</text>
	<text transform="matrix(1 0 0 1 1905.446 65.3954)" font-family="'Times-Roman'" font-size="13.9984">guid :string</text>
	<text transform="matrix(1 0 0 1 1905.446 79.3945)" font-family="'Times-Roman'" font-size="13.9984">locale :integer</text>
	<text transform="matrix(1 0 0 1 1905.446 93.3925)" font-family="'Times-Roman'" font-size="13.9984">preview :boolean</text>
	<text transform="matrix(1 0 0 1 1905.446 107.3906)" font-family="'Times-Roman'" font-size="13.9984">section_id :integer</text>
	<text transform="matrix(1 0 0 1 1905.446 121.3896)" font-family="'Times-Roman'" font-size="13.9984">title :string</text>
	<text transform="matrix(1 0 0 1 1905.446 135.3876)" font-family="'Times-Roman'" font-size="13.9984">body :text</text>
	<text transform="matrix(1 0 0 1 1905.446 149.3857)" font-family="'Times-Roman'" font-size="13.9984">copyright :string</text>
	<text transform="matrix(1 0 0 1 1905.446 163.3847)" font-family="'Times-Roman'" font-size="13.9984">license_id :integer</text>
	<text transform="matrix(1 0 0 1 1905.446 177.3828)" font-family="'Times-Roman'" font-size="13.9984">original_url :string</text>
	<text transform="matrix(1 0 0 1 1905.446 191.3818)" font-family="'Times-Roman'" font-size="13.9984">javascript_id :integer</text>
	<text transform="matrix(1 0 0 1 1905.446 205.3798)" font-family="'Times-Roman'" font-size="13.9984">stylesheet_id :integer</text>
	<text transform="matrix(1 0 0 1 1905.446 219.3779)" font-family="'Times-Roman'" font-size="13.9984">created_at :datetime</text>
	<text transform="matrix(1 0 0 1 1905.446 233.3769)" font-family="'Times-Roman'" font-size="13.9984">updated_at :datetime</text>
</g>
<g id="node4">
	<title>Association</title>
	<path fill="none" stroke="#000000" d="M2231.7-164.1h109c6,0,12-6,12-12v-202c0-6-6-12-12-12h-109c-6,0-12,6-12,12v202
		C2219.7-170.1,2225.7-164.1,2231.7-164.1"/>
	<text transform="matrix(1 0 0 1 2253.1765 -374.9135)" font-family="'Times-Roman'" font-size="13.9984">Association</text>
	<line fill="none" stroke="#000000" x1="2219.7" y1="-368.1" x2="2352.7" y2="-368.1"/>
	<text transform="matrix(1 0 0 1 2227.7214 -352.9164)" font-family="'Times-Roman'" font-size="13.9984">id :integer</text>
	<text transform="matrix(1 0 0 1 2227.7214 -338.9183)" font-family="'Times-Roman'" font-size="13.9984">parent_type :string</text>
	<text transform="matrix(1 0 0 1 2227.7214 -324.9193)" font-family="'Times-Roman'" font-size="13.9984">parent_id :integer</text>
	<text transform="matrix(1 0 0 1 2227.7214 -310.9213)" font-family="'Times-Roman'" font-size="13.9984">child_type :string</text>
	<text transform="matrix(1 0 0 1 2227.7214 -296.9222)" font-family="'Times-Roman'" font-size="13.9984">child_id :integer</text>
	<text transform="matrix(1 0 0 1 2227.7214 -282.9242)" font-family="'Times-Roman'" font-size="13.9984">trusted :boolean</text>
	<text transform="matrix(1 0 0 1 2227.7214 -268.9261)" font-family="'Times-Roman'" font-size="13.9984">reviewed :boolean</text>
	<text transform="matrix(1 0 0 1 2227.7214 -254.9271)" font-family="'Times-Roman'" font-size="13.9984">visible :boolean</text>
	<text transform="matrix(1 0 0 1 2227.7214 -240.9291)" font-family="'Times-Roman'" font-size="13.9984">overview :boolean</text>
	<text transform="matrix(1 0 0 1 2227.7214 -226.931)" font-family="'Times-Roman'" font-size="13.9984">position :integer</text>
	<text transform="matrix(1 0 0 1 2227.7214 -212.932)" font-family="'Times-Roman'" font-size="13.9984">rating :float</text>
	<text transform="matrix(1 0 0 1 2227.7214 -198.934)" font-family="'Times-Roman'" font-size="13.9984">num_ratings :integer</text>
	<text transform="matrix(1 0 0 1 2227.7214 -184.9359)" font-family="'Times-Roman'" font-size="13.9984">created_at :datetime</text>
	<text transform="matrix(1 0 0 1 2227.7214 -170.9369)" font-family="'Times-Roman'" font-size="13.9984">updated_at :datetime</text>
</g>
<g id="node5">
	<title>Attribution</title>
	<path fill="none" stroke="#000000" d="M2361.3,537.5h115.2c6,0,12-6,12-12v-118c0-6-6-12-12-12h-115.2c-6,0-12,6-12,12v118
		C2349.3,531.5,2355.3,537.5,2361.3,537.5"/>
	<text transform="matrix(1 0 0 1 2358.6243 410.7579)" font-family="'Times-Roman'" font-size="13.9984">Attribution</text>
	<line fill="none" stroke="#000000" x1="2349.3" y1="417.6" x2="2488.5" y2="417.6"/>
	<text transform="matrix(1 0 0 1 2357.2747 432.755)" font-family="'Times-Roman'" font-size="13.9984">id :integer</text>
	<text transform="matrix(1 0 0 1 2357.2747 446.754)" font-family="'Times-Roman'" font-size="13.9984">medium_type :integer</text>
	<text transform="matrix(1 0 0 1 2357.2747 460.7521)" font-family="'Times-Roman'" font-size="13.9984">medium_id :integer</text>
	<text transform="matrix(1 0 0 1 2357.2747 474.7501)" font-family="'Times-Roman'" font-size="13.9984">who :string</text>
	<text transform="matrix(1 0 0 1 2357.2747 488.7491)" font-family="'Times-Roman'" font-size="13.9984">url :string</text>
	<text transform="matrix(1 0 0 1 2357.2747 502.7472)" font-family="'Times-Roman'" font-size="13.9984">role_id :integer</text>
	<text transform="matrix(1 0 0 1 2357.2747 516.7452)" font-family="'Times-Roman'" font-size="13.9984">created_at :datetime</text>
	<text transform="matrix(1 0 0 1 2357.2747 530.7443)" font-family="'Times-Roman'" font-size="13.9984">updated_at :datetime</text>
</g>
<g id="node11">
	<title>LiteratureReference</title>
	<path fill="none" stroke="#000000" d="M1972.2,509.5h109c6,0,12-6,12-12v-90c0-6-6-12-12-12h-109c-6,0-12,6-12,12v90
		C1960.2,503.5,1966.2,509.5,1972.2,509.5"/>
	<text transform="matrix(1 0 0 1 1970.7963 410.7576)" font-family="'Times-Roman'" font-size="13.9984">LiteratureReference</text>
	<line fill="none" stroke="#000000" x1="1960.2" y1="417.6" x2="2093.2" y2="417.6"/>
	<text transform="matrix(1 0 0 1 1968.2455 432.7556)" font-family="'Times-Roman'" font-size="13.9984">id :integer</text>
	<text transform="matrix(1 0 0 1 1968.2455 446.7537)" font-family="'Times-Roman'" font-size="13.9984">parent_type :string</text>
	<text transform="matrix(1 0 0 1 1968.2455 460.7517)" font-family="'Times-Roman'" font-size="13.9984">parent_id :integer</text>
	<text transform="matrix(1 0 0 1 1968.2455 474.7507)" font-family="'Times-Roman'" font-size="13.9984">string :string</text>
	<text transform="matrix(1 0 0 1 1968.2455 488.7488)" font-family="'Times-Roman'" font-size="13.9984">created_at :datetime</text>
	<text transform="matrix(1 0 0 1 1968.2455 502.7468)" font-family="'Times-Roman'" font-size="13.9984">updated_at :datetime</text>
</g>
<g id="node27">
	<title>Translation</title>
	<path fill="none" stroke="#000000" d="M2157.3,523.5h126.9c6,0,12-6,12-12v-104c0-6-6-12-12-12h-126.9c-6,0-12,6-12,12v104
		C2145.3,517.5,2151.3,523.5,2157.3,523.5"/>
	<text transform="matrix(1 0 0 1 2189.1716 410.7578)" font-family="'Times-Roman'" font-size="13.9984">Translation</text>
	<line fill="none" stroke="#000000" x1="2145.3" y1="417.6" x2="2296.3" y2="417.6"/>
	<text transform="matrix(1 0 0 1 2153.3425 432.7548)" font-family="'Times-Roman'" font-size="13.9984">id :integer</text>
	<text transform="matrix(1 0 0 1 2153.3425 446.7538)" font-family="'Times-Roman'" font-size="13.9984">of_medium_type :string</text>
	<text transform="matrix(1 0 0 1 2153.3425 460.7519)" font-family="'Times-Roman'" font-size="13.9984">of_medium_id :integer</text>
	<text transform="matrix(1 0 0 1 2153.3425 474.7499)" font-family="'Times-Roman'" font-size="13.9984">to_medium_type :string</text>
	<text transform="matrix(1 0 0 1 2153.3425 488.749)" font-family="'Times-Roman'" font-size="13.9984">to_medium_id :integer</text>
	<text transform="matrix(1 0 0 1 2153.3425 502.747)" font-family="'Times-Roman'" font-size="13.9984">created_at :datetime</text>
	<text transform="matrix(1 0 0 1 2153.3425 516.7451)" font-family="'Times-Roman'" font-size="13.9984">updated_at :datetime</text>
</g>
<g id="node26">
	<title>Trait</title>
	<path fill="none" stroke="#000000" d="M1633.5,212.2h170.4c6,0,12-6,12-12v-174c0-6-6-12-12-12h-170.4c-6,0-12,6-12,12v174
		C1621.5,206.2,1627.5,212.2,1633.5,212.2"/>
	<text transform="matrix(1 0 0 1 1705.3188 29.4003)" font-family="'Times-Roman'" font-size="13.9984">Trait</text>
	<line fill="none" stroke="#000000" x1="1621.5" y1="36.2" x2="1815.9" y2="36.2"/>
	<text transform="matrix(1 0 0 1 1629.4683 51.3973)" font-family="'Times-Roman'" font-size="13.9984">id :integer</text>
	<text transform="matrix(1 0 0 1 1629.4683 65.3954)" font-family="'Times-Roman'" font-size="13.9984">subject_type :string</text>
	<text transform="matrix(1 0 0 1 1629.4683 79.3944)" font-family="'Times-Roman'" font-size="13.9984">subject_id :integer</text>
	<text transform="matrix(1 0 0 1 1629.4683 93.3925)" font-family="'Times-Roman'" font-size="13.9984">original_predicate_name :string</text>
	<text transform="matrix(1 0 0 1 1629.4683 107.3905)" font-family="'Times-Roman'" font-size="13.9984">predicate_uri_id :integer</text>
	<text transform="matrix(1 0 0 1 1629.4683 121.3895)" font-family="'Times-Roman'" font-size="13.9984">value :string</text>
	<text transform="matrix(1 0 0 1 1629.4683 135.3876)" font-family="'Times-Roman'" font-size="13.9984">text :string</text>
	<text transform="matrix(1 0 0 1 1629.4683 149.3866)" font-family="'Times-Roman'" font-size="13.9984">object_uri_id :integer</text>
	<text transform="matrix(1 0 0 1 1629.4683 163.3846)" font-family="'Times-Roman'" font-size="13.9984">units :integer</text>
	<text transform="matrix(1 0 0 1 1629.4683 177.3827)" font-family="'Times-Roman'" font-size="13.9984">original_units_uri_id :integer</text>
	<text transform="matrix(1 0 0 1 1629.4683 191.3817)" font-family="'Times-Roman'" font-size="13.9984">created_at :datetime</text>
	<text transform="matrix(1 0 0 1 1629.4683 205.3798)" font-family="'Times-Roman'" font-size="13.9984">updated_at :datetime</text>
</g>
<g id="node6">
	<title>Node</title>
	<path fill="none" stroke="#000000" d="M1525.6-335.5h109c6,0,12-6,12-12v-104c0-6-6-12-12-12h-109c-6,0-12,6-12,12v104
		C1513.6-341.5,1519.6-335.5,1525.6-335.5"/>
	<text transform="matrix(1 0 0 1 1556.7935 -448.3041)" font-family="'Times-Roman'" font-size="13.9984">Node</text>
	<line fill="none" stroke="#000000" x1="1513.6" y1="-441.5" x2="1646.6" y2="-441.5"/>
	<text transform="matrix(1 0 0 1 1521.615 -426.307)" font-family="'Times-Roman'" font-size="13.9984">id :integer</text>
	<text transform="matrix(1 0 0 1 1521.615 -412.308)" font-family="'Times-Roman'" font-size="13.9984">partner_id :integer</text>
	<text transform="matrix(1 0 0 1 1521.615 -398.3099)" font-family="'Times-Roman'" font-size="13.9984">parent_id :integer</text>
	<text transform="matrix(1 0 0 1 1521.615 -384.3119)" font-family="'Times-Roman'" font-size="13.9984">page_id :integer</text>
	<text transform="matrix(1 0 0 1 1521.615 -370.3129)" font-family="'Times-Roman'" font-size="13.9984">original_id :string</text>
	<text transform="matrix(1 0 0 1 1521.615 -356.3148)" font-family="'Times-Roman'" font-size="13.9984">created_at :datetime</text>
	<text transform="matrix(1 0 0 1 1521.615 -342.3168)" font-family="'Times-Roman'" font-size="13.9984">updated_at :datetime</text>
</g>
<g id="node7">
	<title>Image</title>
	<path fill="none" stroke="#000000" d="M2076.1,240.2h110.6c6,0,12-6,12-12v-202c0-6-6-12-12-12h-110.6c-6,0-12,6-12,12v202
		C2064.1,234.2,2070.1,240.2,2076.1,240.2"/>
	<text transform="matrix(1 0 0 1 2113.9072 29.3999)" font-family="'Times-Roman'" font-size="13.9984">Image</text>
	<line fill="none" stroke="#000000" x1="2064.1" y1="36.2" x2="2198.7" y2="36.2"/>
	<text transform="matrix(1 0 0 1 2072.0925 51.3969)" font-family="'Times-Roman'" font-size="13.9984">id :integer</text>
	<text transform="matrix(1 0 0 1 2072.0925 65.396)" font-family="'Times-Roman'" font-size="13.9984">guid :string</text>
	<text transform="matrix(1 0 0 1 2072.0925 79.394)" font-family="'Times-Roman'" font-size="13.9984">locale :integer</text>
	<text transform="matrix(1 0 0 1 2072.0925 93.393)" font-family="'Times-Roman'" font-size="13.9984">preview :boolean</text>
	<text transform="matrix(1 0 0 1 2072.0925 107.3911)" font-family="'Times-Roman'" font-size="13.9984">title :string</text>
	<text transform="matrix(1 0 0 1 2072.0925 121.3891)" font-family="'Times-Roman'" font-size="13.9984">description :text</text>
	<text transform="matrix(1 0 0 1 2072.0925 135.3882)" font-family="'Times-Roman'" font-size="13.9984">copyright :string</text>
	<text transform="matrix(1 0 0 1 2072.0925 149.3862)" font-family="'Times-Roman'" font-size="13.9984">license_id :integer</text>
	<text transform="matrix(1 0 0 1 2072.0925 163.3842)" font-family="'Times-Roman'" font-size="13.9984">original_url :string</text>
	<text transform="matrix(1 0 0 1 2072.0925 177.3833)" font-family="'Times-Roman'" font-size="13.9984">full_size_url :string</text>
	<text transform="matrix(1 0 0 1 2072.0925 191.3813)" font-family="'Times-Roman'" font-size="13.9984">crop_url :string</text>
	<text transform="matrix(1 0 0 1 2072.0925 205.3794)" font-family="'Times-Roman'" font-size="13.9984">thumbnail_url :string</text>
	<text transform="matrix(1 0 0 1 2072.0925 219.3784)" font-family="'Times-Roman'" font-size="13.9984">created_at :datetime</text>
	<text transform="matrix(1 0 0 1 2072.0925 233.3764)" font-family="'Times-Roman'" font-size="13.9984">updated_at :datetime</text>
</g>
<g id="node8">
	<title>Javascript</title>
	<path fill="none" stroke="#000000" d="M2711.9,481.5h109c6,0,12-6,12-12v-62c0-6-6-12-12-12h-109c-6,0-12,6-12,12v62
		C2699.9,475.6,2705.9,481.5,2711.9,481.5"/>
	<text transform="matrix(1 0 0 1 2738.374 410.7576)" font-family="'Times-Roman'" font-size="13.9984">Javascript</text>
	<line fill="none" stroke="#000000" x1="2699.9" y1="417.6" x2="2832.9" y2="417.6"/>
	<text transform="matrix(1 0 0 1 2707.8574 432.7552)" font-family="'Times-Roman'" font-size="13.9984">id :integer</text>
	<text transform="matrix(1 0 0 1 2707.8574 446.7537)" font-family="'Times-Roman'" font-size="13.9984">name :string</text>
	<text transform="matrix(1 0 0 1 2707.8574 460.7517)" font-family="'Times-Roman'" font-size="13.9984">created_at :datetime</text>
	<text transform="matrix(1 0 0 1 2707.8574 474.7503)" font-family="'Times-Roman'" font-size="13.9984">updated_at :datetime</text>
</g>
<g id="node12">
	<title>Map</title>
	<path fill="none" stroke="#000000" d="M2243.4,268.2h111.3c6,0,12-6,12-12v-230c0-6-6-12-12-12h-111.3c-6,0-12,6-12,12v230
		C2231.4,262.2,2237.4,268.2,2243.4,268.2"/>
	<text transform="matrix(1 0 0 1 2286.2192 29.3998)" font-family="'Times-Roman'" font-size="13.9984">Map</text>
	<line fill="none" stroke="#000000" x1="2231.4" y1="36.2" x2="2366.7" y2="36.2"/>
	<text transform="matrix(1 0 0 1 2239.3755 51.3978)" font-family="'Times-Roman'" font-size="13.9984">id :integer</text>
	<text transform="matrix(1 0 0 1 2239.3755 65.3959)" font-family="'Times-Roman'" font-size="13.9984">guid :string</text>
	<text transform="matrix(1 0 0 1 2239.3755 79.3939)" font-family="'Times-Roman'" font-size="13.9984">locale :integer</text>
	<text transform="matrix(1 0 0 1 2239.3755 93.3929)" font-family="'Times-Roman'" font-size="13.9984">preview :boolean</text>
	<text transform="matrix(1 0 0 1 2239.3755 107.391)" font-family="'Times-Roman'" font-size="13.9984">title :string</text>
	<text transform="matrix(1 0 0 1 2239.3755 121.389)" font-family="'Times-Roman'" font-size="13.9984">description :text</text>
	<text transform="matrix(1 0 0 1 2239.3755 135.3881)" font-family="'Times-Roman'" font-size="13.9984">copyright :string</text>
	<text transform="matrix(1 0 0 1 2239.3755 149.3861)" font-family="'Times-Roman'" font-size="13.9984">license_id :integer</text>
	<text transform="matrix(1 0 0 1 2239.3755 163.3842)" font-family="'Times-Roman'" font-size="13.9984">original_url :string</text>
	<text transform="matrix(1 0 0 1 2239.3755 177.3832)" font-family="'Times-Roman'" font-size="13.9984">full_size_url :string</text>
	<text transform="matrix(1 0 0 1 2239.3755 191.3812)" font-family="'Times-Roman'" font-size="13.9984">crop_url :string</text>
	<text transform="matrix(1 0 0 1 2239.3755 205.3802)" font-family="'Times-Roman'" font-size="13.9984">thumbnail_url :string</text>
	<text transform="matrix(1 0 0 1 2239.3755 219.3783)" font-family="'Times-Roman'" font-size="13.9984">javascript_id :integer</text>
	<text transform="matrix(1 0 0 1 2239.3755 233.3763)" font-family="'Times-Roman'" font-size="13.9984">stylesheet_id :integer</text>
	<text transform="matrix(1 0 0 1 2239.3755 247.3754)" font-family="'Times-Roman'" font-size="13.9984">created_at :datetime</text>
	<text transform="matrix(1 0 0 1 2239.3755 261.3734)" font-family="'Times-Roman'" font-size="13.9984">updated_at :datetime</text>
</g>
<g id="node22">
	<title>Sound</title>
	<path fill="none" stroke="#000000" d="M2406.4,240.2h111.3c6,0,12-6,12-12v-202c0-6-6-12-12-12h-111.3c-6,0-12,6-12,12v202
		C2394.4,234.2,2400.4,240.2,2406.4,240.2"/>
	<text transform="matrix(1 0 0 1 2444.1677 29.3999)" font-family="'Times-Roman'" font-size="13.9984">Sound</text>
	<line fill="none" stroke="#000000" x1="2394.4" y1="36.2" x2="2529.7" y2="36.2"/>
	<text transform="matrix(1 0 0 1 2402.3855 51.397)" font-family="'Times-Roman'" font-size="13.9984">id :integer</text>
	<text transform="matrix(1 0 0 1 2402.3855 65.396)" font-family="'Times-Roman'" font-size="13.9984">guid :string</text>
	<text transform="matrix(1 0 0 1 2402.3855 79.394)" font-family="'Times-Roman'" font-size="13.9984">locale :integer</text>
	<text transform="matrix(1 0 0 1 2402.3855 93.3931)" font-family="'Times-Roman'" font-size="13.9984">preview :boolean</text>
	<text transform="matrix(1 0 0 1 2402.3855 107.3911)" font-family="'Times-Roman'" font-size="13.9984">title :string</text>
	<text transform="matrix(1 0 0 1 2402.3855 121.3892)" font-family="'Times-Roman'" font-size="13.9984">description :text</text>
	<text transform="matrix(1 0 0 1 2402.3855 135.3882)" font-family="'Times-Roman'" font-size="13.9984">copyright :string</text>
	<text transform="matrix(1 0 0 1 2402.3855 149.3862)" font-family="'Times-Roman'" font-size="13.9984">license_id :integer</text>
	<text transform="matrix(1 0 0 1 2402.3855 163.3843)" font-family="'Times-Roman'" font-size="13.9984">original_url :string</text>
	<text transform="matrix(1 0 0 1 2402.3855 177.3833)" font-family="'Times-Roman'" font-size="13.9984">url :string</text>
	<text transform="matrix(1 0 0 1 2402.3855 191.3813)" font-family="'Times-Roman'" font-size="13.9984">javascript_id :integer</text>
	<text transform="matrix(1 0 0 1 2402.3855 205.3794)" font-family="'Times-Roman'" font-size="13.9984">stylesheet_id :integer</text>
	<text transform="matrix(1 0 0 1 2402.3855 219.3784)" font-family="'Times-Roman'" font-size="13.9984">created_at :datetime</text>
	<text transform="matrix(1 0 0 1 2402.3855 233.3765)" font-family="'Times-Roman'" font-size="13.9984">updated_at :datetime</text>
</g>
<g id="node29">
	<title>Video</title>
	<path fill="none" stroke="#000000" d="M2569,240.2h111.3c6,0,12-6,12-12v-202c0-6-6-12-12-12H2569c-6,0-12,6-12,12v202
		C2557,234.2,2563,240.2,2569,240.2"/>
	<text transform="matrix(1 0 0 1 2608.0146 29.3999)" font-family="'Times-Roman'" font-size="13.9984">Video</text>
	<line fill="none" stroke="#000000" x1="2557" y1="36.2" x2="2692.4" y2="36.2"/>
	<text transform="matrix(1 0 0 1 2565.0293 51.397)" font-family="'Times-Roman'" font-size="13.9984">id :integer</text>
	<text transform="matrix(1 0 0 1 2565.0293 65.396)" font-family="'Times-Roman'" font-size="13.9984">guid :string</text>
	<text transform="matrix(1 0 0 1 2565.0293 79.394)" font-family="'Times-Roman'" font-size="13.9984">locale :integer</text>
	<text transform="matrix(1 0 0 1 2565.0293 93.3931)" font-family="'Times-Roman'" font-size="13.9984">preview :boolean</text>
	<text transform="matrix(1 0 0 1 2565.0293 107.3911)" font-family="'Times-Roman'" font-size="13.9984">title :string</text>
	<text transform="matrix(1 0 0 1 2565.0293 121.3892)" font-family="'Times-Roman'" font-size="13.9984">description :text</text>
	<text transform="matrix(1 0 0 1 2565.0293 135.3882)" font-family="'Times-Roman'" font-size="13.9984">copyright :string</text>
	<text transform="matrix(1 0 0 1 2565.0293 149.3862)" font-family="'Times-Roman'" font-size="13.9984">license_id :integer</text>
	<text transform="matrix(1 0 0 1 2565.0293 163.3843)" font-family="'Times-Roman'" font-size="13.9984">original_url :string</text>
	<text transform="matrix(1 0 0 1 2565.0293 177.3833)" font-family="'Times-Roman'" font-size="13.9984">url :string</text>
	<text transform="matrix(1 0 0 1 2565.0293 191.3813)" font-family="'Times-Roman'" font-size="13.9984">javascript_id :integer</text>
	<text transform="matrix(1 0 0 1 2565.0293 205.3794)" font-family="'Times-Roman'" font-size="13.9984">stylesheet_id :integer</text>
	<text transform="matrix(1 0 0 1 2565.0293 219.3784)" font-family="'Times-Roman'" font-size="13.9984">created_at :datetime</text>
	<text transform="matrix(1 0 0 1 2565.0293 233.3765)" font-family="'Times-Roman'" font-size="13.9984">updated_at :datetime</text>
</g>
<g id="node9">
	<title>License</title>
	<path fill="none" stroke="#000000" d="M2884.2,537.5h140.1c6,0,12-6,12-12v-118c0-6-6-12-12-12h-140.1c-6,0-12,6-12,12v118
		C2872.2,531.5,2878.2,537.5,2884.2,537.5"/>
	<text transform="matrix(1 0 0 1 2932.5127 410.7573)" font-family="'Times-Roman'" font-size="13.9984">License</text>
	<line fill="none" stroke="#000000" x1="2872.2" y1="417.6" x2="3036.3" y2="417.6"/>
	<text transform="matrix(1 0 0 1 2880.2266 432.7549)" font-family="'Times-Roman'" font-size="13.9984">id :integer</text>
	<text transform="matrix(1 0 0 1 2880.2266 446.7534)" font-family="'Times-Roman'" font-size="13.9984">type :integer</text>
	<text transform="matrix(1 0 0 1 2880.2266 460.7519)" font-family="'Times-Roman'" font-size="13.9984">icon_file_name :string</text>
	<text transform="matrix(1 0 0 1 2880.2266 474.7505)" font-family="'Times-Roman'" font-size="13.9984">icon_content_type :string</text>
	<text transform="matrix(1 0 0 1 2880.2266 488.7485)" font-family="'Times-Roman'" font-size="13.9984">icon_file_size :integer</text>
	<text transform="matrix(1 0 0 1 2880.2266 502.747)" font-family="'Times-Roman'" font-size="13.9984">icon_updated_at :datetime</text>
	<text transform="matrix(1 0 0 1 2880.2266 516.7456)" font-family="'Times-Roman'" font-size="13.9984">created_at :datetime</text>
	<text transform="matrix(1 0 0 1 2880.2266 530.7437)" font-family="'Times-Roman'" font-size="13.9984">updated_at :datetime</text>
</g>
<g id="node10">
	<title>Link</title>
	<path fill="none" stroke="#000000" d="M1269.1-24.4h109c6,0,12-6,12-12v-104c0-6-6-12-12-12h-109c-6,0-12,6-12,12v104
		C1257.1-30.4,1263.1-24.4,1269.1-24.4"/>
	<text transform="matrix(1 0 0 1 1310.4243 -137.1808)" font-family="'Times-Roman'" font-size="13.9984">Link</text>
	<line fill="none" stroke="#000000" x1="1257.1" y1="-130.4" x2="1390.1" y2="-130.4"/>
	<text transform="matrix(1 0 0 1 1265.1399 -115.1838)" font-family="'Times-Roman'" font-size="13.9984">id :integer</text>
	<text transform="matrix(1 0 0 1 1265.1399 -101.1848)" font-family="'Times-Roman'" font-size="13.9984">partner_id :integer</text>
	<text transform="matrix(1 0 0 1 1265.1399 -87.1867)" font-family="'Times-Roman'" font-size="13.9984">name :string</text>
	<text transform="matrix(1 0 0 1 1265.1399 -73.1887)" font-family="'Times-Roman'" font-size="13.9984">url :string</text>
	<text transform="matrix(1 0 0 1 1265.1399 -59.1896)" font-family="'Times-Roman'" font-size="13.9984">position :integer</text>
	<text transform="matrix(1 0 0 1 1265.1399 -45.1916)" font-family="'Times-Roman'" font-size="13.9984">created_at :datetime</text>
	<text transform="matrix(1 0 0 1 1265.1399 -31.1935)" font-family="'Times-Roman'" font-size="13.9984">updated_at :datetime</text>
</g>
<g id="node13">
	<title>Name</title>
	<path fill="none" stroke="#000000" d="M2831.5,142.2h109c6,0,12-6,12-12v-104c0-6-6-12-12-12h-109c-6,0-12,6-12,12v104
		C2819.5,136.2,2825.5,142.2,2831.5,142.2"/>
	<text transform="matrix(1 0 0 1 2869.3125 29.4001)" font-family="'Times-Roman'" font-size="13.9984">Name</text>
	<line fill="none" stroke="#000000" x1="2819.5" y1="36.2" x2="2952.5" y2="36.2"/>
	<text transform="matrix(1 0 0 1 2827.5264 51.3976)" font-family="'Times-Roman'" font-size="13.9984">id :integer</text>
	<text transform="matrix(1 0 0 1 2827.5264 65.3956)" font-family="'Times-Roman'" font-size="13.9984">string :string</text>
	<text transform="matrix(1 0 0 1 2827.5264 79.3942)" font-family="'Times-Roman'" font-size="13.9984">type :integer</text>
	<text transform="matrix(1 0 0 1 2827.5264 93.3927)" font-family="'Times-Roman'" font-size="13.9984">locale :integer</text>
	<text transform="matrix(1 0 0 1 2827.5264 107.3912)" font-family="'Times-Roman'" font-size="13.9984">preview :boolean</text>
	<text transform="matrix(1 0 0 1 2827.5264 121.3893)" font-family="'Times-Roman'" font-size="13.9984">created_at :datetime</text>
	<text transform="matrix(1 0 0 1 2827.5264 135.3878)" font-family="'Times-Roman'" font-size="13.9984">updated_at :datetime</text>
</g>
<g id="node19">
	<title>Publication</title>
	<path fill="none" stroke="#000000" d="M3025.5,156.2h172c6,0,12-6,12-12v-118c0-6-6-12-12-12h-172c-6,0-12,6-12,12v118
		C3013.5,150.2,3019.5,156.2,3025.5,156.2"/>
	<text transform="matrix(1 0 0 1 3079.6289 29.3997)" font-family="'Times-Roman'" font-size="13.9984">Publication</text>
	<line fill="none" stroke="#000000" x1="3013.5" y1="36.2" x2="3209.5" y2="36.2"/>
	<text transform="matrix(1 0 0 1 3021.5337 51.3972)" font-family="'Times-Roman'" font-size="13.9984">id :integer</text>
	<text transform="matrix(1 0 0 1 3021.5337 65.3958)" font-family="'Times-Roman'" font-size="13.9984">title :string</text>
	<text transform="matrix(1 0 0 1 3021.5337 79.3943)" font-family="'Times-Roman'" font-size="13.9984">url :string</text>
	<text transform="matrix(1 0 0 1 3021.5337 93.3928)" font-family="'Times-Roman'" font-size="13.9984">appearance_url_template :string</text>
	<text transform="matrix(1 0 0 1 3021.5337 107.3909)" font-family="'Times-Roman'" font-size="13.9984">details :string</text>
	<text transform="matrix(1 0 0 1 3021.5337 121.3894)" font-family="'Times-Roman'" font-size="13.9984">year :string</text>
	<text transform="matrix(1 0 0 1 3021.5337 135.388)" font-family="'Times-Roman'" font-size="13.9984">created_at :datetime</text>
	<text transform="matrix(1 0 0 1 3021.5337 149.386)" font-family="'Times-Roman'" font-size="13.9984">updated_at :datetime</text>
</g>
<g id="node20">
	<title>Role</title>
	<path fill="none" stroke="#000000" d="M2364.4,671.9h109c6,0,12-6,12-12v-62c0-6-6-12-12-12h-109c-6,0-12,6-12,12v62
		C2352.4,665.9,2358.4,671.9,2364.4,671.9"/>
	<text transform="matrix(1 0 0 1 2405.6711 601.0862)" font-family="'Times-Roman'" font-size="13.9984">Role</text>
	<line fill="none" stroke="#000000" x1="2352.4" y1="607.9" x2="2485.4" y2="607.9"/>
	<text transform="matrix(1 0 0 1 2360.3914 623.0837)" font-family="'Times-Roman'" font-size="13.9984">id :integer</text>
	<text transform="matrix(1 0 0 1 2360.3914 637.0818)" font-family="'Times-Roman'" font-size="13.9984">name :integer</text>
	<text transform="matrix(1 0 0 1 2360.3914 651.0803)" font-family="'Times-Roman'" font-size="13.9984">created_at :datetime</text>
	<text transform="matrix(1 0 0 1 2360.3914 665.0789)" font-family="'Times-Roman'" font-size="13.9984">updated_at :datetime</text>
</g>
<title>Role-&gt;Attribution</title>
<g id="node21">
	<title>Section</title>
	<path fill="none" stroke="#000000" d="M1797.7,509.5h109c6,0,12-6,12-12v-90c0-6-6-12-12-12h-109c-6,0-12,6-12,12v90
		C1785.7,503.5,1791.7,509.5,1797.7,509.5"/>
	<text transform="matrix(1 0 0 1 1831.1965 410.7577)" font-family="'Times-Roman'" font-size="13.9984">Section</text>
	<line fill="none" stroke="#000000" x1="1785.7" y1="417.6" x2="1918.7" y2="417.6"/>
	<text transform="matrix(1 0 0 1 1793.6877 432.7548)" font-family="'Times-Roman'" font-size="13.9984">id :integer</text>
	<text transform="matrix(1 0 0 1 1793.6877 446.7538)" font-family="'Times-Roman'" font-size="13.9984">type :integer</text>
	<text transform="matrix(1 0 0 1 1793.6877 460.7518)" font-family="'Times-Roman'" font-size="13.9984">position :integer</text>
	<text transform="matrix(1 0 0 1 1793.6877 474.7499)" font-family="'Times-Roman'" font-size="13.9984">parent_id :integer</text>
	<text transform="matrix(1 0 0 1 1793.6877 488.7489)" font-family="'Times-Roman'" font-size="13.9984">created_at :datetime</text>
	<text transform="matrix(1 0 0 1 1793.6877 502.7469)" font-family="'Times-Roman'" font-size="13.9984">updated_at :datetime</text>
</g>
<g id="node28">
	<title>Uri</title>
	<path fill="none" stroke="#000000" d="M1580.8,537.5h155.7c6,0,12-6,12-12v-118c0-6-6-12-12-12h-155.7c-6,0-12,6-12,12v118
		C1568.8,531.5,1574.8,537.5,1580.8,537.5"/>
	<text transform="matrix(1 0 0 1 1649.3484 410.7571)" font-family="'Times-Roman'" font-size="13.9984">Uri</text>
	<line fill="none" stroke="#000000" x1="1568.8" y1="417.6" x2="1748.5" y2="417.6"/>
	<text transform="matrix(1 0 0 1 1576.8474 432.755)" font-family="'Times-Roman'" font-size="13.9984">id :integer</text>
	<text transform="matrix(1 0 0 1 1576.8474 446.7532)" font-family="'Times-Roman'" font-size="13.9984">string :string</text>
	<text transform="matrix(1 0 0 1 1576.8474 460.7522)" font-family="'Times-Roman'" font-size="13.9984">locale :integer</text>
	<text transform="matrix(1 0 0 1 1576.8474 474.7501)" font-family="'Times-Roman'" font-size="13.9984">position :integer</text>
	<text transform="matrix(1 0 0 1 1576.8474 488.7483)" font-family="'Times-Roman'" font-size="13.9984">show_in_glossary :boolean</text>
	<text transform="matrix(1 0 0 1 1576.8474 502.7473)" font-family="'Times-Roman'" font-size="13.9984">important_metadata :boolean</text>
	<text transform="matrix(1 0 0 1 1576.8474 516.7452)" font-family="'Times-Roman'" font-size="13.9984">created_at :datetime</text>
	<text transform="matrix(1 0 0 1 1576.8474 530.7434)" font-family="'Times-Roman'" font-size="13.9984">updated_at :datetime</text>
</g>
<g id="node23">
	<title>Partner</title>
	<path fill="none" stroke="#000000" d="M1269.1-237.3h140.1c6,0,12-6,12-12v-202c0-6-6-12-12-12h-140.1c-6,0-12,6-12,12v202
		C1257.1-243.3,1263.1-237.3,1269.1-237.3"/>
	<text transform="matrix(1 0 0 1 1319.7561 -448.0374)" font-family="'Times-Roman'" font-size="13.9984">Partner</text>
	<line fill="none" stroke="#000000" x1="1257.1" y1="-441.2" x2="1421.2" y2="-441.2"/>
	<text transform="matrix(1 0 0 1 1265.1399 -426.0403)" font-family="'Times-Roman'" font-size="13.9984">id :integer</text>
	<text transform="matrix(1 0 0 1 1265.1399 -412.0413)" font-family="'Times-Roman'" font-size="13.9984">name :string</text>
	<text transform="matrix(1 0 0 1 1265.1399 -398.0433)" font-family="'Times-Roman'" font-size="13.9984">full_name :string</text>
	<text transform="matrix(1 0 0 1 1265.1399 -384.0443)" font-family="'Times-Roman'" font-size="13.9984">abbr :string</text>
	<text transform="matrix(1 0 0 1 1265.1399 -370.0462)" font-family="'Times-Roman'" font-size="13.9984">description :text</text>
	<text transform="matrix(1 0 0 1 1265.1399 -356.0482)" font-family="'Times-Roman'" font-size="13.9984">private_notes :text</text>
	<text transform="matrix(1 0 0 1 1265.1399 -342.0491)" font-family="'Times-Roman'" font-size="13.9984">admin_notes :text</text>
	<text transform="matrix(1 0 0 1 1265.1399 -328.0511)" font-family="'Times-Roman'" font-size="13.9984">icon_file_name :string</text>
	<text transform="matrix(1 0 0 1 1265.1399 -314.053)" font-family="'Times-Roman'" font-size="13.9984">icon_content_type :string</text>
	<text transform="matrix(1 0 0 1 1265.1399 -300.054)" font-family="'Times-Roman'" font-size="13.9984">icon_file_size :integer</text>
	<text transform="matrix(1 0 0 1 1265.1399 -286.056)" font-family="'Times-Roman'" font-size="13.9984">icon_updated_at :datetime</text>
	<text transform="matrix(1 0 0 1 1265.1399 -272.0579)" font-family="'Times-Roman'" font-size="13.9984">url :string</text>
	<text transform="matrix(1 0 0 1 1265.1399 -258.0589)" font-family="'Times-Roman'" font-size="13.9984">created_at :datetime</text>
	<text transform="matrix(1 0 0 1 1265.1399 -244.0609)" font-family="'Times-Roman'" font-size="13.9984">updated_at :datetime</text>
</g>
<g id="node24">
	<title>Stylesheet</title>
	<path fill="none" stroke="#000000" d="M2540.9,481.5h109c6,0,12-6,12-12v-62c0-6-6-12-12-12h-109c-6,0-12,6-12,12v62
		C2528.9,475.6,2534.9,481.5,2540.9,481.5"/>
	<text transform="matrix(1 0 0 1 2566.6094 410.7576)" font-family="'Times-Roman'" font-size="13.9984">Stylesheet</text>
	<line fill="none" stroke="#000000" x1="2528.9" y1="417.6" x2="2661.9" y2="417.6"/>
	<text transform="matrix(1 0 0 1 2536.875 432.7552)" font-family="'Times-Roman'" font-size="13.9984">id :integer</text>
	<text transform="matrix(1 0 0 1 2536.875 446.7537)" font-family="'Times-Roman'" font-size="13.9984">name :string</text>
	<text transform="matrix(1 0 0 1 2536.875 460.7517)" font-family="'Times-Roman'" font-size="13.9984">created_at :datetime</text>
	<text transform="matrix(1 0 0 1 2536.875 474.7503)" font-family="'Times-Roman'" font-size="13.9984">updated_at :datetime</text>
</g>
<g id="node25">
	<title>Page</title>
	<path fill="none" stroke="#000000" d="M1760.7-390.3h109c6,0,12-6,12-12v-48c0-6-6-12-12-12h-109c-6,0-12,6-12,12v48
		C1748.7-396.3,1754.7-390.3,1760.7-390.3"/>
	<text transform="matrix(1 0 0 1 1798.8679 -447.1053)" font-family="'Times-Roman'" font-size="13.9984">Page</text>
	<line fill="none" stroke="#000000" x1="1748.7" y1="-440.3" x2="1881.7" y2="-440.3"/>
	<text transform="matrix(1 0 0 1 1756.7009 -425.1077)" font-family="'Times-Roman'" font-size="13.9984">id :integer</text>
	<text transform="matrix(1 0 0 1 1756.7009 -411.1092)" font-family="'Times-Roman'" font-size="13.9984">created_at :datetime</text>
	<text transform="matrix(1 0 0 1 1756.7009 -397.1107)" font-family="'Times-Roman'" font-size="13.9984">updated_at :datetime</text>
</g>
<text transform="matrix(1 0 0 1 1877.6882 4.4395)" fill="#0B743B" font-family="'MyriadPro-Regular'" font-size="19">Medium (Abstract)</text>
<text transform="matrix(1 0 0 1 1622 -49)" fill="#5B3C17" font-family="'MyriadPro-Regular'" font-size="19">Associatable (Abstract)</text>
</svg>
